<?xml version="1.0" encoding="UTF-8"?>
<svg id="Capa_2" data-name="Capa 2" xmlns="http://www.w3.org/2000/svg" viewBox="0 0 26.21 17.61">
  <defs>
    <style>
      .cls-1 {
        fill: #fff;
      }
    </style>
  </defs>
  <g id="Capa_1-2" data-name="Capa 1">
    <path class="cls-1" d="M26.01,2.71c.06,.04,.11,.08,.15,.15,.04,.06,.05,.13,.05,.21s-.02,.15-.05,.21c-.03,.06-.08,.11-.15,.15-.06,.04-.13,.05-.21,.05s-.15-.02-.21-.05c-.06-.04-.11-.08-.15-.15s-.05-.13-.05-.21,.02-.15,.05-.21,.08-.11,.15-.15c.06-.04,.13-.05,.21-.05s.15,.02,.21,.05Zm.02,.59c.06-.06,.09-.14,.09-.23s-.03-.17-.09-.23c-.06-.06-.13-.09-.23-.09s-.17,.03-.23,.09-.08,.14-.08,.23,.03,.17,.08,.23,.13,.09,.23,.09,.17-.03,.23-.09Zm-.07-.24s-.03,.04-.06,.05l.1,.16h-.15l-.09-.15h-.01v.15h-.12v-.43h.2s.08,.01,.11,.04c.03,.03,.04,.06,.04,.1,0,.03,0,.05-.02,.08Zm-.21-.04h.07s.02,0,.03,0c0,0,.01-.01,.01-.02s0-.02-.01-.02c0,0-.02,0-.03,0h-.07v.06Z"/>
    <g>
      <path class="cls-1" d="M2.87,16.41c.07,.04,.11,.1,.12,.19,0,.02,0,.04,0,.06,0,.08-.02,.15-.06,.21-.04,.07-.11,.12-.19,.16l.27,.42-.26,.05-.24-.41-.11,.02v.45s-.23,.04-.23,.04v-1.15l.42-.07c.11-.02,.21-.01,.27,.03Zm-.1,.26s-.03-.07-.06-.09c-.03-.02-.07-.02-.12-.01l-.19,.03v.34l.19-.03c.06-.01,.1-.03,.13-.07,.03-.04,.05-.08,.05-.14,0-.02,0-.03,0-.04Z"/>
      <path class="cls-1" d="M3.72,16.36v.3s.38-.07,.38-.07v.18l-.38,.07v.31s.43-.08,.43-.08v.18l-.65,.12v-1.16s.65-.12,.65-.12v.18s-.42,.08-.42,.08Z"/>
      <path class="cls-1" d="M4.79,17.07c-.08-.04-.13-.1-.15-.2,0,0,0-.02,0-.04l.23-.04s.02,.08,.06,.1c.03,.02,.08,.03,.13,.02s.1-.03,.12-.06c.03-.03,.04-.06,.03-.11,0-.04-.03-.07-.07-.09-.04-.02-.09-.03-.17-.05-.07-.01-.13-.03-.17-.05-.04-.01-.08-.04-.12-.08-.04-.04-.06-.08-.07-.14-.01-.07,0-.13,.02-.19,.03-.06,.07-.11,.13-.14,.06-.04,.13-.07,.21-.08,.08-.01,.15-.01,.21,0,.06,.02,.11,.04,.15,.09,.04,.04,.06,.1,.07,.16l-.24,.04v-.02s-.03-.06-.06-.08c-.03-.02-.07-.02-.12-.01-.05,0-.09,.03-.12,.06-.03,.03-.04,.06-.03,.1,0,.03,.02,.05,.04,.07,.02,.02,.05,.03,.07,.04s.07,.02,.12,.04c.07,.02,.12,.03,.17,.05,.05,.02,.09,.04,.12,.08s.06,.08,.07,.14c.01,.06,0,.12-.02,.18-.03,.06-.07,.11-.13,.14-.06,.04-.13,.07-.21,.08-.11,.02-.21,0-.29-.03Z"/>
      <path class="cls-1" d="M6.69,15.65v.18s-.3,.05-.3,.05v.97s-.23,.04-.23,.04v-.97l-.3,.05v-.18s.82-.15,.82-.15Z"/>
      <path class="cls-1" d="M7.83,16.38l-.45,.08-.07,.23-.24,.04,.4-1.23,.26-.05,.4,1.08-.24,.04-.07-.21Zm-.06-.17l-.17-.46-.16,.52,.33-.06Z"/>
      <path class="cls-1" d="M8.81,15.27v.71s0,.05,0,.06c.01,.06,.04,.09,.07,.12,.04,.02,.09,.03,.15,.02,.07-.01,.13-.04,.17-.09,.04-.05,.06-.11,.06-.19v-.71s.22-.04,.22-.04v.71c0,.1-.02,.19-.06,.26-.04,.07-.1,.13-.16,.18-.07,.05-.15,.08-.23,.09-.11,.02-.21,0-.29-.04-.08-.05-.13-.12-.15-.23,0-.03,0-.06,0-.1v-.71s.22-.04,.22-.04Z"/>
      <path class="cls-1" d="M10.7,15.01c.07,.04,.11,.1,.12,.19,0,.02,0,.04,0,.06,0,.07-.02,.15-.06,.21s-.11,.12-.19,.16l.27,.42-.26,.05-.24-.41-.11,.02v.45s-.23,.04-.23,.04v-1.15l.42-.08c.11-.02,.21,0,.27,.03Zm-.1,.26s-.03-.07-.05-.09c-.03-.02-.07-.02-.12-.01l-.19,.03v.34l.19-.03c.06-.01,.1-.03,.14-.07,.03-.04,.05-.08,.05-.13,0-.02,0-.03,0-.04Z"/>
      <path class="cls-1" d="M12.02,15.63l-.45,.08-.07,.23-.24,.04,.4-1.23,.26-.05,.4,1.08-.24,.04-.07-.21Zm-.06-.17l-.17-.46-.16,.52,.33-.06Z"/>
      <path class="cls-1" d="M13.74,15.55l-.23,.04-.51-.7v.79l-.23,.04v-1.16s.22-.04,.22-.04l.51,.7v-.79l.22-.04v1.16Z"/>
      <path class="cls-1" d="M15.01,14.17v.18s-.3,.05-.3,.05v.97s-.22,.04-.22,.04v-.97s-.3,.05-.3,.05v-.18l.82-.15Z"/>
      <path class="cls-1" d="M15.7,14.22v.3l.38-.07v.18l-.38,.07v.31l.43-.08v.18l-.65,.12v-1.16s.65-.12,.65-.12v.18s-.42,.08-.42,.08Z"/>
    </g>
    <g>
      <path class="cls-1" d="M5.35,13.15c-.33,1.32-1.44,2.21-2.7,2.43-1.33,.24-2.23-.38-2.54-2.12-.33-1.84-.09-5.46,2.65-5.95,.91-.16,1.73,.08,1.91,1.09,.09,.51-.03,.95-.55,1.04-.16,.03-.39,.03-.63-.16,.22-.17,.37-.64,.3-1.01-.06-.34-.3-.6-.69-.53-1.18,.21-1.68,3.06-1.32,5.11,.17,.98,.52,1.63,1.51,1.45,.77-.14,1.45-.7,1.81-1.42l.25,.06Z"/>
      <path class="cls-1" d="M9.4,8.97l-.13,3.6c0,.14,0,.24,.02,.33,.05,.29,.2,.35,.48,.3,.4-.07,.6-.51,.67-1.04l.43-.08c-.28,1.76-1.17,2.09-1.72,2.19-.55,.1-.97-.14-1.16-.71-.22,.52-.63,1.09-1.35,1.22-.69,.12-1.43-.19-1.65-1.4-.24-1.37,.21-3.71,1.98-4.03,.34-.06,.77-.07,.93,.38l.02-.5,1.48-.26Zm-2.92,4c.14,.78,.47,.74,.65,.7,.3-.05,.67-.43,.69-1.05l.08-2.39c-.03-.12-.17-.37-.49-.31-.87,.15-1.1,2.09-.93,3.04Z"/>
      <path class="cls-1" d="M14.76,11.38c-.42,.71-.91,1.19-1.33,1.55-.35,.52-.97,.8-1.49,.9-1.04,.19-1.61-.42-1.72-1.04-.08-.47,.11-.86,.37-1.04,.39-1.11,.58-2.18,.72-3.24l1.47-.47c.59,2.62,.76,2.99,.88,3.67,.03,.14,.04,.27,.03,.39,.25-.21,.48-.44,.64-.64l.43-.08Zm-3.74,1.18c-.1,.02-.23,0-.3-.08,.09,.48,.3,.68,.75,.6,.45-.08,.84-.39,.72-1.1-.09-.53-.24-.83-.62-2.38-.09,.7-.26,1.36-.48,2.07,.14,.04,.27,.14,.3,.31,.04,.24-.09,.53-.36,.58Z"/>
      <path class="cls-1" d="M15.91,7.81l-.12,3.59c0,.14,0,.24,.02,.33,.05,.29,.2,.35,.48,.3,.4-.07,.69-.52,.76-1.06l.43-.08c-.28,1.76-1.25,2.17-1.8,2.26-.61,.11-1.16-.17-1.31-1.03-.03-.19-.04-.42-.04-.68l.11-3.39,1.47-.26Z"/>
      <path class="cls-1" d="M19.77,10.49c-.01,.12-.04,.23-.07,.34-.12,.38-.37,.66-.68,.72-.16,.03-.28,.02-.36-.04-.03-.02-.06-.06-.08-.09-.02-.04-.04-.1-.05-.16-.02-.09-.02-.2-.02-.33h0s.05-1.41,.05-1.41l.03-.83,.03-.94,.29-.05,.32-.06v-.42s0,0,0,0l-.1,.02-.52,.09,.06-1.67-1.47,.47v.23s0,0,0,0l-.02,.51-.03,.72h-.07s-.27,.06-.27,.06v.42s.26-.05,.26-.05h.07s-.06,1.75-.06,1.75h0s-.04,1.2-.04,1.2c0,.25,0,.48,.04,.68,.02,.11,.05,.21,.08,.3h0c.18,.5,.53,.73,.94,.74,.09,0,.19,0,.29-.02,.2-.04,.46-.11,.72-.28,.28-.18,.57-.48,.79-.96,.13-.28,.23-.62,.3-1.03l-.43,.08Z"/>
      <path class="cls-1" d="M19.23,7.64l-.32,.06c.07-.16,.15-.31,.23-.46l.1-.02v.42Z"/>
      <path class="cls-1" d="M22.61,6.61l-.02,.5c-.16-.46-.59-.44-.93-.38-.19,.03-.37,.09-.53,.17-.21,.1-.39,.23-.55,.39-.06,.06-.12,.12-.17,.19-.29,.35-.5,.79-.62,1.26-.01,.04-.02,.07-.03,.11,0,0,0,0,0,0-.16,.66-.18,1.36-.08,1.91,0,.02,0,.05,.01,.07,.04-.11,.06-.22,.07-.34l.43-.08c-.07,.41-.17,.75-.3,1.03,.17,.33,.4,.54,.67,.65,.06,.02,.12,.05,.19,.06,.03,0,.07,.02,.1,.02,.1,.02,.2,.02,.29,.01,.06,0,.12-.01,.18-.02,.18-.03,.34-.09,.48-.17,.34-.19,.58-.48,.75-.8,.05-.08,.09-.17,.12-.25,0,0,1,2.49-4.93,2.58,0,0-1.23,.39-.6,1.48,0,0,2.52-.1,4.44-1.28,.04-.03,.09-.06,.14-.09,0,0,0,0,.01,0,.17-.11,.34-.23,.51-.36,0,0,.02-.02,.03-.02,1.35-1.06,1.63-2.44,1.68-3.11,0-.05,0-.11,0-.18v-.22s0,0,0,0l.12-3.38-1.48,.26Zm-.11,3.39c-.02,.6-.37,.98-.66,1.04,0,0-.01,0-.02,0-.13,.02-.34,.05-.49-.22-.06-.1-.11-.25-.15-.45h0s0-.03,0-.04c-.03-.18-.05-.4-.05-.63h0c0-.22,0-.44,.04-.67,.05-.4,.14-.81,.29-1.12,.16-.33,.37-.57,.65-.62,.32-.06,.45,.19,.49,.31l-.08,2.39Z"/>
    </g>
    <g>
      <path class="cls-1" d="M8.23,8.32l-.09-2.57-.6,2.7-.77,.14-.34-2.54-.48,2.69-.45,.08,.74-4.09c-.52,.28-.78,.78-.67,1.42,.05,.26,.12,.32,.15,.37-.36,.06-.62-.03-.69-.4-.13-.72,.66-1.66,1.5-1.81,.16-.03,.31-.03,.45,0l.4,2.97,.71-3.17,.81-.14,.15,4.22-.81,.14Z"/>
      <path class="cls-1" d="M10.44,4.27c-.01-.08-.05-.15-.1-.21-.1-.12-.26-.18-.43-.15-.25,.04-.41,.28-.36,.53,.04,.25,.27,.41,.52,.36,.15-.03,.28-.13,.34-.26,.04-.08,.05-.17,.03-.26Zm.32,3.03s-.07,.05-.17,.07c-.16,.03-.24,0-.27-.17,0-.05-.01-.11,0-.18l.06-1.97-.8,.14-.06,1.86c0,.14,0,.26,.02,.37,.08,.47,.38,.62,.72,.56,.3-.05,.56-.28,.51-.69Z"/>
    </g>
    <path class="cls-1" d="M15.15,7.36c-.21,.03-.43,.05-.64,.08-.15,.02-.22-.04-.24-.19-.05-.42-.1-.83-.16-1.25-.02-.15,.03-.22,.18-.24,.43-.05,.86-.11,1.29-.16,.15-.02,.22,.04,.24,.19,.05,.42,.1,.83,.16,1.25,.02,.15-.03,.22-.18,.24-.21,.02-.43,.05-.64,.08,0,0,0,0,0,0Z"/>
    <line class="cls-1" x1="11.4" y1="6.84" x2="11.16" y2="7.3"/>
    <polyline class="cls-1" points="12.08 5.58 13.69 2.59 13.72 2.53"/>
    <line class="cls-1" x1="22.27" y1="3.9" x2="21.45" y2="3.51"/>
    <polyline class="cls-1" points="20.16 2.91 19.08 2.4 19.07 2.4"/>
    <polygon class="cls-1" points="23.46 11.95 23.46 11.96 23.46 11.96 23.46 11.95"/>
    <path class="cls-1" d="M23.61,11.65v.02h-.02s.01-.01,.02-.02Z"/>
    <polygon class="cls-1" points="23.46 11.96 23.46 11.95 23.46 11.96 23.46 11.96"/>
    <path class="cls-1" d="M23.61,11.65v.02h-.02s.01-.01,.02-.02Z"/>
    <path class="cls-1" d="M24.85,3.87s-.59,1.9-4.34,1.8h0c-.59-.29-1.19-.58-1.78-.87-.03-.02-.06-.03-.1-.05-1.35-.66-2.72-1.33-4.1-2-.7,1.44-1.39,2.85-2.09,4.27-.33-.2-.66-.52-.97-.91l.65-1.28s.01,0,.02,.02c.07-.12,.12-.2,.16-.29,.45-.92,.9-1.84,1.35-2.76,.07-.15,.15-.31,.23-.46,.06-.12,.13-.2,.27-.2,.69,0,1.38,.02,2.06,.02,.14,0,.24,.06,.27,.21,.08,.48,.36,.8,.82,.96,.05,.02,.09,.05,.13,.07,.06,.02,.13,.03,.23,.05-.03-.12-.04-.21-.06-.28-.22-.63-.44-1.27-.65-1.9-.02-.07-.03-.15-.05-.25,.35,0,.66,.01,.97,0,.16,0,.25,.06,.29,.21,.09,.26,.17,.53,.28,.78,.05,.1,.14,.22,.24,.27,.12,.06,.24,.13,.36,.19h0c.28,.14,.56,.27,.84,.41,.06,.03,.14,.05,.25,.09h0s4.72,1.92,4.72,1.92Z"/>
  </g>
</svg>