<?xml version="1.0" encoding="UTF-8"?>
<svg id="Capa_2" data-name="Capa 2" xmlns="http://www.w3.org/2000/svg" viewBox="0 0 44.6 36.61">
  <defs>
    <style>
      .cls-1 {
        fill: #fff;
      }

      .cls-2 {
        fill: #148e62;
      }

      .cls-3 {
        fill: #616160;
      }

      .cls-4 {
        fill: none;
      }

      .cls-5 {
        fill: #f0af30;
      }
    </style>
  </defs>
  <g id="Capa_1-2" data-name="Capa 1">
    <path class="cls-1" d="M44.26,6.59c.11,.06,.19,.14,.25,.25,.06,.11,.09,.23,.09,.36s-.03,.25-.09,.36c-.06,.11-.14,.19-.25,.25s-.23,.09-.36,.09-.26-.03-.36-.09-.19-.14-.25-.25c-.06-.11-.09-.23-.09-.36s.03-.26,.09-.36c.06-.11,.14-.19,.25-.25s.23-.09,.36-.09,.25,.03,.36,.09Zm.03,1.01c.1-.1,.15-.23,.15-.4s-.05-.3-.15-.4-.23-.15-.39-.15-.29,.05-.39,.15-.14,.23-.14,.4,.05,.3,.14,.4,.23,.15,.39,.15,.29-.05,.39-.15Zm-.12-.4s-.06,.06-.1,.08l.18,.28h-.26l-.15-.25h-.02v.25h-.21v-.72h.34c.08,0,.14,.02,.19,.07,.05,.04,.07,.1,.07,.17,0,.05-.01,.09-.04,.13Zm-.35-.07h.11s.03,0,.04-.02c.01-.01,.02-.02,.02-.04s0-.03-.02-.04c-.01,0-.03-.01-.04-.01h-.11v.11Z"/>
    <line class="cls-4" x1="19.4" y1="13.62" x2="18.98" y2="14.39"/>
    <polyline class="cls-4" points="20.55 11.46 23.29 6.38 23.34 6.28"/>
    <line class="cls-4" x1="37.9" y1="8.6" x2="36.5" y2="7.95"/>
    <polyline class="cls-4" points="34.31 6.92 32.47 6.06 32.45 6.05"/>
    <path class="cls-1" d="M39.92,22.3h0s0,.01,0,.01c0,0,0-.01,0-.01Z"/>
    <path class="cls-1" d="M40.17,21.8l-.02,.03h-.02s.02-.02,.04-.03Z"/>
    <path class="cls-3" d="M39.91,22.32s0-.01,0-.01h0s0,.01,0,.01Z"/>
    <path class="cls-3" d="M40.17,21.8l-.02,.03h-.02s.02-.02,.04-.03Z"/>
    <path class="cls-1" d="M37.56,26.65c-.59,.36-1.2,.67-1.82,.93-3.07,4.76-8.43,7.92-14.51,7.92-3.83,0-7.36-1.25-10.23-3.36l-1.44,.29c3.28,2.71,7.36,4.18,11.67,4.18,4.9,0,9.5-1.9,12.97-5.36,1.38-1.37,2.51-2.93,3.37-4.61h-.01ZM26.91,.89c-1.81-.59-3.72-.89-5.68-.89-4.9,0-9.51,1.9-12.97,5.36-2.28,2.28-3.89,5.05-4.72,8.07,.28-.09,.58-.16,.88-.22,.12-.02,.24-.04,.36-.05C6.98,6.18,13.52,1.11,21.23,1.11c2.08,0,4.08,.37,5.92,1.05l-.25-1.26Z"/>
    <g>
      <path class="cls-1" d="M4.77,29.96c.12,.07,.19,.18,.21,.32,0,.03,0,.07,.01,.11,0,.13-.04,.25-.11,.37-.07,.12-.18,.21-.32,.28l.46,.71-.44,.08-.42-.69-.18,.03v.76s-.38,.07-.38,.07v-1.96s.71-.13,.71-.13c.19-.03,.35-.02,.47,.05Zm-.18,.44c-.01-.07-.04-.12-.09-.15-.05-.03-.12-.04-.21-.02l-.32,.06v.59s.32-.06,.32-.06c.1-.02,.18-.06,.23-.12,.05-.06,.08-.14,.08-.23,0-.03,0-.06,0-.07Z"/>
      <path class="cls-1" d="M6.27,31.2h-.04s0-.18,0-.18v-.34s.64-.11,.64-.11v-.3s-.64,.11-.64,.11v-.51s.68-.12,.68-.12h.04s0-.32,0-.32l-.25,.04-.57,.1-.28,.05v1.97s.53-.09,.53-.09l.58-.1v-.31s-.68,.12-.68,.12Z"/>
      <path class="cls-1" d="M6.27,31.2l.68-.12v.31s-.58,.1-.58,.1c-.04-.09-.08-.19-.1-.29Z"/>
      <path class="cls-1" d="M10.76,30.72l-.38,.07v-1.65s-.51,.09-.51,.09v-.31s.62-.11,.62-.11c.08,.19,.14,.4,.16,.61l.11,1.02v.28Z"/>
      <path class="cls-1" d="M9.14,30.44c-.02-.1-.06-.18-.12-.24-.06-.06-.13-.11-.21-.14-.06-.02-.13-.05-.22-.07-.02,0-.04-.01-.07-.02-.09-.02-.16-.04-.2-.06-.05-.02-.09-.04-.13-.07-.04-.03-.06-.06-.07-.11-.01-.07,0-.13,.05-.18,0,0,0,0,.01-.01,.04-.04,.11-.07,.18-.08,.08-.01,.15,0,.2,.02,.05,.03,.08,.08,.09,.14v.03s.41-.07,.41-.07c-.01-.11-.05-.2-.12-.27-.06-.07-.15-.12-.26-.15-.11-.03-.23-.03-.36,0-.14,.02-.25,.07-.35,.14,0,0,0,0-.01,0-.09,.06-.16,.14-.2,.24-.05,.1-.06,.21-.04,.32,.02,.1,.06,.19,.12,.24,.06,.06,.13,.1,.2,.13,.07,.03,.17,.05,.29,.08,.13,.03,.22,.06,.28,.09,.06,.03,.1,.08,.11,.15,.01,.07,0,.13-.05,.18-.05,.05-.12,.08-.21,.1-.09,.02-.17,0-.22-.04-.06-.04-.09-.1-.09-.18l-.39,.07s0,.06,0,.07c0,0,0,0,0,0,.03,.15,.11,.26,.25,.33,.03,.02,.07,.03,.1,.04,.12,.03,.24,.03,.39,0,.14-.03,.27-.07,.36-.14,.1-.07,.17-.15,.22-.24,.03-.06,.04-.12,.04-.18,0-.04,0-.08,0-.13Z"/>
      <path class="cls-1" d="M11.27,28.66l-.78,.14-.62,.11v.31s.51-.09,.51-.09v1.65s.39-.07,.39-.07v-.28s0-1.37,0-1.37l.5-.09v-.31Z"/>
      <path class="cls-1" d="M13.22,29.9l-.76,.14-.12,.4-.4,.07,.68-2.09,.44-.08,.69,1.84-.4,.07-.12-.35Zm-.1-.29l-.28-.78-.28,.88,.56-.1Z"/>
      <path class="cls-1" d="M14.89,28.02v1.21c0,.05,0,.09,.01,.11,.02,.09,.06,.16,.12,.2,.07,.04,.15,.05,.25,.03,.12-.02,.22-.07,.29-.16s.1-.19,.1-.32v-1.21s.38-.07,.38-.07v1.21c0,.17-.03,.32-.1,.44-.07,.13-.16,.23-.28,.31-.12,.08-.25,.13-.39,.16-.19,.03-.36,.01-.49-.07s-.22-.21-.26-.4c0-.05-.01-.11-.01-.17v-1.21s.38-.07,.38-.07Z"/>
      <path class="cls-1" d="M18.1,27.58c.12,.07,.19,.18,.21,.32,0,.03,0,.07,.01,.11,0,.13-.04,.25-.11,.37-.07,.12-.18,.21-.32,.28l.46,.71-.44,.08-.42-.69-.18,.03v.76s-.38,.07-.38,.07v-1.96s.71-.13,.71-.13c.19-.03,.35-.02,.47,.05Zm-.18,.44c-.01-.07-.04-.12-.09-.15-.05-.03-.12-.04-.21-.02l-.32,.06v.59s.32-.06,.32-.06c.1-.02,.18-.06,.23-.12,.05-.06,.08-.14,.08-.23,0-.03,0-.06,0-.07Z"/>
      <path class="cls-1" d="M20.34,28.64l-.76,.14-.12,.4-.4,.07,.68-2.09,.44-.08,.69,1.84-.4,.07-.12-.35Zm-.1-.29l-.28-.78-.28,.88,.56-.1Z"/>
      <path class="cls-1" d="M23.26,28.49l-.38,.07-.86-1.19v1.35s-.38,.07-.38,.07v-1.97s.38-.07,.38-.07l.87,1.2v-1.35s.38-.07,.38-.07v1.97Z"/>
      <path class="cls-1" d="M25.43,26.14v.31s-.51,.09-.51,.09v1.65s-.38,.07-.38,.07v-1.65s-.51,.09-.51,.09v-.31s1.4-.25,1.4-.25Z"/>
      <path class="cls-1" d="M26.6,26.24v.51s.64-.11,.64-.11v.3s-.64,.11-.64,.11v.53s.72-.13,.72-.13v.31s-1.11,.2-1.11,.2v-1.97s1.1-.2,1.1-.2v.31s-.72,.13-.72,.13Z"/>
    </g>
    <g>
      <path class="cls-1" d="M9.57,16.91l-.22,.04,.13-.71s.01,.07,.02,.11c.04,.2,.06,.39,.07,.57Z"/>
      <path class="cls-1" d="M8.68,24.25c-.06,.13-.13,.25-.2,.37h0c-.55,.9-1.4,1.61-2.37,1.93-.16,.05-.33,.1-.5,.13-.25,.04-.47,.06-.68,.04-1.17-.09-1.64-1.1-1.89-2.52-.24-1.34-.26-2.88-.08-4.29,.18-1.43,.57-2.73,1.15-3.55,.33-.47,.73-.78,1.18-.86,.68-.12,1.08,.33,1.18,.9,.11,.62-.14,1.44-.52,1.72,.4,.32,.79,.32,1.07,.27,.88-.16,1.09-.91,.93-1.78-.31-1.72-1.7-2.13-3.24-1.85-.12,.02-.24,.05-.36,.08-.45,.11-.85,.27-1.21,.48C-.05,17.11-.29,22.15,.19,24.89c.53,2.96,2.06,4.01,4.33,3.61,.42-.08,.84-.19,1.23-.36,.35-.14,.68-.31,.99-.52,.81-.53,1.49-1.25,1.94-2.14,.18-.35,.32-.73,.42-1.12l-.43-.1Z"/>
      <path class="cls-1" d="M17.76,22.65c-.05,.46-.17,.88-.36,1.19-.18,.31-.44,.52-.78,.58-.49,.09-.74-.03-.82-.52-.03-.16-.04-.33-.03-.57l.22-6.12-2.51,.45-.03,.85c-.26-.78-1.01-.75-1.58-.65-2.2,.39-3.21,2.62-3.43,4.7-.08,.73-.06,1.44,.04,2.05h0s.01,.08,.02,.11c.05,.28,.11,.52,.19,.75,.24,.67,.6,1.11,1.02,1.37,.48,.3,1.04,.36,1.59,.26,1.23-.22,1.92-1.18,2.29-2.07,.31,.96,1.03,1.37,1.97,1.21,.64-.11,1.56-.41,2.23-1.57,.19-.33,.36-.74,.5-1.23,.01-.05,.03-.1,.04-.15,.06-.24,.12-.5,.16-.77l-.73,.13Zm-4.47,.8c-.03,1.04-.66,1.69-1.17,1.78-.31,.06-.87,.14-1.11-1.2-.03-.16-.05-.34-.07-.53h0c0-.11-.01-.22-.02-.34-.06-1.72,.42-4.09,1.66-4.31,.54-.1,.77,.33,.83,.53l-.13,4.06Z"/>
      <path class="cls-1" d="M25.11,21.34c-.72,1.2-1.55,2.03-2.27,2.64-.59,.89-1.65,1.37-2.54,1.52-1.77,.31-2.74-.71-2.93-1.77-.14-.8,.19-1.46,.63-1.77,.66-1.89,.98-3.72,1.22-5.51l2.5-.8c1.01,4.45,1.3,5.1,1.5,6.24,.04,.24,.06,.45,.05,.67,.42-.36,.81-.75,1.09-1.09l.73-.13Zm-6.36,2.01c-.17,.03-.39,.02-.51-.14,.15,.81,.51,1.16,1.27,1.02,.76-.14,1.44-.67,1.22-1.88-.16-.9-.41-1.41-1.06-4.05-.15,1.19-.45,2.31-.82,3.53,.24,.06,.45,.24,.51,.54,.07,.42-.16,.9-.61,.98Z"/>
      <path class="cls-1" d="M27.07,15.26l-.2,6.11c-.01,.23,0,.41,.03,.57,.09,.49,.34,.6,.82,.51,.68-.12,1.18-.89,1.29-1.8l.73-.13c-.48,3-2.13,3.69-3.07,3.85-1.04,.19-1.97-.29-2.22-1.75-.06-.33-.07-.72-.06-1.15l.19-5.77,2.5-.44Z"/>
      <path class="cls-1" d="M33.64,19.82c-.02,.2-.07,.4-.13,.58-.21,.64-.63,1.13-1.16,1.22-.06,.01-.12,.02-.18,.02-.18,.01-.33-.01-.43-.1-.05-.04-.09-.09-.13-.16-.04-.07-.07-.17-.09-.28-.03-.16-.04-.33-.03-.57h0s.08-2.39,.08-2.39l.05-1.4,.05-1.6,.49-.09h0l.52-.09h.03s0-.06,0-.06v-.66s.01,0,.01,0l-.14,.03h-.03s-.88,.16-.88,.16l.1-2.84-2.5,.8v.4s-.01,0-.01,0l-.03,.86-.05,1.22-.11,.02-.46,.08v.72s.44-.08,.44-.08l.12-.02-.1,3h0s-.07,2.05-.07,2.05h0c-.01,.43,0,.82,.06,1.15,.03,.19,.08,.36,.13,.52h0c.19,.54,.49,.89,.87,1.08,.22,.12,.47,.18,.73,.19,.16,0,.32,0,.49-.04,.23-.04,.5-.11,.78-.24,.14-.06,.28-.14,.42-.23,0,0,0,0,.01,0,.48-.31,.97-.82,1.34-1.62,.22-.47,.4-1.05,.51-1.75l-.73,.13Z"/>
      <path class="cls-1" d="M32.73,14.25v.66s-.01,.06-.01,.06h0s-.03,0-.03,0l-.52,.09h0s0,0,0,0c.12-.27,.25-.53,.4-.78h.03s.14-.03,.14-.03Z"/>
      <path class="cls-1" d="M32.72,14.91v.06s0,0,0,0h-.03s.02-.04,.03-.06Z"/>
      <path class="cls-1" d="M30.81,23.58c-.26,0-.51-.07-.73-.19h.09c.71-.01,1.34-.04,1.91-.09-.29,.13-.56,.2-.78,.24-.17,.03-.33,.04-.49,.04Z"/>
      <path class="cls-1" d="M38.84,13.16l-.37,.07-.03,.84c-.13-.39-.39-.58-.68-.65-.29-.08-.62-.04-.9,0-.32,.06-.63,.16-.9,.29-.35,.17-.66,.39-.94,.66-.1,.1-.2,.2-.29,.32-.5,.6-.84,1.35-1.06,2.14-.02,.06-.04,.13-.05,.19,0,0,0,0,0,0-.28,1.13-.3,2.32-.14,3.25,0,.04,.02,.08,.02,.12,.06-.18,.1-.38,.13-.58l.73-.13c-.11,.7-.29,1.28-.51,1.75,.29,.57,.69,.92,1.13,1.1,.1,.04,.21,.08,.32,.1,.06,.01,.11,.03,.17,.03,.16,.03,.33,.03,.5,.02,.1,0,.2-.02,.3-.04,.3-.05,.58-.15,.82-.29,.47-.26,.83-.65,1.1-1.07,0,0,0,0,0-.01,.02-.04,.05-.07,.07-.11,.03-.05,.06-.11,.09-.16,.08-.14,.15-.29,.21-.43,0,0,.11,.27,.11,.67,0,.07,0,.13,0,.21,0,.01,0,.03,0,.04,0,.02,0,.04,0,.05,0,.02,0,.04,0,.06,0,.03-.01,.07-.02,.1,0,.02,0,.04-.01,.06,0,.01,0,.03-.01,.04,0,.02-.01,.04-.02,.07-.01,.05-.03,.09-.05,.14-.11,.32-.32,.65-.65,.99-.02,.02-.04,.03-.05,.05,0,0-.01,.01-.02,.02-.02,.02-.04,.03-.05,.05h0c-1.04,.93-3.2,1.76-7.58,1.83,0,0-2.1,.66-1.03,2.52,0,0,4.28-.16,7.56-2.18,.07-.05,.15-.1,.24-.15,0,0,.01,0,.02-.01,.03-.02,.06-.04,.08-.06,.27-.17,.53-.36,.79-.56,.02-.01,.04-.03,.05-.04,.32-.25,.6-.51,.86-.78h0c1.56-1.66,1.92-3.53,2-4.51,0-.09,0-.19,0-.3v-.37s.01,0,.01,0l.2-5.75-2.14,.38Zm-1.69,7.61s-.02,0-.03,0c-.22,.04-.57,.09-.84-.37-.1-.17-.19-.42-.26-.76h0s0-.05-.01-.07c-.05-.31-.08-.67-.09-1.07h0c0-.37,.02-.76,.06-1.14,.08-.69,.24-1.37,.49-1.91,.26-.57,.63-.97,1.11-1.06,.18-.03,.33,0,.44,.05,.23,.11,.35,.34,.38,.48l-.05,1.49h0s-.09,2.57-.09,2.57c-.03,1.02-.63,1.66-1.13,1.77Z"/>
    </g>
    <g>
      <path class="cls-1" d="M15.12,8.7l-1.37,.24-1.2,5.39-.67-5.05c-.24-.04-.49-.05-.77,0-1.43,.25-2.77,1.85-2.55,3.08,.11,.62,.56,.78,1.17,.68-.04-.08-.17-.19-.25-.63-.19-1.09,.24-1.93,1.13-2.41l-1.12,6.26-.13,.71,.22-.04,.55-.1,.83-4.57,.57,4.33,1.3-.23,1.03-4.59,.15,4.38,1.37-.24-.25-7.18Z"/>
      <path class="cls-1" d="M17.77,9.24c-.03-.14-.09-.26-.17-.36-.17-.2-.45-.31-.73-.26-.42,.07-.69,.48-.62,.89,.07,.42,.47,.69,.89,.62,.26-.05,.47-.22,.57-.44,.06-.13,.08-.29,.05-.45Zm.55,5.16c-.05,.04-.12,.08-.3,.11-.27,.05-.4-.02-.45-.28-.01-.09-.02-.18-.02-.31l.11-3.36-1.37,.24-.1,3.17c0,.24,0,.45,.03,.63,.14,.8,.65,1.06,1.22,.96,.51-.09,.94-.48,.87-1.17Z"/>
    </g>
    <path class="cls-5" d="M25.78,14.5c-.36,.05-.73,.09-1.09,.14-.25,.04-.37-.07-.4-.32-.08-.71-.17-1.41-.26-2.12-.03-.25,.05-.38,.3-.41,.73-.09,1.46-.18,2.19-.28,.25-.03,.37,.07,.4,.32,.09,.71,.18,1.41,.27,2.12,.03,.25-.06,.38-.31,.4-.37,.04-.73,.09-1.09,.14,0,0,0,0,0,0Z"/>
    <path class="cls-2" d="M42.28,8.56s-.63,2.03-4.07,2.79c-.35,.08-.72,.14-1.13,.19-.64,.07-1.37,.11-2.17,.08h0c-1.01-.49-2.02-.98-3.04-1.48-.05-.03-.11-.05-.16-.08-2.3-1.12-4.62-2.26-6.98-3.4-1.2,2.45-2.37,4.86-3.55,7.27-.56-.35-1.13-.88-1.64-1.55l1.1-2.19s.02,.02,.03,.03c.12-.21,.2-.34,.27-.49,.77-1.57,1.53-3.13,2.3-4.7,.13-.26,.26-.52,.38-.79,.1-.2,.21-.34,.45-.34,1.17,.01,2.34,.03,3.51,.04,.25,0,.42,.1,.46,.35,.14,.82,.61,1.35,1.39,1.63,.08,.03,.14,.09,.23,.12,.1,.03,.21,.04,.39,.08-.05-.21-.06-.35-.11-.48-.3-.89-.61-1.78-.91-2.67-.06-.19-.13-.38-.19-.57-.04-.12-.05-.25-.09-.42,.29,0,.56,0,.83,.01,.28,0,.55,0,.82,0,.27,0,.42,.11,.5,.35,.05,.16,.11,.33,.16,.49,.09,.28,.19,.56,.31,.84,.08,.18,.23,.37,.4,.46,.2,.11,.41,.21,.62,.32h.01c.47,.24,.96,.47,1.43,.7,.07,.03,.15,.06,.24,.09h0c.05,.02,.12,.04,.19,.06v-.02l8.03,3.3Z"/>
    <line class="cls-1" x1="12.7" y1="31.81" x2="11" y2="32.15"/>
  </g>
</svg>