<?xml version="1.0" encoding="UTF-8"?>
<svg id="Capa_2" data-name="Capa 2" xmlns="http://www.w3.org/2000/svg" xmlns:xlink="http://www.w3.org/1999/xlink" viewBox="0 0 47.26 47.26">
  <defs>
    <style>
      .cls-1, .cls-2 {
        fill: #fff;
      }

      .cls-2 {
        font-family: Poppins-SemiBoldItalic, Poppins;
        font-size: 3.2px;
        letter-spacing: .19em;
      }

      .cls-3 {
        clip-path: url(#clippath);
      }

      .cls-4 {
        fill: none;
      }
    </style>
    <clipPath id="clippath">
      <rect class="cls-4" width="47.26" height="47.26"/>
    </clipPath>
  </defs>
  <g id="Capa_1-2" data-name="Capa 1">
    <g class="cls-3">
      <g>
        <text class="cls-2" transform="translate(14.63 42.37) rotate(-10.1)"><tspan x="0" y="0">RESTAURANTE</tspan></text>
        <g>
          <path class="cls-1" d="M20.9,33.57c-.65,2.6-2.84,4.35-5.31,4.79-2.62,.47-4.39-.75-5-4.17-.65-3.63-.18-10.74,5.21-11.7,1.78-.32,3.4,.16,3.75,2.14,.18,1-.06,1.87-1.08,2.05-.32,.06-.78,.06-1.23-.32,.44-.33,.73-1.27,.6-1.99-.12-.66-.58-1.18-1.36-1.04-2.32,.41-3.31,6.02-2.59,10.05,.34,1.92,1.03,3.21,2.97,2.86,1.52-.27,2.85-1.38,3.55-2.8l.5,.12Z"/>
          <path class="cls-1" d="M28.86,25.33l-.25,7.07c-.01,.27,0,.48,.03,.66,.1,.56,.39,.69,.95,.59,.78-.14,1.19-1,1.31-2.05l.84-.15c-.56,3.47-2.31,4.11-3.39,4.3-1.08,.19-1.91-.28-2.27-1.39-.44,1.03-1.23,2.14-2.65,2.39-1.36,.24-2.81-.37-3.24-2.75-.48-2.7,.41-7.31,3.9-7.93,.66-.12,1.52-.15,1.83,.75l.03-.98,2.9-.52Zm-5.75,7.86c.27,1.54,.92,1.45,1.28,1.38,.58-.1,1.32-.85,1.35-2.06l.16-4.7c-.06-.24-.34-.73-.96-.62-1.7,.3-2.16,4.11-1.83,5.99Z"/>
          <path class="cls-1" d="M39.4,30.09c-.83,1.39-1.79,2.34-2.62,3.05-.68,1.03-1.91,1.58-2.93,1.76-2.04,.36-3.16-.82-3.38-2.04-.16-.92,.22-1.69,.73-2.05,.77-2.18,1.14-4.29,1.41-6.37l2.89-.93c1.16,5.15,1.5,5.89,1.74,7.21,.05,.28,.07,.52,.06,.78,.48-.42,.94-.87,1.26-1.26l.84-.15Zm-7.36,2.32c-.2,.04-.45,.02-.59-.16,.17,.94,.59,1.34,1.47,1.18,.88-.16,1.66-.77,1.41-2.17-.19-1.04-.48-1.63-1.23-4.68-.17,1.37-.52,2.68-.95,4.08,.28,.07,.53,.28,.59,.62,.09,.48-.19,1.05-.71,1.14Z"/>
          <path class="cls-1" d="M41.66,23.05l-.23,7.07c-.01,.27,0,.47,.03,.66,.1,.56,.39,.69,.95,.59,.78-.14,1.37-1.03,1.49-2.08l.84-.15c-.56,3.47-2.46,4.26-3.55,4.46-1.2,.21-2.27-.34-2.57-2.02-.07-.38-.09-.83-.07-1.33l.22-6.67,2.88-.51Z"/>
          <path class="cls-1" d="M49.25,28.33c-.03,.23-.08,.46-.15,.67-.24,.74-.73,1.31-1.34,1.42-.31,.05-.54,.04-.7-.09-.06-.05-.11-.11-.15-.19-.05-.09-.08-.19-.1-.32-.03-.18-.05-.39-.03-.66h0s.09-2.77,.09-2.77l.06-1.62,.06-1.85,.57-.1,.63-.11,.02-.83h0s-.19,.03-.19,.03l-1.01,.18,.12-3.29-2.89,.93-.02,.46h0s-.04,1-.04,1l-.05,1.41-.13,.02-.53,.1-.02,.83,.52-.09,.14-.02-.12,3.47h0s-.08,2.37-.08,2.37c-.02,.5,0,.95,.07,1.33,.04,.22,.09,.42,.16,.6h0c.35,.99,1.04,1.44,1.85,1.46,.18,0,.37,0,.56-.04,.39-.07,.9-.22,1.41-.55,.56-.36,1.12-.95,1.55-1.88,.25-.55,.46-1.21,.59-2.02l-.84,.15Z"/>
          <path class="cls-1" d="M54.84,20.7l-.03,.98c-.31-.9-1.17-.87-1.83-.75-.38,.07-.72,.18-1.04,.33-.41,.19-.77,.45-1.08,.76-.12,.12-.23,.24-.34,.37-.58,.69-.97,1.56-1.22,2.48-.02,.07-.04,.15-.06,.22,0,0,0,0,0,.01-.32,1.3-.35,2.68-.16,3.75,0,.05,.02,.1,.03,.14,.07-.21,.12-.44,.15-.67l.84-.15c-.13,.81-.34,1.48-.59,2.02,.34,.66,.8,1.06,1.31,1.27,.12,.05,.24,.09,.37,.12,.06,.02,.13,.03,.2,.04,.19,.03,.39,.03,.58,.02,.12,0,.23-.02,.35-.04,.35-.06,.67-.18,.94-.33,.67-.37,1.14-.95,1.47-1.56,.09-.17,.17-.33,.24-.5,0,0,1.97,4.89-9.7,5.07,0,0-2.43,.76-1.19,2.91,0,0,4.95-.19,8.74-2.53,.09-.06,.18-.12,.28-.17,0,0,.01,0,.02-.02,.34-.22,.67-.46,1.01-.71,.02-.02,.04-.03,.06-.05,2.66-2.09,3.2-4.81,3.3-6.12,0-.1,0-.22,0-.35v-.42s.01,0,.01,0l.23-6.64-2.9,.52Zm-.22,6.67c-.03,1.18-.73,1.92-1.31,2.05-.01,0-.03,0-.04,.01-.26,.05-.66,.11-.97-.43-.12-.2-.22-.48-.3-.88h0s-.01-.05-.02-.08c-.06-.35-.1-.78-.1-1.24h0c0-.43,.02-.87,.07-1.32,.09-.8,.28-1.59,.57-2.21,.31-.65,.73-1.12,1.28-1.22,.62-.11,.89,.38,.96,.62l-.16,4.7Z"/>
        </g>
        <g>
          <path class="cls-1" d="M26.55,24.05l-.18-5.06-1.19,5.31-1.51,.27-.66-5-.95,5.29-.88,.16,1.45-8.05c-1.02,.56-1.53,1.53-1.31,2.79,.09,.52,.24,.64,.29,.73-.7,.13-1.23-.07-1.35-.78-.25-1.42,1.3-3.26,2.95-3.56,.32-.06,.6-.05,.89,0l.78,5.84,1.39-6.23,1.58-.28,.29,8.3-1.58,.28Z"/>
          <path class="cls-1" d="M30.91,16.1c-.03-.16-.1-.3-.2-.42-.2-.23-.52-.36-.84-.3-.48,.08-.8,.55-.71,1.03,.09,.48,.54,.8,1.02,.71,.3-.05,.54-.25,.66-.51,.07-.16,.09-.33,.06-.51Zm.63,5.97c-.06,.05-.14,.09-.34,.13-.31,.05-.47-.02-.52-.33-.02-.1-.03-.21-.02-.36l.13-3.88-1.58,.28-.12,3.66c0,.27,0,.52,.04,.73,.16,.93,.75,1.23,1.41,1.11,.59-.11,1.09-.56,1.01-1.35Z"/>
        </g>
        <path class="cls-1" d="M40.17,22.18c-.42,.05-.84,.1-1.26,.16-.29,.04-.43-.08-.46-.37-.1-.82-.2-1.64-.31-2.45-.04-.29,.05-.44,.35-.47,.84-.1,1.69-.21,2.53-.32,.29-.04,.43,.08,.47,.37,.1,.82,.2,1.63,.31,2.45,.04,.29-.07,.44-.36,.47-.42,.04-.84,.11-1.26,.16,0,0,0,0,0,0Z"/>
        <polyline class="cls-1" points="34.13 18.67 37.29 12.79 37.35 12.68"/>
        <path class="cls-1" d="M59.24,15.31s-1.16,3.73-8.53,3.53h0c-1.17-.57-2.34-1.14-3.51-1.71-.06-.03-.13-.06-.19-.09-2.66-1.3-5.35-2.61-8.07-3.93-1.38,2.83-2.74,5.61-4.1,8.4-.64-.4-1.3-1.02-1.9-1.8l1.27-2.53s.02,.02,.03,.03c.14-.24,.23-.4,.31-.56,.89-1.81,1.77-3.62,2.66-5.44,.15-.3,.3-.6,.44-.91,.11-.23,.25-.39,.52-.39,1.35,.02,2.71,.03,4.06,.05,.28,0,.48,.11,.53,.4,.16,.95,.71,1.57,1.61,1.88,.09,.03,.17,.11,.26,.14,.12,.04,.25,.05,.46,.09-.05-.24-.07-.4-.13-.56-.42-1.25-.86-2.49-1.28-3.74-.05-.14-.06-.29-.1-.48,.68,0,1.29,.03,1.91,.02,.31,0,.48,.13,.58,.41,.17,.51,.33,1.04,.54,1.53,.09,.21,.27,.43,.46,.53,.24,.13,.48,.25,.72,.37h.02c.55,.28,1.1,.54,1.66,.8,.13,.06,.27,.09,.5,.17v-.03l9.28,3.81Z"/>
      </g>
    </g>
  </g>
</svg>