<?xml version="1.0" encoding="UTF-8"?>
<svg id="Capa_2" data-name="Capa 2" xmlns="http://www.w3.org/2000/svg" xmlns:xlink="http://www.w3.org/1999/xlink" viewBox="0 0 44.65 47.12">
  <defs>
    <style>
      .cls-1 {
        fill: #fff;
      }

      .cls-2 {
        fill: url(#Motivo_nuevo);
      }

      .cls-3 {
        fill: #616160;
      }

      .cls-4 {
        fill: none;
      }
    </style>
    <pattern id="Motivo_nuevo" data-name="Motivo nuevo" x="0" y="0" width="14.5" height="21.8" patternTransform="translate(-23718.94 -1246.62)" patternUnits="userSpaceOnUse" viewBox="0 0 14.5 21.8">
      <g>
        <rect class="cls-4" y="0" width="14.5" height="21.8"/>
        <g>
          <path class="cls-1" d="M11.07,24.92s-.06,.09-.1,.14c-.26,.36-.67,.61-1.14,.69-.1,.02-.19,.03-.28,.03-.42,0-.95-.2-1.13-1.17-.08-.44-.1-1.13,.09-1.74,.22-.73,.67-1.18,1.31-1.29,.09-.02,.18-.03,.26-.03,.46,0,.76,.25,.83,.68,.07,.36-.08,.63-.39,.68-.03,0-.06,0-.1,0-.12,0-.23-.04-.33-.12-.04-.03-.06-.08-.06-.13,0-.05,.02-.09,.06-.12,.05-.03,.11-.2,.08-.33-.01-.06-.04-.13-.12-.13,0,0-.02,0-.03,0-.19,.03-.36,.32-.47,.77-.1,.46-.12,1.03-.03,1.49,.08,.48,.23,.58,.42,.58,.04,0,.08,0,.12,0,.26-.05,.51-.22,.67-.46,.03-.04,.06-.09,.08-.14,.02-.03,.04-.05,.06-.07,0,.08,0,.16,.03,.24h0c-.04,.07-.08,.12-.13,.17-.18,.21-.42,.36-.68,.41-.47,.08-.64-.23-.73-.7-.17-.98,.07-2.35,.63-2.45,.19-.03,.31,.09,.33,.25,.03,.18-.04,.41-.14,.48,.11,.09,.22,.09,.3,.08,.25-.04,.31-.26,.26-.5-.08-.48-.48-.6-.92-.53-1.31,.24-1.43,1.97-1.27,2.86,.15,.83,.58,1.13,1.22,1.02,.43-.08,.83-.32,1.08-.68,.04-.05,.07-.11,.1-.17,.02,.07,.05,.13,.08,.18Z"/>
          <g>
            <path class="cls-1" d="M12.95,21.93c0,.07-.05,.13-.12,.14l-.34,.06s-.02,0-.03,0c-.03,0-.06-.01-.09-.03-.03-.02-.05-.06-.05-.1h0s-.02,.08-.02,.08c-.01,.05-.06,.1-.11,.11l-.32,.06s-.02,0-.03,0c-.03,0-.06-.01-.08-.03-.03-.02-.05-.06-.06-.09l-.03-.2-.05,.27c-.01,.06-.06,.1-.11,.11l-.19,.03s-.02,0-.02,0c-.04,0-.07-.01-.1-.04-.03-.03-.05-.08-.04-.12l.14-.81c-.18,0-.31-.11-.34-.29-.07-.38,.31-.85,.75-.93,.04,0,.08-.01,.12-.01,.04,0,.08,0,.12,.01,.06,.01,.11,.06,.11,.12l.06,.49,.13-.58c.01-.05,.06-.09,.11-.11l.34-.06s.01,0,.02,0c.03,0,.06,.01,.09,.03,.03,.03,.05,.06,.05,.11v.15s0,.05,0,.08h0s.01,.28,.01,.28l.04,1.16v.12Zm-.14,0l-.06-1.79-.34,.06-.3,1.34-.17-1.26c-.06-.01-.12-.01-.19,0-.36,.06-.69,.46-.64,.77,.03,.15,.14,.19,.29,.17-.01-.02-.04-.04-.06-.16-.05-.27,.06-.48,.28-.6l-.31,1.74,.19-.03,.21-1.14,.14,1.08,.32-.06,.26-1.14,.04,1.09,.34-.06Z"/>
            <path class="cls-1" d="M13.68,21.55c.02,.22-.11,.4-.33,.44-.03,0-.05,0-.08,0-.14,0-.26-.07-.32-.19h0s-.05-.11-.06-.17c0-.05-.01-.11-.01-.19l.03-.79s0-.01,0-.02c0,0,0,0,0,0,0-.04,.04-.08,.08-.1-.04-.05-.08-.11-.09-.17,0-.03,0-.06,0-.08,.01-.15,.12-.27,.27-.3,.02,0,.04,0,.06,0,.1,0,.19,.04,.26,.12,.04,.04,.06,.1,.07,.16,.01,.06,0,.13-.02,.19-.01,.02-.03,.04-.04,.07,.02,.02,.04,.06,.04,.1l-.03,.82s.04-.01,.05-.01c.02,0,.04,0,.06,.01,.04,.02,.07,.06,.08,.11Zm-.65-1.2c.02,.1,.12,.17,.22,.15,.06-.01,.12-.05,.14-.11,.01-.03,.02-.07,.01-.11,0-.04-.02-.07-.04-.09-.04-.05-.11-.08-.18-.06-.1,.02-.17,.12-.15,.22Zm.51,1.22s-.03,.02-.07,.03c-.07,.01-.1,0-.11-.07,0-.02,0-.04,0-.08l.03-.84-.34,.06-.03,.79c0,.06,0,.11,0,.16,.04,.2,.16,.26,.31,.24,.13-.02,.23-.12,.22-.29Z"/>
          </g>
          <path class="cls-1" d="M20.61,19.89s-.32,.97-2.09,.97c-.05,0-.09,0-.14,0-.02,0-.04,0-.07-.02-.28-.14-.57-.28-.86-.42l-.13-.06c-.58-.28-1.15-.57-1.74-.85-.19,.38-.93,1.91-.93,1.91-.02,.04-.06,.07-.1,.08-.02,0-.03,0-.04,0-.03,0-.06,0-.08-.03-.18-.11-.36-.28-.5-.47-.04-.05-.04-.11-.02-.17l.31-.62s.02-.03,.03-.05c.02-.03,.03-.06,.04-.08l.16-.32c.17-.33,.33-.67,.49-1,0,0,.09-.19,.11-.23,.07-.15,.18-.18,.26-.18h.99c.15,.01,.25,.1,.28,.24,.02,.13,.08,.22,.17,.28-.05-.15-.25-.74-.25-.74-.01-.03-.02-.06-.03-.1v-.04s0-.09,.03-.13c.03-.03,.07-.06,.12-.06h.04c.1,0,.2,0,.29,0h.13c.15,0,.25,.07,.3,.21,.04,.12,.08,.24,.13,.36,0,.02,.03,.04,.04,.05,.06,.03,.11,.06,.17,.08,0,0,.01,0,.02,.01,.06,.03,.32,.15,.39,.19,0,0,.06,.02,.06,.02,.02,0,.03,0,.05,0l2.26,.93c.08,.03,.12,.11,.09,.19Zm-.15-.05l-2.26-.93h0c-.06-.01-.09-.02-.12-.03-.13-.07-.27-.13-.4-.19h0c-.06-.03-.12-.06-.18-.09-.05-.03-.09-.08-.11-.13-.05-.12-.09-.25-.13-.37-.02-.07-.07-.1-.14-.1-.15,0-.3,0-.47,0,0,.05,.01,.08,.03,.12,.1,.31,.21,.61,.31,.92,.02,.04,.02,.08,.03,.14-.05,0-.08-.01-.11-.02-.02,0-.04-.03-.06-.03-.22-.08-.36-.23-.39-.46-.01-.07-.06-.1-.13-.1-.33,0-.66,0-.99-.01-.07,0-.1,.04-.13,.1-.04,.07-.07,.15-.11,.22-.21,.44-.43,.88-.65,1.33-.02,.04-.04,.08-.08,.14h0s-.31,.61-.31,.61c.14,.19,.31,.34,.46,.44,.33-.68,.66-1.36,1-2.05,.66,.32,1.32,.64,1.97,.96,.02,0,.03,.01,.05,.02,.29,.14,.57,.28,.86,.42,1.8,.05,2.08-.86,2.08-.86Z"/>
          <path class="cls-4" d="M20.46,19.84s-.28,.91-2.08,.86c-.28-.14-.57-.28-.86-.42-.02,0-.03-.02-.05-.02-.65-.32-1.3-.64-1.97-.96-.34,.69-.67,1.37-1,2.05-.15-.1-.32-.25-.46-.44l.31-.62h0c.03-.05,.06-.09,.08-.13,.22-.44,.43-.88,.65-1.33,.04-.07,.07-.15,.11-.22,.03-.06,.06-.1,.13-.1,.33,0,.66,0,.99,.01,.07,0,.12,.03,.13,.1,.04,.23,.17,.38,.39,.46,.02,0,.04,.03,.06,.03,.03,0,.06,.01,.11,.02-.01-.06-.02-.1-.03-.14-.1-.31-.21-.61-.31-.92-.01-.03-.02-.07-.03-.12,.17,0,.32,0,.47,0,.08,0,.12,.03,.14,.1,.04,.13,.08,.25,.13,.37,.02,.05,.07,.1,.11,.13,.06,.03,.12,.06,.18,.09h0c.13,.07,.27,.13,.4,.2,.03,.01,.07,.02,.12,.04h0s2.26,.92,2.26,.92Zm-2.18-.6l-.52-.24-.07,.14-.07,.14,.52,.24s.05,.02,.07,.02c.06,0,.11-.03,.14-.09,.04-.08,0-.17-.08-.21Z"/>
        </g>
        <g>
          <g>
            <path class="cls-1" d="M2.23,23.22v.16c-.02,.14-.07,.26-.14,.36-.06,.08-.14,.14-.23,.15-.14,.03-.21,0-.23-.14,0-.04,0-.09,0-.16l.05-1.72-.7,.13-.05,1.47v.16c-.05,.05-.1,.11-.16,.17,0-.05,0-.11,0-.17v-.06s.05-1.57,.05-1.57c0-.06,.04-.12,.11-.14,0,0,.01,0,.02,0l.7-.13s.02,0,.03,0c.03,0,.05,0,.08,.03h0s.02,0,.02,.01c.03,.03,.06,.08,.05,.13l-.05,1.72c0,.05,0,.09,0,.13,0,.03,.01,.03,.01,.03,0-.01,.02-.01,.04-.02,.11-.02,.21-.18,.24-.37h0c.01-.08,.06-.13,.13-.14h.03Z"/>
            <path class="cls-1" d="M3.49,23.31c-.02,.05-.04,.1-.07,.14-.06,.11-.15,.19-.26,.2-.08,.02-.13,0-.17-.02-.01-.01-.03-.03-.03-.05-.01-.02-.02-.05-.03-.08,0-.04-.01-.09,0-.16h0s.03-.67,.03-.67v-.4s.03-.41,.03-.41v-.04l.14-.03,.15-.03v-.2s-.04,0-.04,0l-.2,.03h-.05s.03-.79,.03-.79l-.7,.23v.11s-.01,.25-.01,.25l-.02,.34h-.03s-.13,.03-.13,.03v.2s.12-.02,.12-.02h.03s-.03,.84-.03,.84v.42s-.02,.16-.02,.16c-.02,.14-.07,.26-.14,.36h0c-.02-.1-.03-.22-.02-.36v-.02l.04-1.22s-.07-.01-.1-.04c-.03-.03-.05-.08-.05-.12v-.2c0-.08,.06-.14,.13-.15h.04s.02-.58,.02-.58c0-.07,.04-.12,.11-.14l.7-.23s.03,0,.05,0c.03,0,.07,.01,.1,.03,.04,.03,.06,.08,.06,.13l-.02,.61h.06s.04-.02,.04-.02h.03s.03,0,.05,0c0,0,.02,0,.03,0,.01,0,.02,0,.03,.02h0s.02,.02,.02,.03c0,.01,.02,.03,.02,.04,0,.02,0,.03,0,.05h0s0,.21,0,.21c0,.08-.06,.14-.13,.15l-.15,.03s0,0-.02,0l-.05,1.39c0,.05,0,.09,0,.13,0,.02,0,.03,0,.03,0,0,.03-.01,.04-.02,.07-.01,.14-.09,.19-.2,0,0,0-.02,.01-.03,.01-.04,.02-.08,.03-.13,0-.05,.04-.1,.09-.13,0,.1,0,.19,.03,.27,0,.01,0,.03,0,.04Z"/>
            <path class="cls-1" d="M5.75,21.17l-.06,1.72s0,.05,0,.07c-.01,.18-.05,.44-.17,.71-.02,.05-.04,.1-.07,.15h0s0,.02,0,.02c-.03,.05-.05,.1-.08,.14-.13,.2-.3,.41-.53,.59-.1,.08-.19,.14-.27,.19-.03,.02-.05,.03-.07,.04-.95,.59-2.16,.64-2.21,.64h0c-.06,0-.11-.03-.14-.08-.11-.19-.14-.38-.07-.55,.11-.28,.42-.38,.45-.39,.01,0,.03,0,.04,0,1.07-.02,1.63-.19,1.93-.39-.06,.02-.12,.04-.18,.05-.03,0-.07,0-.1,.01-.02,0-.04,0-.06,0-.04,0-.08,0-.12,0-.02,0-.04,0-.06-.01-.03,0-.07-.02-.11-.03-.09-.04-.18-.09-.25-.17-.04-.04-.07-.08-.1-.13,.03-.05,.06-.1,.09-.16,.03,.06,.06,.1,.1,.14h0c.06,.08,.14,.13,.22,.17,.03,0,.06,.02,.09,.03,.02,0,.03,0,.05,0,.04,0,.09,0,.14,0,.03,0,.06,0,.08,0,.08-.02,.16-.04,.23-.08,.16-.09,.28-.23,.36-.38,.02-.04,.04-.08,.06-.12,0,0,.48,1.19-2.37,1.24,0,0-.59,.19-.29,.71,0,0,1.2-.04,2.13-.62,.02-.01,.04-.03,.07-.04t0,0c.08-.05,.16-.11,.25-.18,0,0,0,0,.01,0,.2-.16,.35-.33,.46-.5,.03-.04,.05-.08,.08-.12h0s.05-.1,.07-.14c.02-.05,.04-.09,.06-.14,.09-.24,.12-.45,.13-.59,0-.03,0-.05,0-.08v-.1s.06-1.62,.06-1.62l-.71,.13v.24c-.08-.22-.29-.21-.46-.18-.09,.02-.18,.04-.25,.08-.1,.05-.19,.11-.26,.19-.03,.03-.06,.06-.08,.09-.14,.17-.24,.38-.3,.6,0,.02-.01,.04-.02,.05h0c-.05,.22-.07,.44-.06,.65,0,.1,0,.19,.03,.27,0,.01,0,.03,0,.04-.02,.05-.04,.1-.07,.14-.04-.02-.08-.06-.09-.11,0,0,0-.04,0-.04h0c-.05-.31-.04-.66,.04-.98l.02-.06c.07-.26,.18-.48,.33-.66,.03-.03,.06-.07,.09-.1,.09-.09,.2-.16,.31-.22,.09-.04,.19-.07,.29-.09,.06,0,.12-.02,.17-.02,.07,0,.13,0,.18,.03,.03-.03,.06-.06,.1-.07l.71-.13s.02,0,.03,0c.04,0,.08,.01,.1,.04,.03,.03,.05,.08,.05,.13Zm-1.56,1.93h0s0-.01,0-.02c-.02-.09-.03-.19-.03-.3h0c0-.1,0-.21,.02-.32,.02-.19,.07-.39,.14-.54,.08-.16,.18-.27,.31-.3,.15-.03,.22,.09,.23,.15l-.04,1.15c0,.29-.18,.47-.32,.5,0,0,0,0,0,0-.06,.01-.16,.03-.24-.1-.03-.05-.05-.12-.07-.21Zm.13-.32c0,.1,0,.2,.02,.28,0,0,0,.03,0,.04,.02,.06,.03,.11,.05,.14,.02,.03,.03,.03,.04,.03s.02,0,.03,0c0,0,0,0,.01,0,.06-.01,.19-.13,.2-.35l.04-1.12s-.02-.02-.03-.02h-.02c-.09,.02-.16,.13-.2,.21-.06,.13-.1,.3-.13,.49-.01,.1-.02,.2-.02,.3Zm.55-1.01l-.04,1.15c0,.29-.18,.47-.32,.5,0,0,0,0,0,0-.06,.01-.16,.03-.24-.1-.03-.05-.05-.12-.07-.21h0s0-.01,0-.02c-.02-.09-.03-.19-.03-.3h0c0-.1,0-.21,.02-.32,.02-.19,.07-.39,.14-.54,.08-.16,.18-.27,.31-.3,.15-.03,.22,.09,.23,.15Zm-.16,.03s-.02-.02-.03-.02h-.02c-.09,.02-.16,.13-.2,.21-.06,.13-.1,.3-.13,.49-.01,.1-.02,.2-.02,.3s0,.2,.02,.28c0,0,0,.03,0,.04,.02,.06,.03,.11,.05,.14,.02,.03,.03,.03,.04,.03s.02,0,.03,0c0,0,0,0,.01,0,.06-.01,.19-.13,.2-.35l.04-1.12Z"/>
          </g>
          <path class="cls-1" d="M6.11,19.89s-.32,.97-2.09,.97c-.05,0-.09,0-.14,0-.02,0-.04,0-.07-.02-.28-.14-.57-.28-.86-.42l-.13-.06c-.58-.28-1.15-.57-1.74-.85-.19,.38-.93,1.91-.93,1.91-.02,.04-.06,.07-.1,.08-.02,0-.03,0-.04,0-.03,0-.06,0-.08-.03-.18-.11-.36-.28-.5-.47-.04-.05-.04-.11-.02-.17l.31-.62s.02-.03,.03-.05c.02-.03,.03-.06,.04-.08l.16-.32c.17-.33,.33-.67,.49-1,0,0,.09-.19,.11-.23,.07-.15,.18-.18,.26-.18h.99c.15,.01,.25,.1,.28,.24,.02,.13,.08,.22,.17,.28-.05-.15-.25-.74-.25-.74-.01-.03-.02-.06-.03-.1v-.04s0-.09,.03-.13c.03-.03,.07-.06,.12-.06h.04c.1,0,.2,0,.29,0h.13c.15,0,.25,.07,.3,.21,.04,.12,.08,.24,.13,.36,0,.02,.03,.04,.04,.05,.06,.03,.11,.06,.17,.08,0,0,.01,0,.02,.01,.06,.03,.32,.15,.39,.19,0,0,.06,.02,.06,.02,.02,0,.03,0,.05,0l2.26,.93c.08,.03,.12,.11,.09,.19Zm-.15-.05l-2.26-.93h0c-.06-.01-.09-.02-.12-.03-.13-.07-.27-.13-.4-.19h0c-.06-.03-.12-.06-.18-.09-.05-.03-.09-.08-.11-.13-.05-.12-.09-.25-.13-.37-.02-.07-.07-.1-.14-.1-.15,0-.3,0-.47,0,0,.05,.01,.08,.03,.12,.1,.31,.21,.61,.31,.92,.02,.04,.02,.08,.03,.14-.05,0-.08-.01-.11-.02-.02,0-.04-.03-.06-.03-.22-.08-.36-.23-.39-.46-.01-.07-.06-.1-.13-.1-.33,0-.66,0-.99-.01-.07,0-.1,.04-.13,.1-.04,.07-.07,.15-.11,.22-.21,.44-.43,.88-.65,1.33-.02,.04-.04,.08-.08,.14h0s-.31,.61-.31,.61c.14,.19,.31,.34,.46,.44,.33-.68,.66-1.36,1-2.05,.66,.32,1.32,.64,1.97,.96,.02,0,.03,.01,.05,.02,.29,.14,.57,.28,.86,.42,1.8,.05,2.08-.86,2.08-.86Z"/>
          <path class="cls-4" d="M5.96,19.84s-.28,.91-2.08,.86c-.28-.14-.57-.28-.86-.42-.02,0-.03-.02-.05-.02-.65-.32-1.3-.64-1.97-.96-.34,.69-.67,1.37-1,2.05-.15-.1-.32-.25-.46-.44l.31-.62h0c.03-.05,.06-.09,.08-.13,.22-.44,.43-.88,.65-1.33,.04-.07,.07-.15,.11-.22,.03-.06,.06-.1,.13-.1,.33,0,.66,0,.99,.01,.07,0,.12,.03,.13,.1,.04,.23,.17,.38,.39,.46,.02,0,.04,.03,.06,.03,.03,0,.06,.01,.11,.02-.01-.06-.02-.1-.03-.14-.1-.31-.21-.61-.31-.92-.01-.03-.02-.07-.03-.12,.17,0,.32,0,.47,0,.08,0,.12,.03,.14,.1,.04,.13,.08,.25,.13,.37,.02,.05,.07,.1,.11,.13,.06,.03,.12,.06,.18,.09h0c.13,.07,.27,.13,.4,.2,.03,.01,.07,.02,.12,.04h0s2.26,.92,2.26,.92Zm-2.18-.6l-.52-.24-.07,.14-.07,.14,.52,.24s.05,.02,.07,.02c.06,0,.11-.03,.14-.09,.04-.08,0-.17-.08-.21Z"/>
          <path class="cls-1" d="M1.74,21.31c.01,.07,0,.12-.04,.16-.02,.02-.03,.03-.05,.05h0s-.06,.02-.1,.03c-.06,0-.12,.02-.18,.02h-.05s-.01,0-.02,.01h-.08c-.06,.02-.11,.02-.17,.03,0,0-.03,0-.04,0-.02,0-.03,0-.05,0-.07-.02-.14-.07-.16-.19-.02-.16-.04-.33-.06-.49-.01-.07,0-.12,.04-.17,.03-.04,.08-.07,.15-.08,.17-.02,.34-.04,.51-.07,0,0,.03,0,.04,0,.09,0,.18,.05,.2,.19,.02,.16,.04,.33,.06,.49Zm-.71,.18c.08-.01,.17-.02,.26-.03,.08-.01,.17-.02,.26-.03,.06,0,.08-.03,.07-.09-.02-.16-.04-.33-.06-.49,0-.06-.04-.08-.09-.07-.17,.02-.34,.04-.51,.07-.06,0-.08,.04-.07,.09,.02,.17,.04,.33,.06,.5,0,.06,.03,.08,.09,.07Z"/>
          <path class="cls-4" d="M1.7,21.49c0,.07-.02,.11-.09,.11-.1,.01-.21,.03-.31,.04-.1,.01-.21,.03-.31,.04-.07,0-.1-.02-.11-.09-.02-.2-.05-.4-.08-.6,0-.07,.01-.11,.08-.11,.21-.03,.41-.05,.62-.08,.07,0,.1,.02,.11,.09,.02,.2,.05,.4,.08,.6Z"/>
          <path class="cls-4" d="M3.86,19.58c-.03,.06-.08,.09-.14,.09-.02,0-.05,0-.07-.02l-.52-.24,.07-.14,.07-.14,.52,.24c.08,.04,.11,.13,.08,.21Z"/>
        </g>
        <g>
          <g>
            <path class="cls-1" d="M3.82,14.02s-.06,.09-.1,.14c-.26,.36-.67,.61-1.14,.69-.1,.02-.19,.03-.28,.03-.42,0-.95-.2-1.13-1.17-.08-.44-.1-1.13,.09-1.74,.22-.73,.67-1.18,1.31-1.29,.09-.02,.18-.03,.26-.03,.46,0,.76,.25,.83,.68,.07,.36-.08,.63-.39,.68-.03,0-.06,0-.1,0-.12,0-.23-.04-.33-.12-.04-.03-.06-.08-.06-.13,0-.05,.02-.09,.06-.12,.05-.03,.11-.2,.08-.33-.01-.06-.04-.13-.12-.13,0,0-.02,0-.03,0-.19,.03-.36,.32-.47,.77-.1,.46-.12,1.03-.03,1.49,.08,.48,.23,.58,.42,.58,.04,0,.08,0,.12,0,.26-.05,.51-.22,.67-.46,.03-.04,.06-.09,.08-.14,.02-.03,.04-.05,.06-.07,0,.08,0,.16,.03,.24h0c-.04,.07-.08,.12-.13,.17-.18,.21-.42,.36-.68,.41-.47,.08-.64-.23-.73-.7-.17-.98,.07-2.35,.63-2.45,.19-.03,.31,.09,.33,.25,.03,.18-.04,.41-.14,.48,.11,.09,.22,.09,.3,.08,.25-.04,.31-.26,.26-.5-.08-.48-.48-.6-.92-.53-1.31,.24-1.43,1.97-1.27,2.86,.15,.83,.58,1.13,1.22,1.02,.43-.08,.83-.32,1.08-.68,.04-.05,.07-.11,.1-.17,.02,.07,.05,.13,.08,.18Z"/>
            <path class="cls-1" d="M5.08,12.12l-.04,1.15c0,.29-.19,.47-.33,.5-.09,.02-.25,.04-.31-.34-.08-.46,.03-1.39,.44-1.46,.15-.03,.22,.09,.24,.15Zm-.16,.03s-.02-.02-.03-.02h-.02c-.25,.05-.4,.8-.32,1.28,.03,.15,.07,.22,.09,.22,.02,0,.03,0,.04,0,.07-.01,.2-.13,.2-.35l.03-1.12Zm.16-.03l-.04,1.15c0,.29-.19,.47-.33,.5-.09,.02-.25,.04-.31-.34-.08-.46,.03-1.39,.44-1.46,.15-.03,.22,.09,.24,.15Zm-.16,.03s-.02-.02-.03-.02h-.02c-.25,.05-.4,.8-.32,1.28,.03,.15,.07,.22,.09,.22,.02,0,.03,0,.04,0,.07-.01,.2-.13,.2-.35l.03-1.12Zm.16-.03l-.04,1.15c0,.29-.19,.47-.33,.5-.09,.02-.25,.04-.31-.34-.08-.46,.03-1.39,.44-1.46,.15-.03,.22,.09,.24,.15Zm-.16,.03s-.02-.02-.03-.02h-.02c-.25,.05-.4,.8-.32,1.28,.03,.15,.07,.22,.09,.22,.02,0,.03,0,.04,0,.07-.01,.2-.13,.2-.35l.03-1.12Zm1.7,1.08c-.02,.08-.04,.16-.07,.23-.03,.1-.08,.19-.13,.28-.03,.05-.06,.09-.09,.13-.16,.19-.37,.31-.62,.36-.05,0-.09,.01-.14,.01-.18,0-.33-.07-.44-.19-.16,.23-.37,.37-.62,.42-.05,0-.11,.02-.16,.02-.14,0-.42-.04-.62-.31-.03-.04-.06-.09-.09-.15,.04-.05,.07-.11,.1-.17,.02,.07,.05,.13,.08,.18,.16,.26,.41,.33,.65,.29,.35-.06,.54-.33,.65-.59,.09,.27,.29,.39,.55,.34,.15-.03,.36-.09,.54-.31,.03-.04,.06-.08,.09-.13,.06-.09,.1-.21,.14-.35h0s-.01-.05-.02-.07c0,0,.02,.02,.03,.02,.03,.03,.08,.03,.12,.02,.02,0,.03,0,.04-.02Zm-1.54-1.1l-.04,1.15c0,.29-.19,.47-.33,.5-.09,.02-.25,.04-.31-.34-.08-.46,.03-1.39,.44-1.46,.15-.03,.22,.09,.24,.15Zm-.16,.03s-.02-.02-.03-.02h-.02c-.25,.05-.4,.8-.32,1.28,.03,.15,.07,.22,.09,.22,.02,0,.03,0,.04,0,.07-.01,.2-.13,.2-.35l.03-1.12Zm1.27,1.2s0,.02,0,.03c-.03,.06-.08,.1-.13,.13-.03,.02-.06,.03-.09,.04-.14,.03-.21,0-.23-.14,0-.04-.01-.09,0-.16l.06-1.72-.71,.13v.24c-.08-.22-.29-.21-.45-.18-.74,.13-1,1-.98,1.66,0,.08,0,.16,.03,.24h0c-.04,.07-.08,.12-.13,.17,0-.03-.02-.07-.03-.11,0-.03,0-.06-.01-.09-.1-.78,.21-1.86,1.09-2.02,.06,0,.11-.02,.17-.02,.07,0,.13,0,.18,.03,.02-.03,.06-.06,.1-.07l.71-.13s.02,0,.03,0c.04,0,.07,.01,.1,.04,.04,.03,.06,.08,.06,.13l-.06,1.72c0,.05,0,.09,0,.13,0,.03,0,.03,0,.03,0,0,.03-.01,.04-.02,.03,0,.06-.02,.08-.05,.08-.08,.11-.25,.11-.31,0-.07,.06-.12,.13-.14h.06c-.11,.09-.18,.26-.14,.46Zm-1.11-1.23l-.04,1.15c0,.29-.19,.47-.33,.5-.09,.02-.25,.04-.31-.34-.08-.46,.03-1.39,.44-1.46,.15-.03,.22,.09,.24,.15Zm-.16,.03s-.02-.02-.03-.02h-.02c-.25,.05-.4,.8-.32,1.28,.03,.15,.07,.22,.09,.22,.02,0,.03,0,.04,0,.07-.01,.2-.13,.2-.35l.03-1.12Zm.16-.03l-.04,1.15c0,.29-.19,.47-.33,.5-.09,.02-.25,.04-.31-.34-.08-.46,.03-1.39,.44-1.46,.15-.03,.22,.09,.24,.15Zm-.16,.03s-.02-.02-.03-.02h-.02c-.25,.05-.4,.8-.32,1.28,.03,.15,.07,.22,.09,.22,.02,0,.03,0,.04,0,.07-.01,.2-.13,.2-.35l.03-1.12Z"/>
            <path class="cls-1" d="M6.46,13.22s0,.03,0,.04c0-.02-.01-.04-.02-.06,0,0,.02,.02,.03,.02Z"/>
            <path class="cls-1" d="M8.17,12.55v.16c-.05,.05-.1,.11-.16,.17-.05,.05-.1,.09-.15,.14,0-.06,0-.12-.01-.19-.06-.32-.14-.5-.42-1.76l-.71,.23c-.07,.51-.15,1.02-.34,1.55-.01,0-.03,.02-.03,.03,0,0,0,0,0,0-.11,.1-.18,.27-.14,.47,0,0,0,.02,0,.03-.03,.06-.08,.1-.13,.13-.02-.04-.03-.08-.03-.13,0-.01,0-.03,0-.04-.03-.23,.05-.45,.21-.59,.18-.53,.26-1.04,.32-1.48,0-.06,.05-.11,.11-.13l.7-.23s.03,0,.05,0c.03,0,.05,0,.08,.02,.04,.02,.07,.06,.08,.1,.16,.7,.25,1.07,.32,1.31,.03,.14,.06,.24,.08,.34,.01-.02,.03-.03,.03-.04,.01-.01,.02-.03,.03-.04,.03-.03,.06-.05,.09-.05h.03Zm.04,.6s-.08,.09-.12,.13c-.09,.09-.18,.17-.25,.23-.17,.24-.47,.42-.81,.48-.07,.01-.14,.02-.2,.02-.21,0-.38-.07-.51-.16-.04-.03-.08-.07-.11-.11,.03-.04,.06-.08,.09-.13,.06-.09,.1-.21,.14-.35h0s-.01-.05-.02-.07c0,0,.02,.02,.03,.02,.03,.03,.08,.03,.12,.02,.02,0,.03,0,.04-.02,.1-.04,.14-.16,.13-.26-.01-.08-.07-.14-.14-.15,.1-.34,.19-.66,.23-.99,.19,.74,.25,.89,.3,1.14,.06,.34-.13,.49-.35,.53-.1,.02-.18,0-.24-.04-.03,.1-.08,.19-.13,.28,.14,.11,.34,.17,.6,.12,.25-.04,.55-.18,.71-.43,.1-.08,.2-.18,.31-.3,.04-.05,.08-.1,.13-.16,0,.03,0,.05,0,.08,0,.04,.02,.08,.03,.12Zm-1.47,.18s.02,0,.02,0c.06,0,.14-.03,.18-.09,.05-.06,.06-.14,.04-.25-.02-.12-.05-.21-.09-.36-.01-.03-.02-.08-.03-.12l-.07,.23c.06,.05,.1,.12,.11,.2,.03,.14-.03,.31-.16,.4Z"/>
            <path class="cls-1" d="M6.55,13.45c-.03,.1-.08,.19-.13,.28-.04-.03-.08-.07-.12-.11,.06-.09,.1-.21,.14-.35,.02,.08,.06,.14,.1,.18Z"/>
            <path class="cls-1" d="M9.48,12.32v.16c-.02,.14-.07,.26-.14,.36-.06,.08-.14,.14-.23,.15-.14,.03-.21,0-.23-.14,0-.04,0-.09,0-.16l.05-1.72-.7,.13-.05,1.47v.16c-.05,.05-.1,.11-.16,.17,0-.05,0-.11,0-.17v-.06s.05-1.57,.05-1.57c0-.06,.04-.12,.11-.14,0,0,.01,0,.02,0l.7-.13s.02,0,.03,0c.03,0,.05,0,.08,.03h0s.02,0,.02,.01c.03,.03,.06,.08,.05,.13l-.05,1.72c0,.05,0,.09,0,.13,0,.03,.01,.03,.01,.03,0-.01,.02-.01,.04-.02,.11-.02,.21-.18,.24-.37h0c.01-.08,.06-.13,.13-.14h.03Z"/>
            <path class="cls-1" d="M9.61,13.12c-.03,.05-.06,.1-.09,.14-.22,.29-.5,.4-.69,.43-.05,0-.1,.01-.14,.01-.27,0-.48-.15-.6-.41-.03-.05-.04-.11-.05-.17,.04-.05,.08-.1,.13-.16,0,.03,0,.05,0,.08,0,.04,.02,.08,.03,.12,.1,.31,.34,.42,.6,.37,.17-.03,.42-.12,.62-.41,.03-.05,.07-.11,.09-.17,.02,.07,.05,.12,.09,.17Z"/>
            <path class="cls-1" d="M10.74,12.41c-.02,.05-.04,.1-.07,.14-.06,.11-.15,.19-.26,.2-.08,.02-.13,0-.17-.02-.01-.01-.03-.03-.03-.05-.01-.02-.02-.05-.03-.08,0-.04-.01-.09,0-.16h0s.03-.67,.03-.67v-.4s.03-.41,.03-.41v-.04l.14-.03,.15-.03v-.2s-.04,0-.04,0l-.2,.03h-.05s.03-.79,.03-.79l-.7,.23v.11s-.01,.25-.01,.25l-.02,.34h-.03s-.13,.03-.13,.03v.2s.12-.02,.12-.02h.03s-.03,.84-.03,.84v.42s-.02,.16-.02,.16c-.02,.14-.07,.26-.14,.36h0c-.02-.1-.03-.22-.02-.36v-.02l.04-1.22s-.07-.01-.1-.04c-.03-.03-.05-.08-.05-.12v-.2c0-.08,.06-.14,.13-.15h.04s.02-.58,.02-.58c0-.07,.04-.12,.11-.14l.7-.23s.03,0,.05,0c.03,0,.07,.01,.1,.03,.04,.03,.06,.08,.06,.13l-.02,.61h.06s.04-.02,.04-.02h.03s.03,0,.05,0c0,0,.02,0,.03,0,.01,0,.02,0,.03,.02h0s.02,.02,.02,.03c0,.01,.02,.03,.02,.04,0,.02,0,.03,0,.05h0s0,.21,0,.21c0,.08-.06,.14-.13,.15l-.15,.03s0,0-.02,0l-.05,1.39c0,.05,0,.09,0,.13,0,.02,0,.03,0,.03,0,0,.03-.01,.04-.02,.07-.01,.14-.09,.19-.2,0,0,0-.02,.01-.03,.01-.04,.02-.08,.03-.13,0-.05,.04-.1,.09-.13,0,.1,0,.19,.03,.27,0,.01,0,.03,0,.04Z"/>
            <path class="cls-1" d="M10.94,12.85h0c-.03,.05-.05,.1-.09,.14-.08,.13-.19,.23-.31,.31-.12,.08-.26,.13-.4,.16-.05,0-.1,.01-.14,.01h-.03c-.18,0-.33-.08-.45-.21-.04-.04-.07-.08-.09-.14,.03-.05,.07-.11,.09-.17,.02,.07,.05,.12,.09,.17,.09,.13,.22,.19,.36,.19,.04,0,.09,0,.14-.01,.09-.02,.22-.05,.34-.13,.1-.07,.2-.16,.29-.3,.03-.05,.06-.1,.09-.16,.03,.06,.06,.1,.1,.14Z"/>
            <path class="cls-1" d="M13,10.27l-.06,1.72s0,.05,0,.07c-.01,.18-.05,.44-.17,.71-.02,.05-.04,.1-.07,.15h0s0,.02,0,.02c-.03,.05-.05,.1-.08,.14-.13,.2-.3,.41-.53,.59-.1,.08-.19,.14-.27,.19-.03,.02-.05,.03-.07,.04-.95,.59-2.16,.64-2.21,.64h0c-.06,0-.11-.03-.14-.08-.11-.19-.14-.38-.07-.55,.11-.28,.42-.38,.45-.39,.01,0,.03,0,.04,0,1.07-.02,1.63-.19,1.93-.39-.06,.02-.12,.04-.18,.05-.03,0-.07,0-.1,.01-.02,0-.04,0-.06,0-.04,0-.08,0-.12,0-.02,0-.04,0-.06-.01-.03,0-.07-.02-.11-.03-.09-.04-.18-.09-.25-.17-.04-.04-.07-.08-.1-.13,.03-.05,.06-.1,.09-.16,.03,.06,.06,.1,.1,.14h0c.06,.08,.14,.13,.22,.17,.03,0,.06,.02,.09,.03,.02,0,.03,0,.05,0,.04,0,.09,0,.14,0,.03,0,.06,0,.08,0,.08-.02,.16-.04,.23-.08,.16-.09,.28-.23,.36-.38,.02-.04,.04-.08,.06-.12,0,0,.48,1.19-2.37,1.24,0,0-.59,.19-.29,.71,0,0,1.2-.04,2.13-.62,.02-.01,.04-.03,.07-.04t0,0c.08-.05,.16-.11,.25-.18,0,0,0,0,.01,0,.2-.16,.35-.33,.46-.5,.03-.04,.05-.08,.08-.12h0s.05-.1,.07-.14c.02-.05,.04-.09,.06-.14,.09-.24,.12-.45,.13-.59,0-.03,0-.05,0-.08v-.1s.06-1.62,.06-1.62l-.71,.13v.24c-.08-.22-.29-.21-.46-.18-.09,.02-.18,.04-.25,.08-.1,.05-.19,.11-.26,.19-.03,.03-.06,.06-.08,.09-.14,.17-.24,.38-.3,.6,0,.02-.01,.04-.02,.05h0c-.05,.22-.07,.44-.06,.65,0,.1,0,.19,.03,.27,0,.01,0,.03,0,.04-.02,.05-.04,.1-.07,.14-.04-.02-.08-.06-.09-.11,0,0,0-.04,0-.04h0c-.05-.31-.04-.66,.04-.98l.02-.06c.07-.26,.18-.48,.33-.66,.03-.03,.06-.07,.09-.1,.09-.09,.2-.16,.31-.22,.09-.04,.19-.07,.29-.09,.06,0,.12-.02,.17-.02,.07,0,.13,0,.18,.03,.03-.03,.06-.06,.1-.07l.71-.13s.02,0,.03,0c.04,0,.08,.01,.1,.04,.03,.03,.05,.08,.05,.13Zm-1.56,1.93h0s0-.01,0-.02c-.02-.09-.03-.19-.03-.3h0c0-.1,0-.21,.02-.32,.02-.19,.07-.39,.14-.54,.08-.16,.18-.27,.31-.3,.15-.03,.22,.09,.23,.15l-.04,1.15c0,.29-.18,.47-.32,.5,0,0,0,0,0,0-.06,.01-.16,.03-.24-.1-.03-.05-.05-.12-.07-.21Zm.13-.32c0,.1,0,.2,.02,.28,0,0,0,.03,0,.04,.02,.06,.03,.11,.05,.14,.02,.03,.03,.03,.04,.03s.02,0,.03,0c0,0,0,0,.01,0,.06-.01,.19-.13,.2-.35l.04-1.12s-.02-.02-.03-.02h-.02c-.09,.02-.16,.13-.2,.21-.06,.13-.1,.3-.13,.49-.01,.1-.02,.2-.02,.3Zm.55-1.01l-.04,1.15c0,.29-.18,.47-.32,.5,0,0,0,0,0,0-.06,.01-.16,.03-.24-.1-.03-.05-.05-.12-.07-.21h0s0-.01,0-.02c-.02-.09-.03-.19-.03-.3h0c0-.1,0-.21,.02-.32,.02-.19,.07-.39,.14-.54,.08-.16,.18-.27,.31-.3,.15-.03,.22,.09,.23,.15Zm-.16,.03s-.02-.02-.03-.02h-.02c-.09,.02-.16,.13-.2,.21-.06,.13-.1,.3-.13,.49-.01,.1-.02,.2-.02,.3s0,.2,.02,.28c0,0,0,.03,0,.04,.02,.06,.03,.11,.05,.14,.02,.03,.03,.03,.04,.03s.02,0,.03,0c0,0,0,0,.01,0,.06-.01,.19-.13,.2-.35l.04-1.12Z"/>
          </g>
          <g>
            <path class="cls-1" d="M5.7,11.03c0,.07-.05,.13-.12,.14l-.34,.06s-.02,0-.03,0c-.03,0-.06-.01-.09-.03-.03-.02-.05-.06-.05-.1h0s-.02,.08-.02,.08c-.01,.05-.06,.1-.11,.11l-.32,.06s-.02,0-.03,0c-.03,0-.06-.01-.08-.03-.03-.02-.05-.06-.06-.09l-.03-.2-.05,.27c-.01,.06-.06,.1-.11,.11l-.19,.03s-.02,0-.02,0c-.04,0-.07-.01-.1-.04-.03-.03-.05-.08-.04-.12l.14-.81c-.18,0-.31-.11-.34-.29-.07-.38,.31-.85,.75-.93,.04,0,.08-.01,.12-.01,.04,0,.08,0,.12,.01,.06,.01,.11,.06,.11,.12l.06,.49,.13-.58c.01-.05,.06-.09,.11-.11l.34-.06s.01,0,.02,0c.03,0,.06,.01,.09,.03,.03,.03,.05,.06,.05,.11v.15s0,.05,0,.08h0s.01,.28,.01,.28l.04,1.16v.12Zm-.14,0l-.06-1.79-.34,.06-.3,1.34-.17-1.26c-.06-.01-.12-.01-.19,0-.36,.06-.69,.46-.64,.77,.03,.15,.14,.19,.29,.17-.01-.02-.04-.04-.06-.16-.05-.27,.06-.48,.28-.6l-.31,1.74,.19-.03,.21-1.14,.14,1.08,.32-.06,.26-1.14,.04,1.09,.34-.06Z"/>
            <path class="cls-1" d="M6.43,10.65c.02,.22-.11,.4-.33,.44-.03,0-.05,0-.08,0-.14,0-.26-.07-.32-.19h0s-.05-.11-.06-.17c0-.05-.01-.11-.01-.19l.03-.79s0-.01,0-.02c0,0,0,0,0,0,0-.04,.04-.08,.08-.1-.04-.05-.08-.11-.09-.17,0-.03,0-.06,0-.08,.01-.15,.12-.27,.27-.3,.02,0,.04,0,.06,0,.1,0,.19,.04,.26,.12,.04,.04,.06,.1,.07,.16,.01,.06,0,.13-.02,.19-.01,.02-.03,.04-.04,.07,.02,.02,.04,.06,.04,.1l-.03,.82s.04-.01,.05-.01c.02,0,.04,0,.06,.01,.04,.02,.07,.06,.08,.11Zm-.65-1.2c.02,.1,.12,.17,.22,.15,.06-.01,.12-.05,.14-.11,.01-.03,.02-.07,.01-.11,0-.04-.02-.07-.04-.09-.04-.05-.11-.08-.18-.06-.1,.02-.17,.12-.15,.22Zm.51,1.22s-.03,.02-.07,.03c-.07,.01-.1,0-.11-.07,0-.02,0-.04,0-.08l.03-.84-.34,.06-.03,.79c0,.06,0,.11,0,.16,.04,.2,.16,.26,.31,.24,.13-.02,.23-.12,.22-.29Z"/>
          </g>
          <path class="cls-1" d="M13.36,8.99s-.32,.97-2.09,.97c-.05,0-.09,0-.14,0-.02,0-.04,0-.07-.02-.28-.14-.57-.28-.86-.42l-.13-.06c-.58-.28-1.15-.57-1.74-.85-.19,.38-.93,1.91-.93,1.91-.02,.04-.06,.07-.1,.08-.02,0-.03,0-.04,0-.03,0-.06,0-.08-.03-.18-.11-.36-.28-.5-.47-.04-.05-.04-.11-.02-.17l.31-.62s.02-.03,.03-.05c.02-.03,.03-.06,.04-.08l.16-.32c.17-.33,.33-.67,.49-1,0,0,.09-.19,.11-.23,.07-.15,.18-.18,.26-.18h.99c.15,.01,.25,.1,.28,.24,.02,.13,.08,.22,.17,.28-.05-.15-.25-.74-.25-.74-.01-.03-.02-.06-.03-.1v-.04s0-.09,.03-.13c.03-.03,.07-.06,.12-.06h.04c.1,0,.2,0,.29,0h.13c.15,0,.25,.07,.3,.21,.04,.12,.08,.24,.13,.36,0,.02,.03,.04,.04,.05,.06,.03,.11,.06,.17,.08,0,0,.01,0,.02,.01,.06,.03,.32,.15,.39,.19,0,0,.06,.02,.06,.02,.02,0,.03,0,.05,0l2.26,.93c.08,.03,.12,.11,.09,.19Zm-.15-.05l-2.26-.93h0c-.06-.01-.09-.02-.12-.03-.13-.07-.27-.13-.4-.19h0c-.06-.03-.12-.06-.18-.09-.05-.03-.09-.08-.11-.13-.05-.12-.09-.25-.13-.37-.02-.07-.07-.1-.14-.1-.15,0-.3,0-.47,0,0,.05,.01,.08,.03,.12,.1,.31,.21,.61,.31,.92,.02,.04,.02,.08,.03,.14-.05,0-.08-.01-.11-.02-.02,0-.04-.03-.06-.03-.22-.08-.36-.23-.39-.46-.01-.07-.06-.1-.13-.1-.33,0-.66,0-.99-.01-.07,0-.1,.04-.13,.1-.04,.07-.07,.15-.11,.22-.21,.44-.43,.88-.65,1.33-.02,.04-.04,.08-.08,.14h0s-.31,.61-.31,.61c.14,.19,.31,.34,.46,.44,.33-.68,.66-1.36,1-2.05,.66,.32,1.32,.64,1.97,.96,.02,0,.03,.01,.05,.02,.29,.14,.57,.28,.86,.42,1.8,.05,2.08-.86,2.08-.86Z"/>
          <path class="cls-4" d="M13.21,8.94s-.28,.91-2.08,.86c-.28-.14-.57-.28-.86-.42-.02,0-.03-.02-.05-.02-.65-.32-1.3-.64-1.97-.96-.34,.69-.67,1.37-1,2.05-.15-.1-.32-.25-.46-.44l.31-.62h0c.03-.05,.06-.09,.08-.13,.22-.44,.43-.88,.65-1.33,.04-.07,.07-.15,.11-.22,.03-.06,.06-.1,.13-.1,.33,0,.66,0,.99,.01,.07,0,.12,.03,.13,.1,.04,.23,.17,.38,.39,.46,.02,0,.04,.03,.06,.03,.03,0,.06,.01,.11,.02-.01-.06-.02-.1-.03-.14-.1-.31-.21-.61-.31-.92-.01-.03-.02-.07-.03-.12,.17,0,.32,0,.47,0,.08,0,.12,.03,.14,.1,.04,.13,.08,.25,.13,.37,.02,.05,.07,.1,.11,.13,.06,.03,.12,.06,.18,.09h0c.13,.07,.27,.13,.4,.2,.03,.01,.07,.02,.12,.04h0s2.26,.92,2.26,.92Zm-2.18-.6l-.52-.24-.07,.14-.07,.14,.52,.24s.05,.02,.07,.02c.06,0,.11-.03,.14-.09,.04-.08,0-.17-.08-.21Z"/>
          <path class="cls-1" d="M8.99,10.41c.01,.07,0,.12-.04,.16-.02,.02-.03,.03-.05,.05h0s-.06,.02-.1,.03c-.06,0-.12,.02-.18,.02h-.05s-.01,0-.02,.01h-.08c-.06,.02-.11,.02-.17,.03,0,0-.03,0-.04,0-.02,0-.03,0-.05,0-.07-.02-.14-.07-.16-.19-.02-.16-.04-.33-.06-.49-.01-.07,0-.12,.04-.17,.03-.04,.08-.07,.15-.08,.17-.02,.34-.04,.51-.07,0,0,.03,0,.04,0,.09,0,.18,.05,.2,.19,.02,.16,.04,.33,.06,.49Zm-.71,.18c.08-.01,.17-.02,.26-.03,.08-.01,.17-.02,.26-.03,.06,0,.08-.03,.07-.09-.02-.16-.04-.33-.06-.49,0-.06-.04-.08-.09-.07-.17,.02-.34,.04-.51,.07-.06,0-.08,.04-.07,.09,.02,.17,.04,.33,.06,.5,0,.06,.03,.08,.09,.07Z"/>
          <path class="cls-4" d="M8.95,10.59c0,.07-.02,.11-.09,.11-.1,.01-.21,.03-.31,.04-.1,.01-.21,.03-.31,.04-.07,0-.1-.02-.11-.09-.02-.2-.05-.4-.08-.6,0-.07,.01-.11,.08-.11,.21-.03,.41-.05,.62-.08,.07,0,.1,.02,.11,.09,.02,.2,.05,.4,.08,.6Z"/>
          <path class="cls-4" d="M11.11,8.68c-.03,.06-.08,.09-.14,.09-.02,0-.05,0-.07-.02l-.52-.24,.07-.14,.07-.14,.52,.24c.08,.04,.11,.13,.08,.21Z"/>
          <polygon class="cls-1" points="12.55 12.95 12.54 12.95 12.54 12.95 12.55 12.95"/>
          <polygon class="cls-1" points="12.62 12.8 12.61 12.81 12.61 12.81 12.62 12.8"/>
          <polygon class="cls-3" points="12.54 12.95 12.55 12.95 12.54 12.95 12.54 12.95"/>
          <path class="cls-1" d="M12.17,12.46"/>
          <path class="cls-1" d="M12.17,12.46"/>
        </g>
        <g>
          <g>
            <path class="cls-1" d="M11.07,3.12s-.06,.09-.1,.14c-.26,.36-.67,.61-1.14,.69-.1,.02-.19,.03-.28,.03-.42,0-.95-.2-1.13-1.17-.08-.44-.1-1.13,.09-1.74,.22-.73,.67-1.18,1.31-1.29,.09-.02,.18-.03,.26-.03,.46,0,.76,.25,.83,.68,.07,.36-.08,.63-.39,.68-.03,0-.06,0-.1,0-.12,0-.23-.04-.33-.12-.04-.03-.06-.08-.06-.13,0-.05,.02-.09,.06-.12,.05-.03,.11-.2,.08-.33-.01-.06-.04-.13-.12-.13,0,0-.02,0-.03,0-.19,.03-.36,.32-.47,.77-.1,.46-.12,1.03-.03,1.49,.08,.48,.23,.58,.42,.58,.04,0,.08,0,.12,0,.26-.05,.51-.22,.67-.46,.03-.04,.06-.09,.08-.14,.02-.03,.04-.05,.06-.07,0,.08,0,.16,.03,.24h0c-.04,.07-.08,.12-.13,.17-.18,.21-.42,.36-.68,.41-.47,.08-.64-.23-.73-.7-.17-.98,.07-2.35,.63-2.45,.19-.03,.31,.09,.33,.25,.03,.18-.04,.41-.14,.48,.11,.09,.22,.09,.3,.08,.25-.04,.31-.26,.26-.5-.08-.48-.48-.6-.92-.53-1.31,.24-1.43,1.97-1.27,2.86,.15,.83,.58,1.13,1.22,1.02,.43-.08,.83-.32,1.08-.68,.04-.05,.07-.11,.1-.17,.02,.07,.05,.13,.08,.18Z"/>
            <path class="cls-1" d="M12.33,1.22l-.04,1.15c0,.29-.19,.47-.33,.5-.09,.02-.25,.04-.31-.34-.08-.46,.03-1.39,.44-1.46,.15-.03,.22,.09,.24,.15Zm-.16,.03s-.02-.02-.03-.02h-.02c-.25,.05-.4,.8-.32,1.28,.03,.15,.07,.22,.09,.22,.02,0,.03,0,.04,0,.07-.01,.2-.13,.2-.35l.03-1.12Zm.16-.03l-.04,1.15c0,.29-.19,.47-.33,.5-.09,.02-.25,.04-.31-.34-.08-.46,.03-1.39,.44-1.46,.15-.03,.22,.09,.24,.15Zm-.16,.03s-.02-.02-.03-.02h-.02c-.25,.05-.4,.8-.32,1.28,.03,.15,.07,.22,.09,.22,.02,0,.03,0,.04,0,.07-.01,.2-.13,.2-.35l.03-1.12Zm.16-.03l-.04,1.15c0,.29-.19,.47-.33,.5-.09,.02-.25,.04-.31-.34-.08-.46,.03-1.39,.44-1.46,.15-.03,.22,.09,.24,.15Zm-.16,.03s-.02-.02-.03-.02h-.02c-.25,.05-.4,.8-.32,1.28,.03,.15,.07,.22,.09,.22,.02,0,.03,0,.04,0,.07-.01,.2-.13,.2-.35l.03-1.12Zm1.7,1.08c-.02,.08-.04,.16-.07,.23-.03,.1-.08,.19-.13,.28-.03,.05-.06,.09-.09,.13-.16,.19-.37,.31-.62,.36-.05,0-.09,.01-.14,.01-.18,0-.33-.07-.44-.19-.16,.23-.37,.37-.62,.42-.05,0-.11,.02-.16,.02-.14,0-.42-.04-.62-.31-.03-.04-.06-.09-.09-.15,.04-.05,.07-.11,.1-.17,.02,.07,.05,.13,.08,.18,.16,.26,.41,.33,.65,.29,.35-.06,.54-.33,.65-.59,.09,.27,.29,.39,.55,.34,.15-.03,.36-.09,.54-.31,.03-.04,.06-.08,.09-.13,.06-.09,.1-.21,.14-.35h0s-.01-.05-.02-.07c0,0,.02,.02,.03,.02,.03,.03,.08,.03,.12,.02,.02,0,.03,0,.04-.02Zm-1.54-1.1l-.04,1.15c0,.29-.19,.47-.33,.5-.09,.02-.25,.04-.31-.34-.08-.46,.03-1.39,.44-1.46,.15-.03,.22,.09,.24,.15Zm-.16,.03s-.02-.02-.03-.02h-.02c-.25,.05-.4,.8-.32,1.28,.03,.15,.07,.22,.09,.22,.02,0,.03,0,.04,0,.07-.01,.2-.13,.2-.35l.03-1.12Zm1.27,1.2s0,.02,0,.03c-.03,.06-.08,.1-.13,.13-.03,.02-.06,.03-.09,.04-.14,.03-.21,0-.23-.14,0-.04-.01-.09,0-.16l.06-1.72-.71,.13v.24c-.08-.22-.29-.21-.45-.18-.74,.13-1,1-.98,1.66,0,.08,0,.16,.03,.24h0c-.04,.07-.08,.12-.13,.17,0-.03-.02-.07-.03-.11,0-.03,0-.06-.01-.09-.1-.78,.21-1.86,1.09-2.02,.06,0,.11-.02,.17-.02,.07,0,.13,0,.18,.03,.02-.03,.06-.06,.1-.07l.71-.13s.02,0,.03,0c.04,0,.07,.01,.1,.04,.04,.03,.06,.08,.06,.13l-.06,1.72c0,.05,0,.09,0,.13,0,.03,0,.03,0,.03,0,0,.03-.01,.04-.02,.03,0,.06-.02,.08-.05,.08-.08,.11-.25,.11-.31,0-.07,.06-.12,.13-.14h.06c-.11,.09-.18,.26-.14,.46Zm-1.11-1.23l-.04,1.15c0,.29-.19,.47-.33,.5-.09,.02-.25,.04-.31-.34-.08-.46,.03-1.39,.44-1.46,.15-.03,.22,.09,.24,.15Zm-.16,.03s-.02-.02-.03-.02h-.02c-.25,.05-.4,.8-.32,1.28,.03,.15,.07,.22,.09,.22,.02,0,.03,0,.04,0,.07-.01,.2-.13,.2-.35l.03-1.12Zm.16-.03l-.04,1.15c0,.29-.19,.47-.33,.5-.09,.02-.25,.04-.31-.34-.08-.46,.03-1.39,.44-1.46,.15-.03,.22,.09,.24,.15Zm-.16,.03s-.02-.02-.03-.02h-.02c-.25,.05-.4,.8-.32,1.28,.03,.15,.07,.22,.09,.22,.02,0,.03,0,.04,0,.07-.01,.2-.13,.2-.35l.03-1.12Z"/>
            <path class="cls-1" d="M13.71,2.32s0,.03,0,.04c0-.02-.01-.04-.02-.06,0,0,.02,.02,.03,.02Z"/>
            <path class="cls-1" d="M15.42,1.65v.16c-.05,.05-.1,.11-.16,.17-.05,.05-.1,.09-.15,.14,0-.06,0-.12-.01-.19-.06-.32-.14-.5-.42-1.76l-.71,.23c-.07,.51-.15,1.02-.34,1.55-.01,0-.03,.02-.03,.03,0,0,0,0,0,0-.11,.1-.18,.27-.14,.47,0,0,0,.02,0,.03-.03,.06-.08,.1-.13,.13-.02-.04-.03-.08-.03-.13,0-.01,0-.03,0-.04-.03-.23,.05-.45,.21-.59,.18-.53,.26-1.04,.32-1.48,0-.06,.05-.11,.11-.13l.7-.23s.03,0,.05,0c.03,0,.05,0,.08,.02,.04,.02,.07,.06,.08,.1,.16,.7,.25,1.07,.32,1.31,.03,.14,.06,.24,.08,.34,.01-.02,.03-.03,.03-.04,.01-.01,.02-.03,.03-.04,.03-.03,.06-.05,.09-.05h.03Zm.04,.6s-.08,.09-.12,.13c-.09,.09-.18,.17-.25,.23-.17,.24-.47,.42-.81,.48-.07,.01-.14,.02-.2,.02-.21,0-.38-.07-.51-.16-.04-.03-.08-.07-.11-.11,.03-.04,.06-.08,.09-.13,.06-.09,.1-.21,.14-.35h0s-.01-.05-.02-.07c0,0,.02,.02,.03,.02,.03,.03,.08,.03,.12,.02,.02,0,.03,0,.04-.02,.1-.04,.14-.16,.13-.26-.01-.08-.07-.14-.14-.15,.1-.34,.19-.66,.23-.99,.19,.74,.25,.89,.3,1.14,.06,.34-.13,.49-.35,.53-.1,.02-.18,0-.24-.04-.03,.1-.08,.19-.13,.28,.14,.11,.34,.17,.6,.12,.25-.04,.55-.18,.71-.43,.1-.08,.2-.18,.31-.3,.04-.05,.08-.1,.13-.16,0,.03,0,.05,0,.08,0,.04,.02,.08,.03,.12Zm-1.47,.18s.02,0,.02,0c.06,0,.14-.03,.18-.09,.05-.06,.06-.14,.04-.25-.02-.12-.05-.21-.09-.36-.01-.03-.02-.08-.03-.12l-.07,.23c.06,.05,.1,.12,.11,.2,.03,.14-.03,.31-.16,.4Z"/>
            <path class="cls-1" d="M13.8,2.55c-.03,.1-.08,.19-.13,.28-.04-.03-.08-.07-.12-.11,.06-.09,.1-.21,.14-.35,.02,.08,.06,.14,.1,.18Z"/>
          </g>
          <g>
            <path class="cls-1" d="M12.95,.13c0,.07-.05,.13-.12,.14l-.34,.06s-.02,0-.03,0c-.03,0-.06-.01-.09-.03-.03-.02-.05-.06-.05-.1h0s-.02,.08-.02,.08c-.01,.05-.06,.1-.11,.11l-.32,.06s-.02,0-.03,0c-.03,0-.06-.01-.08-.03-.03-.02-.05-.06-.06-.09l-.03-.2-.05,.27c-.01,.06-.06,.1-.11,.11l-.19,.03s-.02,0-.02,0c-.04,0-.07-.01-.1-.04-.03-.03-.05-.08-.04-.12l.14-.81c-.18,0-.31-.11-.34-.29-.07-.38,.31-.85,.75-.93,.04,0,.08-.01,.12-.01,.04,0,.08,0,.12,.01,.06,.01,.11,.06,.11,.12l.06,.49,.13-.58c.01-.05,.06-.09,.11-.11l.34-.06s.01,0,.02,0c.03,0,.06,.01,.09,.03,.03,.03,.05,.06,.05,.11v.15s0,.05,0,.08h0s.01,.28,.01,.28l.04,1.16v.12Zm-.14,0l-.06-1.79-.34,.06-.3,1.34-.17-1.26c-.06-.01-.12-.01-.19,0-.36,.06-.69,.46-.64,.77,.03,.15,.14,.19,.29,.17-.01-.02-.04-.04-.06-.16-.05-.27,.06-.48,.28-.6l-.31,1.74,.19-.03,.21-1.14,.14,1.08,.32-.06,.26-1.14,.04,1.09,.34-.06Z"/>
            <path class="cls-1" d="M13.68-.25c.02,.22-.11,.4-.33,.44-.03,0-.05,0-.08,0-.14,0-.26-.07-.32-.19h0s-.05-.11-.06-.17c0-.05-.01-.11-.01-.19l.03-.79s0-.01,0-.02c0,0,0,0,0,0,0-.04,.04-.08,.08-.1-.04-.05-.08-.11-.09-.17,0-.03,0-.06,0-.08,.01-.15,.12-.27,.27-.3,.02,0,.04,0,.06,0,.1,0,.19,.04,.26,.12,.04,.04,.06,.1,.07,.16,.01,.06,0,.13-.02,.19-.01,.02-.03,.04-.04,.07,.02,.02,.04,.06,.04,.1l-.03,.82s.04-.01,.05-.01c.02,0,.04,0,.06,.01,.04,.02,.07,.06,.08,.11Zm-.65-1.2c.02,.1,.12,.17,.22,.15,.06-.01,.12-.05,.14-.11,.01-.03,.02-.07,.01-.11,0-.04-.02-.07-.04-.09-.04-.05-.11-.08-.18-.06-.1,.02-.17,.12-.15,.22Zm.51,1.22s-.03,.02-.07,.03c-.07,.01-.1,0-.11-.07,0-.02,0-.04,0-.08l.03-.84-.34,.06-.03,.79c0,.06,0,.11,0,.16,.04,.2,.16,.26,.31,.24,.13-.02,.23-.12,.22-.29Z"/>
          </g>
        </g>
        <g>
          <g>
            <path class="cls-1" d="M.92,1.65v.16c-.05,.05-.1,.11-.16,.17-.05,.05-.1,.09-.15,.14,0-.06,0-.12-.01-.19-.06-.32-.14-.5-.42-1.76l-.71,.23c-.07,.51-.15,1.02-.34,1.55-.01,0-.03,.02-.03,.03,0,0,0,0,0,0-.11,.1-.18,.27-.14,.47,0,0,0,.02,0,.03-.03,.06-.08,.1-.13,.13-.02-.04-.03-.08-.03-.13,0-.01,0-.03,0-.04-.03-.23,.05-.45,.21-.59,.18-.53,.26-1.04,.32-1.48,0-.06,.05-.11,.11-.13L.12,.02s.03,0,.05,0c.03,0,.05,0,.08,.02,.04,.02,.07,.06,.08,.1,.16,.7,.25,1.07,.32,1.31,.03,.14,.06,.24,.08,.34,.01-.02,.03-.03,.03-.04,.01-.01,.02-.03,.03-.04,.03-.03,.06-.05,.09-.05h.03Zm.04,.6s-.08,.09-.12,.13c-.09,.09-.18,.17-.25,.23-.17,.24-.47,.42-.81,.48-.07,.01-.14,.02-.2,.02-.21,0-.38-.07-.51-.16-.04-.03-.08-.07-.11-.11,.03-.04,.06-.08,.09-.13,.06-.09,.1-.21,.14-.35H-.8s-.01-.05-.02-.07c0,0,.02,.02,.03,.02,.03,.03,.08,.03,.12,.02,.02,0,.03,0,.04-.02,.1-.04,.14-.16,.13-.26-.01-.08-.07-.14-.14-.15,.1-.34,.19-.66,.23-.99C-.23,1.66-.16,1.81-.11,2.06c.06,.34-.13,.49-.35,.53-.1,.02-.18,0-.24-.04-.03,.1-.08,.19-.13,.28,.14,.11,.34,.17,.6,.12,.25-.04,.55-.18,.71-.43,.1-.08,.2-.18,.31-.3,.04-.05,.08-.1,.13-.16,0,.03,0,.05,0,.08,0,.04,.02,.08,.03,.12Zm-1.47,.18s.02,0,.02,0c.06,0,.14-.03,.18-.09,.05-.06,.06-.14,.04-.25-.02-.12-.05-.21-.09-.36-.01-.03-.02-.08-.03-.12l-.07,.23c.06,.05,.1,.12,.11,.2,.03,.14-.03,.31-.16,.4Z"/>
            <path class="cls-1" d="M2.23,1.42v.16c-.02,.14-.07,.26-.14,.36-.06,.08-.14,.14-.23,.15-.14,.03-.21,0-.23-.14,0-.04,0-.09,0-.16L1.67,.06,.97,.18l-.05,1.47v.16c-.05,.05-.1,.11-.16,.17,0-.05,0-.11,0-.17v-.06s.05-1.57,.05-1.57c0-.06,.04-.12,.11-.14,0,0,.01,0,.02,0L1.64-.09s.02,0,.03,0c.03,0,.05,0,.08,.03h0s.02,0,.02,.01c.03,.03,.06,.08,.05,.13l-.05,1.72c0,.05,0,.09,0,.13,0,.03,.01,.03,.01,.03,0-.01,.02-.01,.04-.02,.11-.02,.21-.18,.24-.37h0c.01-.08,.06-.13,.13-.14h.03Z"/>
            <path class="cls-1" d="M2.36,2.22c-.03,.05-.06,.1-.09,.14-.22,.29-.5,.4-.69,.43-.05,0-.1,.01-.14,.01-.27,0-.48-.15-.6-.41-.03-.05-.04-.11-.05-.17,.04-.05,.08-.1,.13-.16,0,.03,0,.05,0,.08,0,.04,.02,.08,.03,.12,.1,.31,.34,.42,.6,.37,.17-.03,.42-.12,.62-.41,.03-.05,.07-.11,.09-.17,.02,.07,.05,.12,.09,.17Z"/>
            <path class="cls-1" d="M3.49,1.51c-.02,.05-.04,.1-.07,.14-.06,.11-.15,.19-.26,.2-.08,.02-.13,0-.17-.02-.01-.01-.03-.03-.03-.05-.01-.02-.02-.05-.03-.08,0-.04-.01-.09,0-.16h0s.03-.67,.03-.67V.48s.03-.41,.03-.41V.03l.14-.03,.15-.03V-.22s-.04,0-.04,0l-.2,.03h-.05s.03-.79,.03-.79l-.7,.23v.11s-.01,.25-.01,.25l-.02,.34h-.03s-.13,.03-.13,.03V.18s.12-.02,.12-.02h.03s-.03,.84-.03,.84v.42s-.02,.16-.02,.16c-.02,.14-.07,.26-.14,.36h0c-.02-.1-.03-.22-.02-.36v-.02l.04-1.22s-.07-.01-.1-.04c-.03-.03-.05-.08-.05-.12V-.02c0-.08,.06-.14,.13-.15h.04s.02-.58,.02-.58c0-.07,.04-.12,.11-.14l.7-.23s.03,0,.05,0c.03,0,.07,.01,.1,.03,.04,.03,.06,.08,.06,.13l-.02,.61h.06s.04-.02,.04-.02h.03s.03,0,.05,0c0,0,.02,0,.03,0,.01,0,.02,0,.03,.02h0s.02,.02,.02,.03c0,.01,.02,.03,.02,.04,0,.02,0,.03,0,.05h0s0,.21,0,.21c0,.08-.06,.14-.13,.15l-.15,.03s0,0-.02,0l-.05,1.39c0,.05,0,.09,0,.13,0,.02,0,.03,0,.03,0,0,.03-.01,.04-.02,.07-.01,.14-.09,.19-.2,0,0,0-.02,.01-.03,.01-.04,.02-.08,.03-.13,0-.05,.04-.1,.09-.13,0,.1,0,.19,.03,.27,0,.01,0,.03,0,.04Z"/>
            <path class="cls-1" d="M3.69,1.95h0c-.03,.05-.05,.1-.09,.14-.08,.13-.19,.23-.31,.31-.12,.08-.26,.13-.4,.16-.05,0-.1,.01-.14,.01h-.03c-.18,0-.33-.08-.45-.21-.04-.04-.07-.08-.09-.14,.03-.05,.07-.11,.09-.17,.02,.07,.05,.12,.09,.17,.09,.13,.22,.19,.36,.19,.04,0,.09,0,.14-.01,.09-.02,.22-.05,.34-.13,.1-.07,.2-.16,.29-.3,.03-.05,.06-.1,.09-.16,.03,.06,.06,.1,.1,.14Z"/>
            <path class="cls-1" d="M5.75-.63l-.06,1.72s0,.05,0,.07c-.01,.18-.05,.44-.17,.71-.02,.05-.04,.1-.07,.15h0s0,.02,0,.02c-.03,.05-.05,.1-.08,.14-.13,.2-.3,.41-.53,.59-.1,.08-.19,.14-.27,.19-.03,.02-.05,.03-.07,.04-.95,.59-2.16,.64-2.21,.64h0c-.06,0-.11-.03-.14-.08-.11-.19-.14-.38-.07-.55,.11-.28,.42-.38,.45-.39,.01,0,.03,0,.04,0,1.07-.02,1.63-.19,1.93-.39-.06,.02-.12,.04-.18,.05-.03,0-.07,0-.1,.01-.02,0-.04,0-.06,0-.04,0-.08,0-.12,0-.02,0-.04,0-.06-.01-.03,0-.07-.02-.11-.03-.09-.04-.18-.09-.25-.17-.04-.04-.07-.08-.1-.13,.03-.05,.06-.1,.09-.16,.03,.06,.06,.1,.1,.14h0c.06,.08,.14,.13,.22,.17,.03,0,.06,.02,.09,.03,.02,0,.03,0,.05,0,.04,0,.09,0,.14,0,.03,0,.06,0,.08,0,.08-.02,.16-.04,.23-.08,.16-.09,.28-.23,.36-.38,.02-.04,.04-.08,.06-.12,0,0,.48,1.19-2.37,1.24,0,0-.59,.19-.29,.71,0,0,1.2-.04,2.13-.62,.02-.01,.04-.03,.07-.04t0,0c.08-.05,.16-.11,.25-.18,0,0,0,0,.01,0,.2-.16,.35-.33,.46-.5,.03-.04,.05-.08,.08-.12h0s.05-.1,.07-.14c.02-.05,.04-.09,.06-.14,.09-.24,.12-.45,.13-.59,0-.03,0-.05,0-.08v-.1s.06-1.62,.06-1.62l-.71,.13v.24c-.08-.22-.29-.21-.46-.18-.09,.02-.18,.04-.25,.08-.1,.05-.19,.11-.26,.19-.03,.03-.06,.06-.08,.09-.14,.17-.24,.38-.3,.6,0,.02-.01,.04-.02,.05h0c-.05,.22-.07,.44-.06,.65,0,.1,0,.19,.03,.27,0,.01,0,.03,0,.04-.02,.05-.04,.1-.07,.14-.04-.02-.08-.06-.09-.11,0,0,0-.04,0-.04h0c-.05-.31-.04-.66,.04-.98l.02-.06c.07-.26,.18-.48,.33-.66,.03-.03,.06-.07,.09-.1,.09-.09,.2-.16,.31-.22,.09-.04,.19-.07,.29-.09,.06,0,.12-.02,.17-.02,.07,0,.13,0,.18,.03,.03-.03,.06-.06,.1-.07l.71-.13s.02,0,.03,0c.04,0,.08,.01,.1,.04,.03,.03,.05,.08,.05,.13Zm-1.56,1.93h0s0-.01,0-.02c-.02-.09-.03-.19-.03-.3h0c0-.1,0-.21,.02-.32,.02-.19,.07-.39,.14-.54,.08-.16,.18-.27,.31-.3,.15-.03,.22,.09,.23,.15l-.04,1.15c0,.29-.18,.47-.32,.5,0,0,0,0,0,0-.06,.01-.16,.03-.24-.1-.03-.05-.05-.12-.07-.21Zm.13-.32c0,.1,0,.2,.02,.28,0,0,0,.03,0,.04,.02,.06,.03,.11,.05,.14,.02,.03,.03,.03,.04,.03s.02,0,.03,0c0,0,0,0,.01,0,.06-.01,.19-.13,.2-.35L4.71,0s-.02-.02-.03-.02h-.02c-.09,.02-.16,.13-.2,.21-.06,.13-.1,.3-.13,.49-.01,.1-.02,.2-.02,.3ZM4.87-.03l-.04,1.15c0,.29-.18,.47-.32,.5,0,0,0,0,0,0-.06,.01-.16,.03-.24-.1-.03-.05-.05-.12-.07-.21h0s0-.01,0-.02c-.02-.09-.03-.19-.03-.3h0c0-.1,0-.21,.02-.32,.02-.19,.07-.39,.14-.54,.08-.16,.18-.27,.31-.3,.15-.03,.22,.09,.23,.15Zm-.16,.03s-.02-.02-.03-.02h-.02c-.09,.02-.16,.13-.2,.21-.06,.13-.1,.3-.13,.49-.01,.1-.02,.2-.02,.3s0,.2,.02,.28c0,0,0,.03,0,.04,.02,.06,.03,.11,.05,.14,.02,.03,.03,.03,.04,.03s.02,0,.03,0c0,0,0,0,.01,0,.06-.01,.19-.13,.2-.35L4.71,0Z"/>
          </g>
          <polygon class="cls-1" points="5.3 2.05 5.29 2.05 5.29 2.05 5.3 2.05"/>
          <polygon class="cls-1" points="5.37 1.9 5.36 1.91 5.36 1.91 5.37 1.9"/>
          <polygon class="cls-3" points="5.29 2.05 5.3 2.05 5.29 2.05 5.29 2.05"/>
          <path class="cls-1" d="M4.92,1.56"/>
          <path class="cls-1" d="M4.92,1.56"/>
        </g>
      </g>
    </pattern>
  </defs>
  <g id="Capa_1-2" data-name="Capa 1">
    <rect class="cls-2" width="44.65" height="47.12"/>
  </g>
</svg>