<?xml version="1.0" encoding="utf-8"?>
<!-- Generator: Adobe Illustrator 26.5.0, SVG Export Plug-In . SVG Version: 6.00 Build 0)  -->
<svg version="1.1" id="Capa_2_00000104673148520063830520000012725725074412624537_"
	 xmlns="http://www.w3.org/2000/svg" xmlns:xlink="http://www.w3.org/1999/xlink" x="0px" y="0px" viewBox="0 0 47.3 47.3"
	 style="enable-background:new 0 0 47.3 47.3;" xml:space="preserve">
<style type="text/css">
	.st0{opacity:0.3;}
	.st1{clip-path:url(#SVGID_00000153664855325526949540000006303762234281719683_);}
	.st2{fill:#FFFFFF;}
	.st3{font-family:'Poppins-SemiBoldItalic';}
	.st4{font-size:3.2px;}
</style>
<g id="Capa_1-2" class="st0">
	<g>
		<defs>
			<rect id="SVGID_1_" width="47.3" height="47.3"/>
		</defs>
		<clipPath id="SVGID_00000108280203855425802520000005423309161579115452_">
			<use xlink:href="#SVGID_1_"  style="overflow:visible;"/>
		</clipPath>
		<g style="clip-path:url(#SVGID_00000108280203855425802520000005423309161579115452_);">
			<g>
				<text transform="matrix(0.9845 -0.1754 0.1754 0.9845 14.63 42.37)" class="st2 st3 st4">RESTAURANTE</text>
				<g>
					<path class="st2" d="M20.9,33.6c-0.6,2.6-2.8,4.3-5.3,4.8c-2.6,0.5-4.4-0.8-5-4.2c-0.6-3.6-0.2-10.7,5.2-11.7
						c1.8-0.3,3.4,0.2,3.7,2.1c0.2,1-0.1,1.9-1.1,2c-0.3,0.1-0.8,0.1-1.2-0.3c0.4-0.3,0.7-1.3,0.6-2c-0.1-0.7-0.6-1.2-1.4-1
						c-2.3,0.4-3.3,6-2.6,10c0.3,1.9,1,3.2,3,2.9c1.5-0.3,2.9-1.4,3.5-2.8L20.9,33.6L20.9,33.6z"/>
					<path class="st2" d="M28.9,25.3l-0.2,7.1c0,0.3,0,0.5,0,0.7c0.1,0.6,0.4,0.7,1,0.6c0.8-0.1,1.2-1,1.3-2l0.8-0.1
						c-0.6,3.5-2.3,4.1-3.4,4.3c-1.1,0.2-1.9-0.3-2.3-1.4c-0.4,1-1.2,2.1-2.6,2.4c-1.4,0.2-2.8-0.4-3.2-2.8
						c-0.5-2.7,0.4-7.3,3.9-7.9c0.7-0.1,1.5-0.1,1.8,0.8l0-1L28.9,25.3L28.9,25.3z M23.1,33.2c0.3,1.5,0.9,1.5,1.3,1.4
						c0.6-0.1,1.3-0.8,1.4-2.1l0.2-4.7c-0.1-0.2-0.3-0.7-1-0.6C23.2,27.5,22.8,31.3,23.1,33.2L23.1,33.2z"/>
					<path class="st2" d="M39.4,30.1c-0.8,1.4-1.8,2.3-2.6,3c-0.7,1-1.9,1.6-2.9,1.8c-2,0.4-3.2-0.8-3.4-2c-0.2-0.9,0.2-1.7,0.7-2
						c0.8-2.2,1.1-4.3,1.4-6.4l2.9-0.9c1.2,5.1,1.5,5.9,1.7,7.2c0,0.3,0.1,0.5,0.1,0.8c0.5-0.4,0.9-0.9,1.3-1.3
						C38.6,30.2,39.4,30.1,39.4,30.1z M32,32.4c-0.2,0-0.5,0-0.6-0.2c0.2,0.9,0.6,1.3,1.5,1.2s1.7-0.8,1.4-2.2
						c-0.2-1-0.5-1.6-1.2-4.7c-0.2,1.4-0.5,2.7-1,4.1c0.3,0.1,0.5,0.3,0.6,0.6C32.8,31.8,32.6,32.3,32,32.4L32,32.4z"/>
					<path class="st2" d="M41.7,23l-0.2,7.1c0,0.3,0,0.5,0,0.7c0.1,0.6,0.4,0.7,1,0.6c0.8-0.1,1.4-1,1.5-2.1l0.8-0.1
						c-0.6,3.5-2.5,4.3-3.5,4.5c-1.2,0.2-2.3-0.3-2.6-2c-0.1-0.4-0.1-0.8-0.1-1.3l0.2-6.7L41.7,23L41.7,23z"/>
					<path class="st2" d="M49.2,28.3c0,0.2-0.1,0.5-0.2,0.7c-0.2,0.7-0.7,1.3-1.3,1.4c-0.3,0-0.5,0-0.7-0.1c-0.1,0-0.1-0.1-0.2-0.2
						c0-0.1-0.1-0.2-0.1-0.3c0-0.2,0-0.4,0-0.7l0,0l0.1-2.8l0.1-1.6l0.1-1.9l0.6-0.1l0.6-0.1l0-0.8l0,0l-0.2,0l-1,0.2l0.1-3.3
						l-2.9,0.9l0,0.5l0,0l0,1l0,1.4l-0.1,0l-0.5,0.1l0,0.8l0.5-0.1l0.1,0L44,26.9l0,0l-0.1,2.4c0,0.5,0,1,0.1,1.3
						c0,0.2,0.1,0.4,0.2,0.6l0,0c0.3,1,1,1.4,1.8,1.5c0.2,0,0.4,0,0.6,0c0.4-0.1,0.9-0.2,1.4-0.5c0.6-0.4,1.1-1,1.5-1.9
						c0.2-0.5,0.5-1.2,0.6-2L49.2,28.3L49.2,28.3z"/>
					<path class="st2" d="M54.8,20.7l0,1c-0.3-0.9-1.2-0.9-1.8-0.8c-0.4,0.1-0.7,0.2-1,0.3c-0.4,0.2-0.8,0.5-1.1,0.8
						c-0.1,0.1-0.2,0.2-0.3,0.4c-0.6,0.7-1,1.6-1.2,2.5c0,0.1,0,0.1-0.1,0.2c0,0,0,0,0,0c-0.3,1.3-0.3,2.7-0.2,3.8c0,0,0,0.1,0,0.1
						c0.1-0.2,0.1-0.4,0.2-0.7l0.8-0.1c-0.1,0.8-0.3,1.5-0.6,2c0.3,0.7,0.8,1.1,1.3,1.3c0.1,0,0.2,0.1,0.4,0.1c0.1,0,0.1,0,0.2,0
						c0.2,0,0.4,0,0.6,0c0.1,0,0.2,0,0.3,0c0.3-0.1,0.7-0.2,0.9-0.3c0.7-0.4,1.1-1,1.5-1.6c0.1-0.2,0.2-0.3,0.2-0.5
						c0,0,2,4.9-9.7,5.1c0,0-2.4,0.8-1.2,2.9c0,0,5-0.2,8.7-2.5c0.1-0.1,0.2-0.1,0.3-0.2c0,0,0,0,0,0c0.3-0.2,0.7-0.5,1-0.7
						c0,0,0,0,0.1,0c2.7-2.1,3.2-4.8,3.3-6.1c0-0.1,0-0.2,0-0.4v-0.4h0l0.2-6.6L54.8,20.7L54.8,20.7z M54.6,27.4
						c0,1.2-0.7,1.9-1.3,2c0,0,0,0,0,0c-0.3,0-0.7,0.1-1-0.4c-0.1-0.2-0.2-0.5-0.3-0.9l0,0c0,0,0,0,0-0.1c-0.1-0.4-0.1-0.8-0.1-1.2
						l0,0c0-0.4,0-0.9,0.1-1.3c0.1-0.8,0.3-1.6,0.6-2.2c0.3-0.6,0.7-1.1,1.3-1.2c0.6-0.1,0.9,0.4,1,0.6L54.6,27.4L54.6,27.4z"/>
				</g>
				<g>
					<path class="st2" d="M26.5,24L26.4,19l-1.2,5.3l-1.5,0.3l-0.7-5l-1,5.3L21.2,25l1.5-8c-1,0.6-1.5,1.5-1.3,2.8
						c0.1,0.5,0.2,0.6,0.3,0.7c-0.7,0.1-1.2-0.1-1.4-0.8c-0.2-1.4,1.3-3.3,3-3.6c0.3-0.1,0.6,0,0.9,0l0.8,5.8l1.4-6.2l1.6-0.3
						l0.3,8.3L26.5,24L26.5,24z"/>
					<path class="st2" d="M30.9,16.1c0-0.2-0.1-0.3-0.2-0.4c-0.2-0.2-0.5-0.4-0.8-0.3c-0.5,0.1-0.8,0.6-0.7,1s0.5,0.8,1,0.7
						c0.3,0,0.5-0.2,0.7-0.5C30.9,16.4,30.9,16.3,30.9,16.1L30.9,16.1z M31.5,22.1c-0.1,0-0.1,0.1-0.3,0.1c-0.3,0-0.5,0-0.5-0.3
						c0-0.1,0-0.2,0-0.4l0.1-3.9l-1.6,0.3l-0.1,3.7c0,0.3,0,0.5,0,0.7c0.2,0.9,0.8,1.2,1.4,1.1C31.1,23.3,31.6,22.8,31.5,22.1
						L31.5,22.1z"/>
				</g>
				<path class="st2" d="M40.2,22.2c-0.4,0-0.8,0.1-1.3,0.2c-0.3,0-0.4-0.1-0.5-0.4c-0.1-0.8-0.2-1.6-0.3-2.5c0-0.3,0-0.4,0.3-0.5
					c0.8-0.1,1.7-0.2,2.5-0.3c0.3,0,0.4,0.1,0.5,0.4c0.1,0.8,0.2,1.6,0.3,2.5c0,0.3-0.1,0.4-0.4,0.5C41,22.1,40.6,22.1,40.2,22.2
					L40.2,22.2L40.2,22.2z"/>
				<polyline class="st2" points="34.1,18.7 37.3,12.8 37.3,12.7 				"/>
				<path class="st2" d="M59.2,15.3c0,0-1.2,3.7-8.5,3.5l0,0c-1.2-0.6-2.3-1.1-3.5-1.7c-0.1,0-0.1-0.1-0.2-0.1
					c-2.7-1.3-5.3-2.6-8.1-3.9c-1.4,2.8-2.7,5.6-4.1,8.4c-0.6-0.4-1.3-1-1.9-1.8l1.3-2.5c0,0,0,0,0,0c0.1-0.2,0.2-0.4,0.3-0.6
					c0.9-1.8,1.8-3.6,2.7-5.4c0.2-0.3,0.3-0.6,0.4-0.9c0.1-0.2,0.2-0.4,0.5-0.4c1.3,0,2.7,0,4.1,0.1c0.3,0,0.5,0.1,0.5,0.4
					c0.2,0.9,0.7,1.6,1.6,1.9c0.1,0,0.2,0.1,0.3,0.1c0.1,0,0.2,0.1,0.5,0.1c0-0.2-0.1-0.4-0.1-0.6c-0.4-1.2-0.9-2.5-1.3-3.7
					c0-0.1-0.1-0.3-0.1-0.5c0.7,0,1.3,0,1.9,0c0.3,0,0.5,0.1,0.6,0.4c0.2,0.5,0.3,1,0.5,1.5c0.1,0.2,0.3,0.4,0.5,0.5
					c0.2,0.1,0.5,0.2,0.7,0.4h0c0.5,0.3,1.1,0.5,1.7,0.8c0.1,0.1,0.3,0.1,0.5,0.2v0L59.2,15.3L59.2,15.3z"/>
			</g>
		</g>
	</g>
</g>
</svg>
