<?xml version="1.0" encoding="UTF-8"?>
<svg id="Capa_2" data-name="Capa 2" xmlns="http://www.w3.org/2000/svg" viewBox="0 0 89.1 55.46">
  <defs>
    <style>
      .cls-1 {
        fill: #fff;
      }

      .cls-2 {
        fill: #fefdfb;
      }

      .cls-3 {
        fill: #fefbf7;
      }

      .cls-4 {
        fill: #f1b030;
      }

      .cls-5 {
        fill: #fdfaf4;
      }

      .cls-6 {
        fill: #148f62;
      }

      .cls-7 {
        fill: #da3734;
      }

      .cls-8 {
        fill: #fcf5e7;
      }
    </style>
  </defs>
  <g id="Capa_1-2" data-name="Capa 1">
    <g>
      <path class="cls-1" d="M25.21,11.99c.16-.01,.35-.02,.57-.02s.41,.05,.58,.15c.17,.1,.28,.27,.33,.5,.05,.24-.02,.58-.2,1.03-.18,.46-.31,.87-.39,1.22-.08,.35-.13,.65-.16,.88-.03,.28-.03,.53,0,.74-.01,.03-.03,.07-.07,.1-.04,.02-.1,.05-.17,.07s-.19,.04-.34,.06c-.23,.02-.41-.01-.54-.11-.12-.09-.2-.22-.25-.38s-.05-.36-.03-.57c.02-.22,.06-.44,.12-.67,.14-.53,.37-1.15,.71-1.85-.01-.07-.09-.09-.22-.04s-.29,.14-.48,.27-.4,.3-.62,.5c-.23,.2-.44,.43-.64,.66s-.38,.48-.53,.74c-.15,.26-.24,.51-.28,.75-.04,.27,0,.51,.14,.7,.14,.19,.32,.37,.54,.52,.23,.16,.47,.3,.74,.45s.51,.3,.73,.46c.22,.17,.4,.36,.53,.58,.13,.22,.17,.49,.12,.79-.05,.29-.16,.54-.34,.75-.18,.2-.38,.37-.6,.5s-.44,.23-.65,.29c-.21,.06-.37,.1-.48,.11-.07,0-.19,.02-.34,.04-.15,.02-.32,.03-.51,.03-.19,0-.38-.02-.58-.06-.2-.04-.37-.11-.51-.21-.15-.1-.26-.24-.34-.43-.08-.18-.1-.42-.05-.72,.03-.15,.07-.28,.14-.4,.07-.11,.15-.21,.25-.3,.1-.08,.21-.15,.33-.2,.12-.05,.23-.09,.35-.12,.28-.07,.59-.1,.93-.08-.09,.05-.18,.12-.28,.21-.1,.09-.19,.18-.27,.29s-.16,.2-.22,.3-.1,.19-.11,.26c-.03,.18,0,.34,.07,.46,.08,.12,.18,.21,.32,.26s.29,.07,.46,.06,.33-.06,.49-.13c.16-.07,.3-.18,.41-.32,.12-.14,.19-.31,.23-.51,.05-.29,.04-.54-.02-.74-.06-.2-.16-.37-.3-.51s-.29-.26-.48-.35c-.19-.09-.38-.18-.57-.26s-.39-.17-.58-.25c-.19-.08-.35-.19-.49-.32-.14-.13-.24-.28-.31-.45-.07-.18-.08-.39-.04-.65,.03-.23,.12-.47,.25-.71,.13-.24,.29-.48,.48-.71s.4-.46,.64-.69c.23-.23,.47-.44,.71-.63,.56-.47,1.18-.92,1.87-1.36Z"/>
      <path class="cls-1" d="M30.44,16.3c-.12,.62-.3,1.15-.54,1.58-.24,.43-.49,.78-.76,1.05-.27,.27-.53,.47-.79,.59-.26,.12-.46,.19-.61,.21s-.33,0-.54-.06c-.21-.06-.4-.17-.57-.35-.17-.18-.29-.44-.37-.78-.07-.34-.05-.78,.08-1.34,.07-.3,.15-.57,.24-.8,.09-.23,.19-.44,.29-.61,.1-.17,.2-.32,.31-.45s.21-.23,.31-.32c.23-.2,.48-.32,.74-.37,.35,0,.62,.05,.82,.17s.33,.26,.4,.44c.07,.18,.09,.38,.05,.6-.03,.22-.11,.44-.21,.65-.11,.21-.24,.41-.39,.59s-.32,.31-.49,.4c-.24,.14-.46,.21-.65,.21-.19,0-.35-.01-.48-.05-.04,.2-.06,.38-.04,.54s.05,.29,.11,.4c.06,.11,.13,.19,.22,.25,.09,.06,.18,.08,.28,.07,.17-.02,.35-.08,.54-.2,.19-.12,.37-.27,.55-.45s.35-.38,.52-.59,.32-.41,.45-.61c.13-.19,.24-.36,.32-.51,.08-.15,.13-.25,.16-.3,.01,0,.03-.01,.04-.01,.02,0,.03,.02,.04,.08Zm-3.04,.88s0,.02,0,.03c0,0,0,.01,0,.03,.11,.02,.24,0,.39-.06,.15-.06,.32-.19,.51-.38,.21-.21,.34-.4,.4-.56s.08-.29,.06-.4c-.02-.12-.07-.22-.17-.3-.12,0-.24,.06-.37,.17-.11,.1-.24,.27-.38,.49-.14,.22-.28,.55-.44,.99Z"/>
      <path class="cls-1" d="M33.73,16.03c0,.06-.03,.18-.09,.36-.06,.18-.14,.39-.24,.64s-.21,.5-.34,.77c-.12,.27-.25,.51-.39,.74s-.26,.42-.39,.57c-.13,.15-.24,.23-.34,.24h-.06c-.29,.04-.51-.01-.66-.14-.15-.13-.24-.31-.29-.54-.05-.23-.05-.49-.02-.77,.03-.29,.08-.56,.15-.83,.07-.27,.14-.51,.22-.73,.08-.22,.14-.37,.18-.47,.04-.1,.06-.2,.05-.27,0-.08-.02-.14-.05-.2-.03-.06-.07-.11-.11-.15s-.1-.07-.15-.1c-.13,.31-.28,.66-.47,1.03-.18,.37-.37,.73-.57,1.09-.2,.35-.4,.69-.59,.99s-.37,.56-.52,.76c-.05,.02-.09,.03-.13,.04-.03,0-.07,.01-.1,0-.03,0-.06-.03-.08-.06l-.11-.25c.3-.55,.57-1.07,.82-1.58,.1-.22,.21-.44,.32-.67,.11-.23,.21-.46,.3-.68,.09-.22,.17-.43,.23-.63,.07-.2,.11-.38,.14-.53-.12-.08-.18-.16-.18-.26,0-.1,.02-.2,.06-.29,.04-.11,.12-.22,.21-.33,.17-.06,.31-.07,.43-.03,.11,.03,.2,.08,.27,.15,.08,.07,.14,.17,.19,.29-.14,.17-.17,.28-.08,.35,.09,.07,.36,.11,.8,.13,.16,0,.28,.03,.38,.07s.17,.09,.23,.15c.05,.06,.09,.13,.1,.2s.02,.15,0,.22c-.02,.18-.1,.38-.23,.61-.14,.27-.25,.52-.32,.76-.08,.24-.13,.46-.17,.65-.03,.19-.05,.37-.05,.52s0,.27,.01,.36c.09-.03,.18-.09,.28-.2,.1-.1,.2-.22,.3-.37,.1-.14,.2-.29,.3-.46s.19-.33,.27-.48,.15-.3,.21-.43c.06-.13,.1-.23,.13-.3,.03,0,.05-.01,.08,0,.05,0,.08,.04,.09,.08Z"/>
      <path class="cls-1" d="M36.89,14.14c-.01,.12-.04,.32-.09,.6-.05,.28-.13,.61-.23,.98-.1,.37-.22,.75-.37,1.14-.15,.39-.32,.76-.52,1.09-.2,.33-.42,.61-.67,.83s-.53,.35-.83,.37c-.2,.02-.36-.04-.49-.18-.12-.13-.22-.31-.28-.54s-.1-.49-.12-.78-.02-.59,0-.91c.03-.72,.14-1.55,.32-2.49,.23-.12,.43-.17,.58-.15,.16,.02,.28,.07,.38,.14,.1,.07,.16,.15,.2,.24,.04,.08,.05,.13,.05,.15,0,0-.03,.11-.08,.3s-.09,.42-.15,.7c-.06,.27-.11,.57-.17,.89-.05,.32-.09,.61-.11,.88s-.02,.49,0,.66c.03,.17,.09,.25,.2,.23,.11-.02,.23-.12,.35-.3s.24-.42,.35-.7c.11-.28,.22-.58,.33-.91,.11-.33,.2-.65,.28-.95,.08-.3,.14-.57,.18-.81,.04-.24,.06-.4,.06-.49,.12-.11,.22-.17,.32-.18,.09-.01,.18,0,.26,.03,.08,.04,.15,.1,.23,.18Z"/>
      <path class="cls-1" d="M39.35,15.5c0,.06-.03,.18-.1,.37s-.15,.4-.25,.64c-.1,.25-.21,.5-.34,.77s-.26,.52-.39,.75c-.14,.23-.27,.42-.39,.58-.13,.16-.24,.24-.34,.25h-.02c-.29,.04-.5-.04-.63-.24s-.21-.46-.23-.8c-.02-.34,0-.71,.06-1.12,.07-.41,.14-.82,.24-1.2s.19-.74,.29-1.04,.18-.52,.25-.64c.15,0,.29,0,.42,.02,.12,.02,.23,.06,.34,.12,.11,.05,.2,.14,.26,.25-.12,.48-.23,.93-.33,1.35-.04,.19-.09,.38-.13,.57-.04,.19-.08,.38-.11,.56s-.06,.35-.08,.51c-.02,.16-.03,.3-.03,.41,.13-.09,.26-.24,.41-.44,.14-.2,.28-.42,.41-.64,.13-.22,.24-.44,.34-.64,.1-.2,.17-.36,.2-.45,.03,0,.05-.01,.08,0,.05,0,.08,.03,.09,.07Zm-1.32-2.84c-.08-.07-.11-.18-.08-.33s.07-.31,.13-.47c.06-.18,.16-.37,.28-.58,.15-.07,.3-.11,.46-.11,.16,0,.29,.03,.41,.09,.12,.05,.2,.12,.26,.2,.05,.08,.06,.16,0,.23-.09,.14-.18,.31-.27,.51-.09,.2-.17,.38-.24,.54-.03,.08-.09,.13-.16,.16-.07,.03-.15,.04-.25,.03-.09-.01-.19-.04-.28-.08-.09-.04-.18-.1-.26-.17Z"/>
      <path class="cls-1" d="M42.8,15.21c0,.05-.03,.16-.08,.32-.05,.16-.12,.34-.2,.55s-.18,.43-.29,.67-.22,.47-.33,.69c-.12,.21-.25,.41-.41,.58-.14,.15-.31,.28-.52,.41s-.44,.19-.71,.2c-.11,0-.27,0-.46-.05-.19-.04-.37-.14-.54-.31-.17-.17-.29-.42-.37-.76-.08-.34-.08-.8,.02-1.38,.1-.58,.24-1.04,.44-1.38,.2-.34,.39-.6,.59-.78,.23-.21,.48-.35,.74-.43,.31-.01,.57,0,.77,.06,.09,.03,.17,.06,.25,.1,.07,.04,.13,.1,.18,.18s.07,.16,.07,.27-.03,.24-.09,.38c-.1,.22-.19,.39-.3,.49-.1,.1-.2,.17-.29,.2-.11,.04-.21,.04-.3,.03,.1-.12,.19-.24,.25-.36,.06-.1,.1-.21,.12-.32,.02-.12,0-.23-.05-.33-.18-.02-.36,.04-.52,.17-.15,.11-.29,.3-.43,.56-.14,.27-.25,.67-.33,1.19-.03,.23-.05,.42-.05,.59,0,.17,0,.31,.03,.42s.05,.2,.09,.28c.04,.07,.09,.12,.14,.16,.03,.02,.06,.04,.11,.06,.04,.02,.1,.03,.17,.03,.07,0,.16-.01,.25-.05,.1-.04,.21-.1,.33-.18,.12-.08,.26-.21,.42-.37,.12-.13,.24-.29,.36-.49,.12-.19,.23-.38,.34-.58s.2-.37,.27-.53c.08-.16,.13-.29,.15-.37,.03,0,.06-.01,.09,0,.05,0,.08,.03,.08,.07Z"/>
      <path class="cls-1" d="M44.96,15.02c0,.06-.03,.18-.1,.37s-.15,.4-.25,.64c-.1,.25-.21,.5-.34,.77s-.26,.52-.39,.75c-.14,.23-.27,.42-.39,.58-.13,.16-.24,.24-.34,.25h-.02c-.29,.04-.5-.04-.63-.24s-.21-.46-.23-.8c-.02-.34,0-.71,.06-1.12,.07-.41,.14-.82,.24-1.2s.19-.74,.29-1.04,.18-.52,.25-.64c.15,0,.29,0,.42,.02,.12,.02,.23,.06,.34,.12,.11,.05,.2,.14,.26,.25-.12,.48-.23,.93-.33,1.35-.04,.19-.09,.38-.13,.57-.04,.19-.08,.38-.11,.56s-.06,.35-.08,.51c-.02,.16-.03,.3-.03,.41,.13-.09,.26-.24,.41-.44,.14-.2,.28-.42,.41-.64,.13-.22,.24-.44,.34-.64,.1-.2,.17-.36,.2-.45,.03,0,.05-.01,.08,0,.05,0,.08,.03,.09,.07Zm-1.32-2.84c-.08-.07-.11-.18-.08-.33s.07-.31,.13-.47c.06-.18,.16-.37,.28-.58,.15-.07,.3-.11,.46-.11,.16,0,.29,.03,.41,.09,.12,.05,.2,.12,.26,.2,.05,.08,.06,.16,0,.23-.09,.14-.18,.31-.27,.51-.09,.2-.17,.38-.24,.54-.03,.08-.09,.13-.16,.16-.07,.03-.15,.04-.25,.03-.09-.01-.19-.04-.28-.08-.09-.04-.18-.1-.26-.17Z"/>
      <path class="cls-1" d="M50.12,15.88s-.02,.09-.05,.23-.07,.31-.13,.52-.15,.43-.26,.66c-.11,.24-.24,.46-.4,.67-.16,.21-.35,.39-.57,.53-.22,.15-.47,.23-.76,.26-.4,.03-.72-.03-.96-.21-.24-.17-.42-.39-.55-.64-.18,.14-.39,.23-.62,.27-.34,.06-.61,.03-.81-.09-.2-.12-.35-.28-.45-.48-.1-.2-.15-.43-.17-.69-.01-.26,0-.49,.03-.71,.06-.42,.14-.79,.24-1.11,.09-.32,.2-.59,.31-.83s.24-.43,.37-.58c.13-.16,.27-.29,.42-.39,.07-.05,.14-.09,.21-.12,.07-.03,.13-.05,.19-.07,.07-.02,.12-.03,.17-.03,.34-.06,.61-.04,.81,.04,.2,.08,.35,.2,.46,.37s.17,.36,.2,.58,.03,.44,.03,.65c-.01,.22-.06,.52-.13,.88s-.18,.72-.34,1.08c0,.09,.02,.2,.04,.33s.06,.25,.12,.37c.06,.12,.14,.21,.24,.29s.23,.11,.39,.1c.21-.02,.39-.1,.56-.25s.3-.32,.42-.51c.11-.2,.21-.39,.27-.59,.07-.2,.11-.36,.14-.48,.03-.15,.04-.29,.04-.43,0-.13-.01-.25-.03-.35-.02-.1-.05-.18-.1-.23-.04-.05-.1-.08-.16-.07-.07,0-.14,.05-.21,.12-.07,.08-.15,.17-.21,.28-.07,.11-.13,.23-.18,.35-.05,.12-.08,.23-.09,.32-.06,.01-.12,.01-.17,0-.05,0-.1-.03-.15-.06-.05-.03-.09-.08-.13-.16,.1-.29,.22-.55,.36-.78,.12-.2,.26-.38,.42-.55s.34-.26,.55-.28,.35,.03,.46,.15c.1,.12,.18,.27,.22,.46,.04,.19,.05,.39,.04,.61s-.03,.42-.06,.6Zm-4.44,1.72c.09-.01,.18-.06,.27-.13s.17-.17,.26-.3c-.02-.12-.04-.23-.05-.34l-.03-.3c-.02-.09-.03-.17-.01-.23,.03-.1,.08-.19,.17-.27,.09-.09,.23-.17,.43-.26,.04-.15,.08-.3,.11-.45,.03-.16,.06-.32,.08-.49,.05-.4,.05-.67,0-.83s-.13-.25-.24-.28c-.18,0-.34,.11-.48,.32-.14,.2-.26,.45-.37,.75s-.19,.61-.25,.95c-.06,.34-.1,.65-.11,.93-.02,.28,0,.52,.03,.7,.04,.18,.1,.27,.18,.25Z"/>
      <path class="cls-1" d="M59.08,15.03s-.02,.09-.05,.24c-.02,.14-.07,.32-.13,.52-.06,.2-.15,.43-.26,.66s-.24,.46-.4,.67c-.16,.21-.35,.39-.57,.53s-.47,.23-.76,.26c-.4,.03-.72,0-.94-.13-.23-.12-.39-.27-.5-.45-.11-.18-.17-.38-.2-.59-.03-.21-.04-.39-.04-.54,0-.11,0-.23,0-.36,0-.12,.01-.26,.04-.39-.12,.23-.25,.47-.4,.71s-.29,.46-.45,.65-.31,.35-.48,.47c-.16,.12-.32,.18-.47,.18-.14,0-.25-.04-.33-.12-.08-.08-.15-.19-.2-.32-.05-.13-.08-.28-.1-.45-.02-.17-.02-.34-.02-.51,0-.41,.06-.88,.16-1.4,.09-.39,.22-.75,.39-1.09,.08-.14,.16-.28,.26-.42s.21-.26,.34-.38c.13-.12,.27-.22,.42-.3,.15-.08,.33-.15,.52-.18,.11,0,.22,0,.34,.03,.1,.03,.2,.09,.32,.17,.11,.08,.22,.21,.32,.38,0-.05,.02-.09,.03-.12,.01-.03,.03-.07,.04-.09,.01-.03,.02-.06,.03-.08,.18-.07,.33-.09,.46-.07,.13,.02,.24,.06,.32,.12,.1,.07,.18,.15,.25,.26-.27,.75-.46,1.35-.56,1.78s-.16,.76-.17,.98c0,0,0,.05,0,.12s0,.15,.02,.25c.01,.1,.03,.2,.07,.31,.03,.11,.08,.21,.14,.3s.13,.16,.23,.22c.09,.06,.21,.08,.35,.07,.21-.02,.39-.1,.56-.25s.3-.32,.42-.51c.11-.2,.2-.39,.27-.59,.06-.2,.11-.36,.13-.48,.05-.31,.05-.57,.02-.79-.04-.22-.12-.32-.25-.31-.06,0-.13,.05-.21,.12-.08,.08-.15,.17-.21,.28-.06,.11-.12,.23-.18,.35-.05,.12-.09,.23-.1,.32-.06,.01-.12,.01-.17,0-.05,0-.1-.03-.15-.06-.05-.03-.09-.08-.13-.16,.1-.29,.22-.55,.36-.78,.12-.2,.26-.38,.41-.55,.16-.17,.34-.26,.55-.28s.36,.03,.46,.15c.11,.12,.18,.27,.22,.46,.04,.19,.05,.39,.04,.6-.01,.22-.03,.42-.06,.6Zm-4.82,1.29c.27-.33,.51-.66,.72-.99s.37-.61,.5-.87c.02-.09,.04-.18,.06-.26,.02-.09,.04-.17,.07-.26-.02-.11-.05-.23-.09-.39-.04-.15-.09-.29-.15-.41-.06-.12-.13-.21-.21-.25s-.17,0-.26,.11c-.08,.09-.17,.27-.27,.52-.1,.25-.2,.53-.3,.84-.1,.31-.18,.61-.25,.92-.07,.31-.12,.57-.14,.79-.02,.21,0,.36,.04,.43s.15,.01,.29-.17Z"/>
    </g>
    <g>
      <path class="cls-7" d="M12.1,18.14c1.16-.12,2.29,.01,3.41,.39s2.06,.99,2.83,1.85c.77,.86,1.28,1.97,1.52,3.33s.09,2.97-.49,4.83c-.4,1.24-.88,2.37-1.45,3.38-.57,1.01-1.2,1.93-1.87,2.73-.67,.81-1.38,1.51-2.11,2.11s-1.46,1.11-2.17,1.52c-.71,.41-1.4,.73-2.05,.96s-1.23,.37-1.72,.42c-.74,.07-1.39,.05-1.94-.06-.56-.11-1.01-.29-1.38-.52-.36-.23-.63-.49-.8-.78s-.22-.58-.17-.86,.11-.46,.17-.54c.06-.08,.12-.12,.18-.13,.07,0,.14,.05,.21,.13,.65,.84,1.5,1.23,2.55,1.17,1.05-.06,2.18-.49,3.4-1.28-.08,0-.2,0-.34,0-.15,0-.31,0-.49-.01-.34,0-.6-.04-.77-.13s-.3-.19-.37-.32c-.08-.12-.11-.26-.09-.43,0-2.06,.13-3.97,.36-5.73,.24-1.76,.5-3.29,.8-4.58,.33-1.53,.72-2.91,1.14-4.15,.04-.12,.17-.2,.39-.26,.22-.05,.63-.02,1.23,.1,.3,.05,.51,.14,.65,.28,.13,.13,.22,.26,.27,.39,.05,.16,.06,.32,.02,.48-.23,.82-.45,1.72-.66,2.69-.21,.98-.4,1.97-.57,2.98s-.32,1.99-.45,2.94-.25,1.81-.34,2.57-.17,1.38-.21,1.87c-.05,.49-.07,.78-.06,.86v.1c.13-.08,.22-.14,.28-.2,1.37-1.03,2.58-2.35,3.63-3.97,1.05-1.61,1.84-3.62,2.38-6.03,.18-.8,.23-1.55,.14-2.25s-.28-1.33-.58-1.88-.68-1.01-1.16-1.39-1.01-.65-1.59-.8c-.58-.15-1.21-.18-1.87-.09-.67,.09-1.34,.33-2.04,.7-1.05,.59-1.83,1.19-2.36,1.79-.53,.61-.92,1.15-1.16,1.65-.28,.58-.43,1.14-.44,1.67,.06,.14,.06,.23-.02,.27-.03,.04-.07,.05-.12,.04-.49-.03-.85-.22-1.07-.57-.22-.35-.34-.77-.36-1.25s.06-.99,.23-1.51c.17-.52,.39-.97,.68-1.36,.21-.3,.48-.6,.79-.92,.31-.31,.72-.61,1.22-.9,.51-.29,1.14-.54,1.91-.76,.76-.22,1.73-.39,2.88-.51Z"/>
      <path class="cls-7" d="M30.39,27.66c.13-.01,.23,0,.3,.04,.07,.03,.11,.09,.13,.18,.02,.1-.02,.24-.12,.43-.31,1.15-.68,2.16-1.13,3.03-.19,.38-.4,.74-.63,1.09-.23,.35-.48,.66-.75,.93-.27,.27-.55,.48-.86,.63-.31,.15-.64,.21-.98,.16-.37,.56-.78,1.02-1.24,1.39-.46,.37-.99,.61-1.6,.72-.81,.15-1.46,.08-1.94-.2-.48-.28-.84-.66-1.09-1.14-.24-.49-.38-1.04-.42-1.65-.04-.61-.02-1.18,.06-1.71,.14-1.02,.32-1.91,.54-2.68s.46-1.43,.73-2c.27-.56,.56-1.03,.88-1.41,.32-.38,.65-.69,1-.94,.17-.13,.33-.23,.49-.29,.16-.06,.31-.12,.43-.17,.14-.05,.28-.08,.4-.09,.81-.15,1.46-.13,1.94,.06,.48,.19,.85,.48,1.11,.88,.26,.4,.43,.86,.5,1.39,.08,.53,.11,1.04,.09,1.55-.02,.57-.13,1.3-.3,2.2-.18,.89-.46,1.79-.84,2.69,.29-.06,.59-.29,.91-.69,.32-.4,.62-.86,.92-1.39s.57-1.07,.84-1.62c.26-.55,.47-1,.63-1.38Zm-7.22,7.22c.27-.04,.55-.21,.83-.51,.28-.3,.54-.69,.78-1.19-.16-.18-.31-.38-.45-.6-.14-.22-.2-.46-.18-.7,.02-.25,.13-.49,.35-.73,.22-.24,.59-.48,1.12-.71,.18-.68,.32-1.44,.43-2.28,.12-.95,.11-1.62-.03-2.01-.14-.38-.34-.6-.6-.66-.44,.03-.82,.29-1.15,.77-.33,.49-.62,1.09-.85,1.8-.24,.71-.42,1.48-.56,2.28-.14,.81-.22,1.55-.24,2.24-.02,.68,.01,1.24,.11,1.68,.09,.44,.24,.64,.45,.6Z"/>
      <path class="cls-7" d="M46.65,27.07c-.14,.44-.33,.97-.56,1.57-.23,.6-.49,1.23-.79,1.88-.29,.65-.6,1.26-.92,1.81-.32,.55-.63,1.01-.93,1.38s-.58,.57-.82,.59c-.05,0-.08,.02-.09,.03-.69,.1-1.19-.07-1.51-.52-.32-.45-.52-1.05-.59-1.81s-.05-1.62,.07-2.58c.12-.95,.29-1.89,.48-2.82-.33,.47-.64,.98-.94,1.54-.3,.56-.58,1.11-.83,1.67s-.49,1.07-.7,1.57-.38,.91-.51,1.27c-.07,.28-.18,.57-.33,.86-.09,.24-.18,.46-.26,.67-.08,.21-.16,.43-.24,.67-.02,0-.03,0-.05,.02-.02,.01-.03,.02-.05,.02-.66,.07-1.15-.13-1.47-.58-.32-.45-.52-1.06-.59-1.8s-.06-1.59,.05-2.54c.11-.94,.26-1.86,.47-2.76-.3,.42-.59,.89-.88,1.4-.29,.52-.57,1.04-.84,1.57-.27,.53-.53,1.06-.78,1.59s-.47,1.01-.67,1.45c-.12,.37-.26,.73-.41,1.09s-.29,.73-.41,1.11c-.03,0-.05,0-.06,.02,0,0-.02,.01-.04,.02-.64,.06-1.11-.15-1.42-.65-.3-.5-.48-1.14-.53-1.94s-.02-1.69,.1-2.69,.28-1.95,.48-2.87c.2-.92,.41-1.75,.63-2.47,.22-.73,.4-1.24,.55-1.53,.36,0,.69,.02,1.01,.07,.28,.05,.55,.14,.82,.27,.26,.13,.47,.32,.63,.58-.18,.76-.37,1.54-.55,2.32-.16,.66-.32,1.38-.47,2.15-.15,.77-.27,1.49-.37,2.17,.64-1.54,1.24-2.83,1.81-3.86s1.05-1.86,1.45-2.51c.48-.74,.91-1.33,1.31-1.76,.36,0,.69,.02,1,.07,.28,.05,.55,.14,.82,.27,.26,.13,.47,.32,.63,.58-.12,.45-.23,.92-.34,1.42-.1,.43-.21,.92-.32,1.46-.11,.54-.22,1.09-.35,1.65,.56-1.08,1.07-2,1.55-2.76s.9-1.38,1.28-1.86c.43-.56,.82-1.02,1.18-1.38,.36,0,.69,.02,1.01,.07,.28,.05,.55,.14,.82,.27,.26,.13,.47,.32,.63,.58-.28,1.15-.52,2.23-.75,3.26-.1,.45-.2,.91-.29,1.37-.09,.46-.18,.92-.25,1.35s-.14,.85-.18,1.22c-.04,.38-.07,.7-.07,.98,.3-.23,.62-.58,.96-1.07,.34-.49,.66-1,.97-1.54,.3-.54,.57-1.06,.81-1.55,.23-.49,.39-.86,.46-1.09l.41,.15c0,.15-.07,.44-.22,.89Z"/>
      <path class="cls-7" d="M52.03,25.67c0,.15-.08,.44-.23,.89s-.34,.96-.58,1.55c-.23,.59-.5,1.21-.8,1.87s-.61,1.26-.93,1.82c-.32,.56-.63,1.03-.93,1.41-.3,.38-.58,.58-.82,.6h-.05c-.69,.11-1.19-.08-1.52-.55s-.52-1.11-.58-1.91c-.06-.8-.02-1.71,.12-2.7,.14-1,.32-1.96,.54-2.9s.44-1.78,.67-2.51,.43-1.25,.58-1.54c.35-.02,.69,0,1,.05,.28,.05,.55,.14,.82,.27,.26,.13,.47,.32,.63,.58-.27,1.15-.52,2.23-.75,3.26-.1,.45-.2,.91-.29,1.37-.09,.46-.18,.92-.25,1.35s-.14,.85-.18,1.24c-.04,.39-.07,.72-.07,.99,.3-.22,.62-.59,.96-1.08,.34-.5,.66-1.02,.96-1.56,.3-.54,.57-1.06,.81-1.55,.24-.49,.39-.86,.46-1.09,.06-.02,.13-.03,.19-.02,.13,.02,.2,.08,.21,.17Z"/>
      <path class="cls-7" d="M60.3,24.87c0,.13-.06,.38-.18,.76-.12,.38-.27,.82-.46,1.32s-.42,1.05-.67,1.63-.51,1.13-.78,1.66c-.27,.51-.6,.98-.98,1.41-.34,.36-.75,.69-1.23,1s-1.04,.48-1.69,.51c-.27,.03-.64,0-1.11-.1-.46-.09-.9-.34-1.3-.73-.4-.4-.71-1-.92-1.81-.21-.81-.21-1.91,0-3.31,.22-1.4,.56-2.51,1.02-3.34,.46-.82,.93-1.46,1.41-1.89,.55-.51,1.14-.86,1.77-1.05,.74-.04,1.36,0,1.86,.13,.22,.06,.42,.14,.6,.24,.18,.1,.32,.24,.43,.42s.16,.39,.17,.65-.06,.57-.2,.92c-.22,.54-.45,.93-.7,1.18-.24,.24-.47,.41-.69,.5-.25,.09-.49,.11-.72,.07,.25-.28,.44-.57,.59-.86,.14-.24,.23-.5,.29-.78,.05-.28,.01-.54-.13-.79-.44-.04-.86,.1-1.25,.42-.35,.26-.69,.72-1.02,1.37-.33,.65-.58,1.61-.75,2.87-.08,.54-.11,1.02-.11,1.42,0,.41,.02,.74,.08,1.01s.13,.49,.22,.66c.1,.17,.21,.3,.33,.38,.07,.04,.15,.09,.26,.14,.1,.04,.24,.06,.41,.07,.17,0,.37-.03,.61-.12,.23-.09,.5-.24,.8-.44,.3-.21,.63-.51,.99-.9,.28-.32,.56-.71,.84-1.18,.29-.47,.55-.93,.8-1.39s.46-.89,.64-1.29c.18-.4,.3-.7,.36-.9,.08-.02,.15-.03,.22-.02,.13,.02,.19,.08,.19,.18Z"/>
      <path class="cls-7" d="M65.48,24.33c0,.15-.08,.44-.23,.89s-.34,.96-.58,1.55c-.23,.59-.5,1.21-.8,1.87s-.61,1.26-.93,1.82c-.32,.56-.63,1.03-.93,1.41-.3,.38-.58,.58-.82,.6h-.05c-.69,.11-1.19-.08-1.52-.55s-.52-1.11-.58-1.91c-.06-.8-.02-1.71,.12-2.7,.14-1,.32-1.96,.54-2.9s.44-1.78,.67-2.51,.43-1.25,.58-1.54c.35-.02,.69,0,1,.05,.28,.05,.55,.14,.82,.27,.26,.13,.47,.32,.63,.58-.27,1.15-.52,2.23-.75,3.26-.1,.45-.2,.91-.29,1.37-.09,.46-.18,.92-.25,1.35s-.14,.85-.18,1.24c-.04,.39-.07,.72-.07,.99,.3-.22,.62-.59,.96-1.08,.34-.5,.66-1.02,.96-1.56,.3-.54,.57-1.06,.81-1.55,.24-.49,.39-.86,.46-1.09,.06-.02,.13-.03,.19-.02,.13,.02,.2,.08,.21,.17Zm-3.26-6.78c-.19-.16-.27-.42-.21-.79s.15-.75,.29-1.14c.15-.44,.37-.91,.66-1.41,.36-.18,.72-.27,1.09-.27,.37,0,.7,.07,.98,.19,.28,.13,.49,.28,.62,.47,.13,.19,.14,.37,.03,.54-.21,.35-.42,.76-.63,1.23-.21,.48-.4,.91-.55,1.3-.08,.19-.2,.32-.37,.39-.17,.07-.37,.1-.59,.07-.22-.03-.45-.09-.68-.19-.23-.1-.44-.24-.64-.41Z"/>
      <path class="cls-7" d="M70.83,23.87c0,.15-.07,.44-.22,.87s-.33,.94-.55,1.52c-.23,.57-.49,1.18-.78,1.83-.29,.65-.59,1.24-.9,1.79s-.62,1.02-.92,1.39c-.3,.38-.57,.6-.81,.65-.61,.06-1.1,0-1.48-.18-.38-.18-.63-.61-.77-1.29-.14-.68-.16-1.65-.07-2.91s.29-2.95,.6-5.04c.29-2.09,.61-3.78,.94-5.06,.33-1.28,.65-2.27,.93-2.97,.34-.81,.67-1.39,1-1.73,.51-.05,.91,0,1.18,.16s.49,.34,.64,.56c.17,.24,.27,.53,.3,.85-.55,1.81-1.02,3.47-1.4,5-.38,1.52-.7,2.91-.94,4.15s-.43,2.34-.56,3.31c-.13,.96-.23,1.79-.29,2.48l.09-.06c.19-.05,.41-.2,.65-.44s.49-.54,.74-.89c.25-.35,.49-.73,.73-1.14,.23-.41,.45-.81,.66-1.2s.38-.74,.51-1.07c.14-.33,.24-.58,.3-.75,.06-.02,.13-.03,.19-.02,.13,.02,.2,.09,.21,.2Z"/>
      <path class="cls-7" d="M76.01,23.28c0,.15-.08,.44-.23,.89s-.34,.96-.58,1.55c-.23,.59-.5,1.21-.8,1.87s-.61,1.26-.93,1.82c-.32,.56-.63,1.03-.93,1.41-.3,.38-.58,.58-.82,.6h-.05c-.69,.11-1.19-.08-1.52-.55s-.52-1.11-.58-1.91c-.06-.8-.02-1.71,.12-2.7,.14-1,.32-1.96,.54-2.9s.44-1.78,.67-2.51,.43-1.25,.58-1.54c.35-.02,.69,0,1,.05,.28,.05,.55,.14,.82,.27,.26,.13,.47,.32,.63,.58-.27,1.15-.52,2.23-.75,3.26-.1,.45-.2,.91-.29,1.37-.09,.46-.18,.92-.25,1.35s-.14,.85-.18,1.24c-.04,.39-.07,.72-.07,.99,.3-.22,.62-.59,.96-1.08,.34-.5,.66-1.02,.96-1.56,.3-.54,.57-1.06,.81-1.55,.24-.49,.39-.86,.46-1.09,.06-.02,.13-.03,.19-.02,.13,.02,.2,.08,.21,.17Zm-3.26-6.78c-.19-.16-.27-.42-.21-.79s.15-.75,.29-1.14c.15-.44,.37-.91,.66-1.41,.36-.18,.72-.27,1.09-.27,.37,0,.7,.07,.98,.19,.28,.13,.49,.28,.62,.47,.13,.19,.14,.37,.03,.54-.21,.35-.42,.76-.63,1.23-.21,.48-.4,.91-.55,1.3-.08,.19-.2,.32-.37,.39-.17,.07-.37,.1-.59,.07-.22-.03-.45-.09-.68-.19-.23-.1-.44-.24-.64-.41Z"/>
      <path class="cls-7" d="M88.45,25.19s-.05,.22-.1,.56-.16,.76-.3,1.26-.34,1.03-.59,1.6c-.25,.57-.57,1.11-.95,1.61-.38,.51-.83,.94-1.36,1.3-.52,.36-1.13,.57-1.82,.64-.96,.1-1.73-.06-2.31-.46-.58-.4-1.02-.92-1.35-1.53-.44,.34-.93,.56-1.49,.66-.81,.15-1.46,.08-1.94-.19-.48-.28-.84-.66-1.09-1.15-.24-.49-.38-1.04-.42-1.65-.04-.61-.02-1.18,.06-1.71,.14-1.02,.32-1.91,.53-2.68,.22-.77,.46-1.43,.73-2s.56-1.03,.87-1.41c.31-.38,.64-.69,.99-.94,.16-.13,.33-.23,.51-.29,.17-.07,.32-.12,.45-.17,.16-.05,.29-.08,.41-.09,.81-.15,1.46-.12,1.94,.06,.48,.19,.85,.48,1.11,.88s.42,.86,.49,1.39,.1,1.05,.08,1.55c-.03,.54-.12,1.24-.28,2.11s-.42,1.73-.79,2.6c.02,.21,.06,.47,.11,.78s.15,.61,.3,.88c.14,.28,.33,.51,.58,.7s.56,.26,.95,.22c.5-.05,.94-.25,1.33-.61s.71-.77,.98-1.24c.27-.47,.48-.95,.64-1.43,.15-.48,.26-.87,.31-1.16,.06-.36,.09-.71,.08-1.03,0-.32-.04-.61-.08-.84-.05-.24-.13-.42-.24-.55-.11-.13-.24-.18-.38-.17-.16,.02-.33,.12-.5,.31-.18,.19-.34,.42-.5,.68-.16,.27-.3,.55-.41,.84-.12,.3-.19,.55-.22,.76-.14,.03-.28,.03-.41,0-.12-.02-.23-.07-.36-.15-.12-.08-.22-.2-.31-.37,.24-.69,.52-1.32,.83-1.88,.28-.48,.61-.92,.99-1.34s.82-.65,1.32-.7,.85,.07,1.11,.35c.25,.28,.43,.65,.54,1.1,.1,.45,.14,.94,.12,1.46s-.07,1-.14,1.45Zm-10.63,4.26c.22-.04,.44-.15,.65-.33s.41-.42,.61-.72c-.06-.29-.1-.56-.13-.83l-.07-.71c-.06-.22-.07-.41-.03-.56,.06-.23,.19-.45,.41-.66,.22-.21,.56-.42,1.02-.63,.09-.35,.18-.71,.26-1.1,.08-.38,.13-.78,.17-1.19,.12-.95,.11-1.62-.03-2.01s-.33-.6-.58-.66c-.43,.03-.82,.28-1.15,.77-.33,.49-.62,1.09-.87,1.8s-.43,1.48-.56,2.28c-.13,.81-.21,1.55-.24,2.24-.03,.68,0,1.25,.1,1.68,.09,.44,.24,.64,.45,.6Z"/>
    </g>
    <g>
      <path class="cls-2" d="M83.64,17.34c.56-1.8,1.2-3.16,2.32-4.27,.66-.66,1.44-.78,2.27-.51,.6,.2,.82,.72,.86,1.33,.06,.89-.39,1.52-1.14,1.83-1.31,.56-2.67,1.01-4.31,1.61Z"/>
      <path class="cls-3" d="M84.17,18.2c1.14-.54,2.04-.87,3.04-.82,.83,.05,1.43,.48,1.34,1.32-.1,.9-.81,1.09-1.62,.9-.96-.22-1.72-.8-2.76-1.4Z"/>
    </g>
    <g>
      <path class="cls-5" d="M4.82,30.29c-.04,1.53-.5,2.77-1.21,3.91-.44,.71-1.1,1.11-1.99,.96-.54-.09-.89-.44-1.04-.95-.26-.86,.11-1.53,.77-2.04,1-.78,2.12-1.37,3.48-1.88Z"/>
      <path class="cls-8" d="M3.89,29.14c-.06,.31-.05,.41-.09,.44-.99,.72-2.01,1.49-3.29,.66-.5-.32-.55-.91-.11-1.29,1.27-1.06,2.35-.12,3.49,.19Z"/>
    </g>
    <path class="cls-1" d="M19.66,1.75s.07,.05,.09,.1c.02,.04,.03,.09,.03,.14s-.01,.1-.03,.14c-.02,.04-.05,.07-.09,.1-.04,.02-.09,.03-.14,.03s-.1-.01-.14-.03c-.04-.02-.07-.05-.1-.1s-.03-.09-.03-.14,.01-.1,.03-.14,.05-.07,.1-.1c.04-.02,.09-.03,.14-.03s.1,.01,.14,.03Zm.01,.38s.06-.09,.06-.15-.02-.11-.06-.15c-.04-.04-.09-.06-.15-.06s-.11,.02-.15,.06c-.04,.04-.05,.09-.05,.15s.02,.11,.05,.15c.04,.04,.09,.06,.15,.06s.11-.02,.15-.06Zm-.04-.15s-.02,.02-.04,.03l.07,.1h-.1l-.06-.1h0v.1h-.08v-.27h.13s.05,0,.07,.02c.02,.02,.03,.04,.03,.06,0,.02,0,.04-.01,.05Zm-.13-.02h.04s.01,0,.02,0c0,0,0,0,0-.02,0,0,0-.01,0-.02,0,0-.01,0-.02,0h-.04v.04Z"/>
    <g>
      <path class="cls-1" d="M4.73,10.59s.07,.07,.08,.12c0,.01,0,.03,0,.04,0,.05-.01,.09-.04,.14-.03,.04-.07,.08-.12,.1l.17,.27-.17,.03-.16-.26h-.07s0,.3,0,.3l-.15,.03v-.74l.27-.05c.07-.01,.13,0,.18,.02Zm-.07,.17s-.02-.04-.04-.06c-.02-.01-.05-.01-.08,0l-.12,.02v.22l.12-.02s.07-.02,.09-.05c.02-.02,.03-.05,.03-.09,0-.01,0-.02,0-.03Z"/>
      <path class="cls-1" d="M5.28,10.56v.19s.24-.04,.24-.04v.11l-.24,.04v.2s.27-.05,.27-.05v.12l-.42,.07v-.75s.42-.07,.42-.07v.12s-.27,.05-.27,.05Z"/>
      <path class="cls-1" d="M5.97,11.02c-.05-.02-.08-.07-.09-.13,0,0,0-.02,0-.03l.15-.03s.01,.05,.04,.07c.02,.02,.05,.02,.09,.01s.06-.02,.08-.04c.02-.02,.02-.04,.02-.07,0-.03-.02-.04-.04-.06s-.06-.02-.11-.03c-.04,0-.08-.02-.11-.03-.03-.01-.05-.03-.08-.05-.02-.02-.04-.05-.05-.09,0-.04,0-.09,.01-.12,.02-.04,.04-.07,.08-.09,.04-.03,.08-.04,.13-.05,.05,0,.1,0,.14,0,.04,.01,.07,.03,.1,.06,.02,.03,.04,.06,.04,.1l-.15,.03h0s-.02-.05-.04-.06c-.02-.01-.04-.02-.07,0-.03,0-.06,.02-.07,.04-.02,.02-.02,.04-.02,.07,0,.02,.01,.03,.03,.04,.01,.01,.03,.02,.05,.03,.02,0,.04,.01,.08,.02,.04,.01,.08,.02,.11,.03,.03,.01,.06,.03,.08,.05,.02,.02,.04,.05,.04,.09,0,.04,0,.08-.01,.12-.02,.04-.04,.07-.08,.09-.04,.03-.08,.04-.14,.05-.07,.01-.13,0-.19-.02Z"/>
      <path class="cls-1" d="M7.19,10.1v.12s-.19,.03-.19,.03v.63s-.15,.03-.15,.03v-.63l-.19,.03v-.12s.53-.09,.53-.09Z"/>
      <path class="cls-1" d="M7.93,10.57l-.29,.05-.05,.15-.15,.03,.26-.79,.17-.03,.26,.7-.15,.03-.05-.13Zm-.04-.11l-.11-.3-.1,.33,.21-.04Z"/>
      <path class="cls-1" d="M8.57,9.85v.46s0,.03,0,.04c0,.04,.02,.06,.05,.08,.02,.01,.06,.02,.1,.01,.05,0,.08-.03,.11-.06s.04-.07,.04-.12v-.46s.14-.03,.14-.03v.46c0,.06-.01,.12-.04,.17s-.06,.09-.11,.12c-.04,.03-.09,.05-.15,.06-.07,.01-.14,0-.19-.03-.05-.03-.08-.08-.1-.15,0-.02,0-.04,0-.06v-.46s.14-.03,.14-.03Z"/>
      <path class="cls-1" d="M9.78,9.69s.07,.07,.08,.12c0,.01,0,.03,0,.04,0,.05-.01,.1-.04,.14-.03,.04-.07,.08-.12,.1l.17,.27-.17,.03-.16-.26h-.07s0,.3,0,.3l-.15,.03v-.74l.27-.05c.07-.01,.13,0,.18,.02Zm-.07,.17s-.02-.05-.04-.06c-.02-.01-.05-.01-.08,0l-.12,.02v.22l.12-.02s.07-.02,.09-.04c.02-.02,.03-.05,.03-.09,0-.01,0-.02,0-.02Z"/>
      <path class="cls-1" d="M10.63,10.09l-.29,.05-.05,.15-.15,.03,.26-.79,.17-.03,.26,.7-.15,.03-.05-.13Zm-.04-.11l-.11-.3-.1,.33,.21-.04Z"/>
      <path class="cls-1" d="M11.74,10.03l-.15,.03-.33-.45v.51l-.15,.03v-.75s.14-.03,.14-.03l.33,.45v-.51l.14-.03v.75Z"/>
      <path class="cls-1" d="M12.57,9.14v.12s-.19,.03-.19,.03v.63s-.14,.03-.14,.03v-.63s-.19,.03-.19,.03v-.12l.53-.09Z"/>
      <path class="cls-1" d="M13.01,9.18v.19l.24-.04v.12l-.24,.04v.2l.27-.05v.12l-.42,.07v-.75s.42-.07,.42-.07v.12s-.27,.05-.27,.05Z"/>
    </g>
    <g>
      <path class="cls-1" d="M6.33,8.49c-.21,.85-.93,1.43-1.74,1.57-.86,.15-1.44-.25-1.64-1.37-.21-1.19-.06-3.52,1.71-3.84,.58-.1,1.11,.05,1.23,.7,.06,.33-.02,.61-.35,.67-.11,.02-.25,.02-.41-.1,.14-.11,.24-.42,.2-.65-.04-.22-.19-.39-.45-.34-.76,.14-1.09,1.98-.85,3.3,.11,.63,.34,1.05,.97,.94,.5-.09,.94-.45,1.17-.92l.16,.04Z"/>
      <path class="cls-1" d="M8.94,5.79l-.08,2.32c0,.09,0,.16,.01,.22,.03,.18,.13,.23,.31,.2,.26-.05,.39-.33,.43-.67l.28-.05c-.18,1.14-.76,1.35-1.11,1.41-.35,.06-.63-.09-.75-.46-.14,.34-.4,.7-.87,.79-.45,.08-.92-.12-1.06-.9-.16-.89,.14-2.4,1.28-2.6,.22-.04,.5-.05,.6,.25v-.32s.96-.17,.96-.17Zm-1.89,2.58c.09,.51,.3,.48,.42,.45,.19-.03,.43-.28,.44-.68l.05-1.54c-.02-.08-.11-.24-.31-.2-.56,.1-.71,1.35-.6,1.96Z"/>
      <path class="cls-1" d="M12.4,7.35c-.27,.46-.59,.77-.86,1-.22,.34-.63,.52-.96,.58-.67,.12-1.04-.27-1.11-.67-.05-.3,.07-.55,.24-.67,.25-.72,.37-1.41,.46-2.09l.95-.3c.38,1.69,.49,1.93,.57,2.37,.02,.09,.02,.17,.02,.25,.16-.14,.31-.29,.41-.41l.28-.05Zm-2.41,.76c-.07,.01-.15,0-.19-.05,.06,.31,.19,.44,.48,.39,.29-.05,.54-.25,.46-.71-.06-.34-.16-.53-.4-1.54-.06,.45-.17,.88-.31,1.34,.09,.02,.17,.09,.19,.2,.03,.16-.06,.34-.23,.37Z"/>
      <path class="cls-1" d="M13.14,5.04l-.08,2.32c0,.09,0,.16,.01,.22,.03,.18,.13,.23,.31,.2,.26-.05,.45-.34,.49-.68l.28-.05c-.18,1.14-.81,1.4-1.16,1.46-.39,.07-.75-.11-.84-.66-.02-.12-.03-.27-.02-.44l.07-2.19,.95-.17Z"/>
      <path class="cls-1" d="M15.63,6.77c0,.08-.02,.15-.05,.22-.08,.24-.24,.43-.44,.46-.1,.02-.18,.01-.23-.03-.02-.02-.04-.04-.05-.06-.02-.03-.03-.06-.03-.11-.01-.06-.02-.13-.01-.22h0s.03-.91,.03-.91l.02-.53,.02-.61,.19-.03,.21-.04v-.27s0,0,0,0h-.06s-.33,.07-.33,.07l.04-1.08-.95,.31v.15s0,0,0,0v.33s-.03,.46-.03,.46h-.04s-.17,.04-.17,.04v.27s.17-.03,.17-.03h.05s-.04,1.13-.04,1.13h0s-.03,.78-.03,.78c0,.16,0,.31,.02,.44,.01,.07,.03,.14,.05,.2h0c.11,.32,.34,.47,.61,.48,.06,0,.12,0,.19-.01,.13-.02,.29-.07,.46-.18,.18-.12,.37-.31,.51-.62,.08-.18,.15-.4,.19-.66l-.28,.05Z"/>
      <path class="cls-1" d="M15.29,4.93l-.21,.04c.04-.1,.1-.2,.15-.3h.06s0,.26,0,.26Z"/>
      <path class="cls-1" d="M17.47,4.27v.32c-.11-.29-.39-.28-.61-.25-.12,.02-.24,.06-.34,.11-.13,.06-.25,.15-.35,.25-.04,.04-.08,.08-.11,.12-.19,.23-.32,.51-.4,.81,0,.02-.01,.05-.02,.07,0,0,0,0,0,0-.11,.43-.11,.88-.05,1.23,0,.02,0,.03,0,.05,.02-.07,.04-.14,.05-.22l.28-.05c-.04,.27-.11,.49-.19,.66,.11,.22,.26,.35,.43,.42,.04,.02,.08,.03,.12,.04,.02,0,.04,0,.06,.01,.06,0,.13,.01,.19,0,.04,0,.08,0,.12-.01,.12-.02,.22-.06,.31-.11,.22-.12,.37-.31,.48-.51,.03-.05,.06-.11,.08-.16,0,0,.65,1.6-3.18,1.66,0,0-.8,.25-.39,.95,0,0,1.62-.06,2.87-.83,.03-.02,.06-.04,.09-.06,0,0,0,0,0,0,.11-.07,.22-.15,.33-.23,0,0,.01-.01,.02-.02,.87-.69,1.05-1.58,1.08-2.01,0-.03,0-.07,0-.11v-.14s0,0,0,0l.08-2.18-.95,.17Zm-.07,2.19c-.01,.39-.24,.63-.43,.67,0,0,0,0-.01,0-.08,.02-.22,.04-.32-.14-.04-.07-.07-.16-.1-.29h0s0-.02,0-.03c-.02-.12-.03-.26-.03-.41h0c0-.14,0-.29,.02-.43,.03-.26,.09-.52,.19-.73,.1-.21,.24-.37,.42-.4,.2-.04,.29,.12,.31,.2l-.05,1.54Z"/>
    </g>
    <g>
      <path class="cls-1" d="M8.19,5.37l-.06-1.66-.39,1.74-.49,.09-.22-1.64-.31,1.73-.29,.05,.48-2.64c-.34,.18-.5,.5-.43,.91,.03,.17,.08,.21,.09,.24-.23,.04-.4-.02-.44-.26-.08-.47,.43-1.07,.97-1.17,.1-.02,.2-.02,.29,0l.26,1.92,.46-2.04,.52-.09,.09,2.72-.52,.09Z"/>
      <path class="cls-1" d="M9.62,2.76c0-.05-.03-.1-.06-.14-.07-.08-.17-.12-.28-.1-.16,.03-.26,.18-.23,.34,.03,.16,.18,.26,.34,.23,.1-.02,.18-.08,.22-.17,.02-.05,.03-.11,.02-.17Zm.21,1.96s-.05,.03-.11,.04c-.1,.02-.15,0-.17-.11,0-.03,0-.07,0-.12l.04-1.27-.52,.09-.04,1.2c0,.09,0,.17,.01,.24,.05,.3,.25,.4,.46,.36,.19-.03,.36-.18,.33-.44Z"/>
    </g>
    <path class="cls-1" d="M12.65,4.75c-.14,.02-.28,.03-.41,.05-.1,.01-.14-.03-.15-.12-.03-.27-.06-.54-.1-.8-.01-.09,.02-.14,.12-.16,.28-.03,.55-.07,.83-.11,.1-.01,.14,.03,.15,.12,.03,.27,.07,.54,.1,.8,.01,.09-.02,.14-.12,.15-.14,.01-.28,.03-.41,.05,0,0,0,0,0,0Z"/>
    <line class="cls-1" x1="10.23" y1="4.42" x2="10.08" y2="4.71"/>
    <polyline class="cls-1" points="10.67 3.6 11.71 1.67 11.73 1.63"/>
    <line class="cls-1" x1="17.25" y1="2.51" x2="16.72" y2="2.27"/>
    <polyline class="cls-1" points="15.89 1.88 15.19 1.55 15.19 1.55"/>
    <polygon class="cls-1" points="18.02 7.71 18.02 7.72 18.02 7.72 18.02 7.71"/>
    <path class="cls-1" d="M18.11,7.52h0s0,.01,0,.01c0,0,0,0,.01-.01Z"/>
    <polygon class="cls-1" points="18.02 7.72 18.02 7.71 18.02 7.72 18.02 7.72"/>
    <path class="cls-1" d="M18.11,7.52h0s0,.01,0,.01c0,0,0,0,.01-.01Z"/>
    <path class="cls-1" d="M18.91,2.5s-.38,1.22-2.8,1.16h0c-.38-.19-.77-.37-1.15-.56-.02,0-.04-.02-.06-.03-.87-.43-1.75-.86-2.65-1.29-.45,.93-.9,1.84-1.35,2.76-.21-.13-.43-.33-.62-.59l.42-.83s0,0,.01,.01c.04-.08,.08-.13,.1-.18,.29-.59,.58-1.19,.87-1.78,.05-.1,.1-.2,.15-.3,.04-.08,.08-.13,.17-.13,.44,0,.89,.01,1.33,.01,.09,0,.16,.04,.17,.13,.05,.31,.23,.51,.53,.62,.03,.01,.05,.04,.09,.04,.04,.01,.08,.02,.15,.03-.02-.08-.02-.13-.04-.18-.14-.41-.28-.82-.42-1.23-.02-.05-.02-.1-.03-.16,.22,0,.42,0,.63,0,.1,0,.16,.04,.19,.13,.06,.17,.11,.34,.18,.5,.03,.07,.09,.14,.15,.17,.08,.04,.16,.08,.24,.12h0c.18,.09,.36,.18,.54,.26,.04,.02,.09,.03,.16,.06h0s3.05,1.24,3.05,1.24Z"/>
    <rect class="cls-7" x="0" y="48.5" width="31.94" height="6.92" rx="3.46" ry="3.46"/>
    <g>
      <path class="cls-4" d="M5.78,51.93v.05s0,.02-.01,.02h-.17s0-.05,0-.08c0-.07-.02-.14-.03-.21,0-.02-.01-.05-.02-.07-.01-.04-.03-.09-.04-.13,0,0,0-.01,0-.02-.02-.05-.04-.09-.07-.14-.02-.03-.04-.06-.05-.08,0,0,0-.01-.01-.02-.09-.12-.19-.21-.31-.29-.02-.02-.05-.03-.07-.04-.04-.03-.09-.05-.14-.07,0,0,0,0-.01,0-.07-.03-.14-.05-.21-.07-.09-.02-.18-.03-.27-.03,0,0-.02,0-.02,0,0,0,0,0,0-.01v-.15s0-.03,.03-.03h.05s.07,0,.11,.01c.01,0,.03,0,.04,.01,.1,.02,.19,.04,.28,.07,.27,.1,.49,.26,.66,.49,0,0,0,0,0,.01,.01,.01,.02,.02,.03,.04,.03,.04,.05,.08,.07,.12,.03,.04,.05,.09,.07,.14,.02,.05,.04,.1,.06,.16,0,.02,.02,.04,.01,.05,.02,.07,.03,.14,.04,.21,0,.03,0,.06,0,.1h0Z"/>
      <path class="cls-4" d="M2.86,51.15s0-.02,0-.03c0-.02,.01-.04,.02-.06s.02-.04,.04-.05c.06-.06,.12-.11,.17-.17,.02-.02,.04-.04,.06-.05,.02-.02,.05-.03,.08-.03,.02,0,.03,0,.05-.01h.08s.05,.01,.07,.02c.1,.04,.18,.11,.22,.2,.02,.04,.03,.07,.04,.11,.03,.09,.05,.19,.07,.28,.02,.09,0,.18-.04,.26-.02,.03-.03,.05-.05,.07-.03,.03-.06,.06-.1,.09-.02,.02-.02,.03-.01,.05,.01,.04,.03,.07,.04,.11,.02,.05,.04,.09,.06,.13,.04,.08,.1,.16,.15,.23,.02,.02,.03,.04,.05,.06,.11,.12,.23,.21,.37,.29,.04,.02,.09,.04,.14,.06,.04,.02,.08,.03,.12,.04,.01,0,.02,0,.03,0,.03-.03,.06-.06,.1-.1,.07-.08,.17-.11,.27-.11,.04,0,.09,.02,.13,.03,0,0,.01,0,.02,0,.08,.02,.17,.05,.25,.07,0,0,.02,0,.02,0,.09,.03,.16,.09,.2,.18,.01,.02,.02,.05,.03,.07,0,.02,.01,.04,.02,.06v.09s0,.04-.01,.05c-.02,.06-.05,.11-.1,.16-.05,.05-.1,.1-.14,.14-.02,.02-.04,.04-.06,.05-.03,.01-.07,.03-.1,.03-.05,0-.11,0-.16,0-.06,0-.12-.01-.18-.02-.06-.01-.13-.02-.19-.04-.12-.03-.23-.06-.34-.11-.01,0-.03-.01-.04-.02-.02-.01-.04-.02-.07-.03-.05-.03-.11-.05-.16-.08-.07-.04-.14-.09-.21-.13-.06-.04-.11-.09-.17-.13-.06-.05-.12-.11-.17-.17-.05-.05-.09-.11-.14-.16-.01-.02-.02-.03-.04-.05,0-.01-.01-.02-.02-.03-.05-.07-.09-.14-.13-.21-.03-.05-.06-.1-.08-.16-.01-.02-.02-.04-.03-.06-.02-.05-.04-.11-.06-.17-.03-.07-.05-.14-.06-.22,0-.02,0-.04-.01-.06,0-.03-.01-.06-.02-.09,0-.02-.01-.03,0-.05,0-.05-.01-.11-.02-.17,0-.05,0-.09,0-.14v-.04h0Z"/>
      <path class="cls-4" d="M4.32,51.27v-.17s0-.02,.02-.02c.04,0,.09,0,.13,.01,.02,0,.04,0,.06,.01,.06,.02,.12,.04,.18,.06,.26,.13,.43,.34,.5,.63,0,0,0,0,0,.01,0,.01,.01,.03,0,.04,0,.04,0,.08,.01,.12,0,.03,0,.03-.03,.03h-.13s-.02,0-.03,0c0,0,0-.02,0-.02,0-.02,0-.04,0-.06,0-.02,0-.03,0-.05,0-.03-.01-.06-.02-.09-.04-.12-.1-.22-.19-.3-.08-.08-.18-.14-.28-.17-.03-.01-.05-.02-.08-.02-.02,0-.03,0-.05,0-.02,0-.04,0-.06,0,0,0-.02,0-.02,0h0Z"/>
      <path class="cls-4" d="M4.35,51.82s-.03-.02-.03-.04v-.15c.05,0,.1,.01,.14,.03,.02,0,.03,.01,.04,.02,.01,0,.02,.01,.03,.02,.03,.02,.06,.05,.09,.09,.02,.02,.03,.05,.04,.07,.02,.04,.02,.08,.03,.12v.03s0,0,0,0c-.02,0-.05,0-.07,0h-.09s-.03,0-.03-.03c0-.06-.04-.1-.09-.13-.02-.01-.03-.01-.05-.02,0,0-.01,0-.02,0h0Z"/>
    </g>
    <rect class="cls-6" x="25.86" y="48.54" width="32.3" height="6.92" rx="3.46" ry="3.46"/>
    <path class="cls-4" d="M30.26,50.78c-.14-.12-.3-.21-.49-.23-.05,0-.1,0-.15-.02h-.23s-.02,0-.04,0c-.08,0-.16,0-.24,.03-.44,.16-.75,.58-.75,1.07,0,.23,.05,.44,.15,.65,.19,.4,.46,.73,.79,1.03,.05,.05,.1,.08,.17,.09h.09s.1-.02,.13-.06c.09-.09,.19-.17,.27-.27,.17-.19,.33-.4,.46-.62,.13-.24,.23-.49,.24-.76,.01-.37-.12-.69-.4-.93h0Zm-.75,1.44c-.32-.01-.57-.27-.56-.58,.01-.31,.27-.56,.57-.55,.32,.01,.56,.27,.55,.58-.01,.31-.27,.56-.57,.55Z"/>
    <g>
      <path class="cls-1" d="M8.4,50.97c.12-.09,.26-.14,.44-.14,.12,0,.23,.02,.32,.07,.09,.04,.16,.1,.2,.18s.07,.16,.07,.26c0,.11-.03,.2-.09,.28-.06,.08-.13,.13-.21,.16h0c.1,.04,.19,.1,.24,.18s.09,.19,.09,.32c0,.1-.02,.2-.07,.28-.05,.08-.12,.15-.21,.19-.09,.05-.21,.07-.34,.07-.19,0-.35-.05-.47-.15-.12-.1-.19-.24-.2-.42h.29c0,.09,.04,.17,.11,.23,.07,.06,.15,.09,.26,.09s.19-.03,.25-.09c.06-.06,.09-.14,.09-.23,0-.12-.04-.21-.12-.26-.08-.05-.2-.08-.36-.08h-.07v-.25h.07c.14,0,.25-.03,.33-.07,.07-.05,.11-.12,.11-.22,0-.08-.03-.15-.08-.2-.05-.05-.13-.08-.23-.08s-.18,.03-.23,.08c-.05,.05-.09,.11-.1,.19h-.29c.01-.16,.07-.29,.19-.38Z"/>
      <path class="cls-1" d="M9.75,51.15v-.28h.55v1.93h-.3v-1.66h-.25Z"/>
      <path class="cls-1" d="M10.67,51.15v-.28h.55v1.93h-.3v-1.66h-.25Z"/>
      <path class="cls-1" d="M11.81,52.4c.17-.15,.3-.27,.4-.36,.1-.09,.18-.19,.24-.3s.1-.2,.1-.31-.02-.19-.08-.25c-.05-.06-.13-.09-.24-.09s-.18,.03-.24,.1c-.06,.07-.09,.15-.09,.27h-.29c0-.2,.07-.36,.18-.46,.12-.11,.26-.16,.44-.16,.19,0,.34,.05,.45,.16,.11,.11,.16,.25,.16,.42,0,.13-.03,.25-.1,.37-.06,.12-.14,.22-.23,.32-.09,.09-.2,.2-.34,.32l-.12,.11h.84v.25h-1.29v-.22l.19-.16Z"/>
      <path class="cls-1" d="M13.33,52.4c.17-.15,.3-.27,.4-.36,.1-.09,.18-.19,.24-.3s.1-.2,.1-.31-.02-.19-.08-.25c-.05-.06-.13-.09-.24-.09s-.18,.03-.24,.1c-.06,.07-.09,.15-.09,.27h-.29c0-.2,.07-.36,.18-.46,.12-.11,.26-.16,.44-.16,.19,0,.34,.05,.45,.16,.11,.11,.16,.25,.16,.42,0,.13-.03,.25-.1,.37-.06,.12-.14,.22-.23,.32-.09,.09-.2,.2-.34,.32l-.12,.11h.84v.25h-1.29v-.22l.19-.16Z"/>
      <path class="cls-1" d="M14.75,51.36c0-.1,.02-.18,.07-.26,.05-.08,.12-.14,.21-.19s.21-.07,.35-.07,.25,.02,.35,.07c.1,.05,.17,.11,.22,.19,.05,.08,.07,.17,.07,.26s-.03,.19-.08,.26c-.05,.07-.12,.13-.2,.17,.1,.04,.18,.1,.24,.18s.09,.18,.09,.3-.03,.22-.09,.3-.14,.16-.24,.2c-.1,.05-.22,.07-.35,.07s-.25-.02-.35-.07c-.1-.05-.18-.12-.24-.2s-.09-.19-.09-.3,.03-.21,.09-.3c.06-.08,.14-.14,.24-.18-.18-.09-.28-.24-.28-.43Zm.35,.65c-.07,.06-.11,.14-.11,.25,0,.1,.04,.18,.11,.24,.07,.06,.17,.09,.29,.09s.21-.03,.28-.1c.07-.06,.1-.14,.1-.24,0-.11-.04-.19-.11-.25-.07-.06-.17-.09-.28-.09s-.21,.03-.28,.09Zm.54-.84c-.06-.05-.15-.08-.25-.08s-.19,.03-.25,.08c-.06,.05-.09,.13-.09,.23,0,.09,.03,.16,.1,.22,.06,.06,.15,.08,.25,.08s.18-.03,.25-.08c.07-.06,.1-.13,.1-.22,0-.1-.03-.17-.09-.23Z"/>
      <path class="cls-1" d="M17.32,51.14c-.05-.04-.12-.06-.21-.06-.14,0-.24,.05-.31,.16-.07,.11-.11,.28-.11,.53,.05-.08,.11-.14,.2-.18s.18-.06,.29-.06c.12,0,.22,.03,.31,.08,.09,.05,.16,.12,.21,.22s.08,.21,.08,.34c0,.12-.02,.23-.07,.33-.05,.1-.12,.17-.22,.23-.1,.06-.21,.08-.34,.08-.18,0-.32-.04-.43-.12s-.18-.19-.22-.34c-.04-.15-.06-.33-.06-.55,0-.65,.23-.97,.68-.97,.18,0,.32,.05,.42,.14,.1,.1,.16,.21,.18,.35h-.28c-.02-.08-.05-.14-.11-.18Zm-.49,.74c-.07,.06-.11,.16-.11,.28s.03,.22,.1,.29c.07,.07,.17,.11,.29,.11,.11,0,.2-.03,.26-.1,.06-.07,.1-.16,.1-.28s-.03-.22-.09-.29c-.06-.07-.15-.11-.28-.11-.11,0-.2,.03-.27,.1Z"/>
      <path class="cls-1" d="M18.13,51.36c0-.1,.02-.18,.07-.26,.05-.08,.12-.14,.21-.19s.21-.07,.35-.07,.25,.02,.35,.07c.1,.05,.17,.11,.22,.19,.05,.08,.07,.17,.07,.26s-.03,.19-.08,.26c-.05,.07-.12,.13-.2,.17,.1,.04,.18,.1,.24,.18s.09,.18,.09,.3-.03,.22-.09,.3-.14,.16-.24,.2c-.1,.05-.22,.07-.35,.07s-.25-.02-.35-.07c-.1-.05-.18-.12-.24-.2s-.09-.19-.09-.3,.03-.21,.09-.3c.06-.08,.14-.14,.24-.18-.18-.09-.28-.24-.28-.43Zm.35,.65c-.07,.06-.11,.14-.11,.25,0,.1,.04,.18,.11,.24,.07,.06,.17,.09,.29,.09s.21-.03,.28-.1c.07-.06,.1-.14,.1-.24,0-.11-.04-.19-.11-.25-.07-.06-.17-.09-.28-.09s-.21,.03-.28,.09Zm.54-.84c-.06-.05-.15-.08-.25-.08s-.19,.03-.25,.08c-.06,.05-.09,.13-.09,.23,0,.09,.03,.16,.1,.22,.06,.06,.15,.08,.25,.08s.18-.03,.25-.08c.07-.06,.1-.13,.1-.22,0-.1-.03-.17-.09-.23Z"/>
      <path class="cls-1" d="M19.96,50.97c.12-.09,.26-.14,.44-.14,.12,0,.23,.02,.32,.07,.09,.04,.16,.1,.2,.18s.07,.16,.07,.26c0,.11-.03,.2-.09,.28-.06,.08-.13,.13-.21,.16h0c.1,.04,.19,.1,.24,.18s.09,.19,.09,.32c0,.1-.02,.2-.07,.28-.05,.08-.12,.15-.21,.19-.09,.05-.21,.07-.34,.07-.19,0-.35-.05-.47-.15-.12-.1-.19-.24-.2-.42h.29c0,.09,.04,.17,.11,.23,.07,.06,.15,.09,.26,.09s.19-.03,.25-.09c.06-.06,.09-.14,.09-.23,0-.12-.04-.21-.12-.26-.08-.05-.2-.08-.36-.08h-.07v-.25h.07c.14,0,.25-.03,.33-.07,.07-.05,.11-.12,.11-.22,0-.08-.03-.15-.08-.2-.05-.05-.13-.08-.23-.08s-.18,.03-.23,.08c-.05,.05-.09,.11-.1,.19h-.29c.01-.16,.07-.29,.19-.38Z"/>
      <path class="cls-1" d="M21.5,51.1c.1-.17,.28-.26,.53-.26s.43,.09,.53,.26c.1,.17,.15,.41,.15,.72s-.05,.55-.15,.72c-.1,.17-.28,.26-.53,.26s-.43-.09-.53-.26c-.1-.17-.15-.42-.15-.72s.05-.54,.15-.72Zm.9,.35c-.02-.1-.06-.18-.11-.24-.06-.06-.14-.09-.25-.09s-.19,.03-.25,.09c-.06,.06-.09,.14-.11,.24-.02,.1-.03,.22-.03,.36s0,.27,.03,.37c.02,.1,.05,.18,.11,.24,.06,.06,.14,.09,.25,.09s.2-.03,.25-.09c.06-.06,.09-.14,.11-.24,.02-.1,.03-.22,.03-.37s0-.26-.03-.36Z"/>
    </g>
    <g>
      <path class="cls-1" d="M33.41,51.52c.08-.13,.18-.24,.32-.31,.13-.07,.28-.11,.44-.11,.18,0,.34,.04,.48,.13,.14,.09,.24,.22,.31,.38h-.34c-.04-.09-.11-.16-.18-.2-.08-.04-.17-.07-.27-.07-.11,0-.21,.03-.3,.08-.09,.05-.16,.12-.21,.22-.05,.09-.07,.2-.07,.33s.02,.24,.07,.33c.05,.09,.12,.17,.21,.22,.09,.05,.19,.08,.3,.08,.1,0,.19-.02,.27-.07,.08-.04,.14-.11,.18-.2h.34c-.06,.16-.17,.29-.31,.38-.14,.09-.3,.13-.48,.13-.16,0-.31-.04-.44-.11-.13-.07-.24-.18-.31-.31-.08-.13-.12-.28-.12-.45s.04-.32,.12-.45Z"/>
      <path class="cls-1" d="M35.72,51.51c.07-.04,.15-.06,.24-.06v.29h-.07c-.11,0-.19,.03-.25,.08s-.08,.15-.08,.29v.71h-.28v-1.35h.28v.2c.04-.07,.1-.12,.16-.16Z"/>
      <path class="cls-1" d="M36.21,51.78c.06-.1,.13-.19,.23-.24,.1-.06,.2-.09,.32-.09,.11,0,.2,.02,.28,.06s.14,.09,.19,.16v-.2h.28v1.35h-.28v-.2c-.05,.06-.11,.12-.19,.16s-.17,.06-.28,.06c-.12,0-.22-.03-.32-.09s-.17-.14-.23-.25c-.06-.11-.08-.23-.08-.36s.03-.26,.08-.36Zm.96,.12c-.04-.07-.09-.12-.15-.16s-.13-.05-.2-.05-.14,.02-.2,.05c-.06,.04-.11,.09-.15,.15-.04,.07-.06,.15-.06,.24s.02,.17,.06,.24c.04,.07,.09,.12,.15,.16,.06,.04,.13,.06,.2,.06s.14-.02,.2-.05,.11-.09,.15-.16c.04-.07,.06-.15,.06-.24s-.02-.17-.06-.24Z"/>
      <path class="cls-1" d="M37.87,52.79s-.05-.08-.05-.13,.02-.09,.05-.13c.03-.03,.08-.05,.13-.05s.09,.02,.12,.05c.03,.03,.05,.08,.05,.13s-.02,.09-.05,.13-.08,.05-.12,.05-.09-.02-.13-.05Z"/>
      <path class="cls-1" d="M39.12,51.49c0-.09,.02-.17,.07-.24,.04-.07,.11-.13,.2-.18s.2-.06,.32-.06,.23,.02,.32,.06c.09,.04,.16,.1,.2,.18,.04,.07,.07,.15,.07,.24s-.02,.17-.07,.24c-.05,.07-.11,.12-.18,.16,.09,.03,.17,.09,.22,.17s.08,.17,.08,.27-.03,.2-.08,.28-.13,.14-.23,.19c-.1,.04-.21,.07-.33,.07s-.23-.02-.33-.07c-.1-.04-.17-.11-.22-.19s-.08-.18-.08-.28,.03-.2,.08-.27c.05-.08,.13-.13,.22-.17-.17-.08-.25-.22-.25-.4Zm.32,.6c-.07,.05-.1,.13-.1,.23,0,.09,.03,.17,.1,.23,.07,.06,.15,.09,.27,.09s.2-.03,.26-.09c.06-.06,.1-.13,.1-.23,0-.1-.03-.17-.1-.23-.07-.05-.15-.08-.26-.08s-.2,.03-.26,.08Zm.5-.78c-.06-.05-.14-.07-.23-.07s-.18,.02-.23,.07c-.06,.05-.09,.12-.09,.21,0,.08,.03,.15,.09,.2,.06,.05,.14,.08,.23,.08s.17-.03,.23-.08c.06-.05,.09-.12,.09-.2,0-.09-.03-.16-.09-.21Z"/>
      <path class="cls-1" d="M40.66,51.78c.06-.11,.13-.19,.23-.24,.1-.06,.21-.09,.34-.09,.16,0,.3,.04,.41,.12,.11,.08,.18,.19,.22,.33h-.3c-.02-.07-.06-.12-.12-.16-.05-.04-.12-.06-.2-.06-.11,0-.21,.04-.27,.12s-.1,.19-.1,.34,.03,.26,.1,.34,.16,.12,.27,.12c.16,0,.27-.07,.32-.21h.3c-.04,.14-.11,.25-.22,.33-.11,.08-.24,.12-.4,.12-.13,0-.24-.03-.34-.09-.1-.06-.18-.14-.23-.24-.06-.11-.08-.23-.08-.37s.03-.26,.08-.37Z"/>
      <path class="cls-1" d="M44.2,51.7l-.09,.42h.32v.24h-.37l-.1,.45h-.27l.1-.45h-.48l-.1,.45h-.27l.1-.45h-.38v-.24h.43l.09-.42h-.38v-.24h.43l.1-.45h.27l-.1,.45h.48l.1-.45h.27l-.1,.45h.33v.24h-.38Zm-.27,0h-.48l-.09,.42h.48l.09-.42Z"/>
      <path class="cls-1" d="M44.84,51.29v-.25h.51v1.78h-.28v-1.53h-.23Z"/>
      <path class="cls-1" d="M45.78,51.49c0-.09,.02-.17,.07-.24,.04-.07,.11-.13,.2-.18s.2-.06,.32-.06,.23,.02,.32,.06c.09,.04,.16,.1,.2,.18,.04,.07,.07,.15,.07,.24s-.02,.17-.07,.24c-.05,.07-.11,.12-.18,.16,.09,.03,.17,.09,.22,.17s.08,.17,.08,.27-.03,.2-.08,.28-.13,.14-.23,.19c-.1,.04-.21,.07-.33,.07s-.23-.02-.33-.07c-.1-.04-.17-.11-.22-.19s-.08-.18-.08-.28,.03-.2,.08-.27c.05-.08,.13-.13,.22-.17-.17-.08-.25-.22-.25-.4Zm.32,.6c-.07,.05-.1,.13-.1,.23,0,.09,.03,.17,.1,.23,.07,.06,.15,.09,.27,.09s.2-.03,.26-.09c.06-.06,.1-.13,.1-.23,0-.1-.03-.17-.1-.23-.07-.05-.15-.08-.26-.08s-.2,.03-.26,.08Zm.5-.78c-.06-.05-.14-.07-.23-.07s-.18,.02-.23,.07c-.06,.05-.09,.12-.09,.21,0,.08,.03,.15,.09,.2,.06,.05,.14,.08,.23,.08s.17-.03,.23-.08c.06-.05,.09-.12,.09-.2,0-.09-.03-.16-.09-.21Z"/>
      <path class="cls-1" d="M47.34,51.49c0-.09,.02-.17,.07-.24,.04-.07,.11-.13,.2-.18s.2-.06,.32-.06,.23,.02,.32,.06c.09,.04,.16,.1,.2,.18,.04,.07,.07,.15,.07,.24s-.02,.17-.07,.24c-.05,.07-.11,.12-.18,.16,.09,.03,.17,.09,.22,.17s.08,.17,.08,.27-.03,.2-.08,.28-.13,.14-.23,.19c-.1,.04-.21,.07-.33,.07s-.23-.02-.33-.07c-.1-.04-.17-.11-.22-.19s-.08-.18-.08-.28,.03-.2,.08-.27c.05-.08,.13-.13,.22-.17-.17-.08-.25-.22-.25-.4Zm.32,.6c-.07,.05-.1,.13-.1,.23,0,.09,.03,.17,.1,.23,.07,.06,.15,.09,.27,.09s.2-.03,.26-.09c.06-.06,.1-.13,.1-.23,0-.1-.03-.17-.1-.23-.07-.05-.15-.08-.26-.08s-.2,.03-.26,.08Zm.5-.78c-.06-.05-.14-.07-.23-.07s-.18,.02-.23,.07c-.06,.05-.09,.12-.09,.21,0,.08,.03,.15,.09,.2,.06,.05,.14,.08,.23,.08s.17-.03,.23-.08c.06-.05,.09-.12,.09-.2,0-.09-.03-.16-.09-.21Z"/>
      <path class="cls-1" d="M49.93,51.82v.24h-1.01v-.24h1.01Z"/>
      <path class="cls-1" d="M50.25,51.29v-.25h.51v1.78h-.28v-1.53h-.23Z"/>
      <path class="cls-1" d="M52.01,51.28s-.11-.06-.2-.06c-.13,0-.23,.05-.29,.15-.06,.1-.1,.26-.1,.49,.04-.07,.1-.13,.19-.17s.17-.06,.26-.06c.11,0,.2,.02,.29,.07,.08,.05,.15,.11,.19,.2s.07,.19,.07,.32c0,.11-.02,.22-.07,.31-.04,.09-.11,.16-.2,.21-.09,.05-.19,.08-.32,.08-.17,0-.3-.04-.4-.11s-.16-.18-.2-.31c-.04-.14-.06-.3-.06-.51,0-.6,.21-.9,.63-.9,.16,0,.29,.04,.39,.13,.09,.09,.15,.2,.17,.33h-.26c-.02-.07-.05-.13-.1-.17Zm-.45,.68c-.07,.06-.1,.15-.1,.26s.03,.2,.1,.27c.06,.07,.15,.1,.27,.1,.1,0,.18-.03,.24-.1,.06-.06,.09-.15,.09-.25s-.03-.2-.09-.27c-.06-.07-.14-.1-.26-.1-.1,0-.18,.03-.25,.09Z"/>
    </g>
  </g>
</svg>